<svg xmlns="http://www.w3.org/2000/svg" xmlns:xlink="http://www.w3.org/1999/xlink" width="100" zoomAndPan="magnify" viewBox="0 0 75 74.999997" height="100" preserveAspectRatio="xMidYMid meet" version="1.0"><defs><g/><clipPath id="55f47f7512"><path d="M 12.890625 0.0273438 L 62.109375 0.0273438 L 62.109375 74.976562 L 12.890625 74.976562 Z M 12.890625 0.0273438 " clip-rule="nonzero"/></clipPath></defs><g clip-path="url(#55f47f7512)"><path fill="#a5a6f6" d="M 40.789062 23.832031 C 40.695312 24.269531 40.636719 24.71875 40.480469 25.132812 C 39.804688 26.941406 39.203125 28.785156 38.292969 30.496094 C 37.59375 31.800781 37.003906 33.160156 36.261719 34.445312 C 35.054688 36.539062 33.515625 38.316406 31.601562 39.78125 C 30.851562 40.355469 30.0625 40.878906 29.242188 41.324219 C 28.246094 41.867188 27.207031 42.363281 26.085938 42.589844 C 25.070312 42.792969 24.035156 42.941406 22.988281 42.847656 C 21.796875 42.742188 20.640625 42.507812 19.523438 42.070312 C 19.191406 41.941406 18.902344 41.777344 18.632812 41.550781 C 18.019531 41.03125 17.527344 40.40625 17.136719 39.714844 C 16.476562 38.542969 16.328125 37.277344 16.574219 35.972656 C 16.9375 34.035156 17.757812 32.316406 19.066406 30.839844 C 19.644531 29.882812 20.546875 29.257812 21.390625 28.582031 C 22.394531 27.773438 23.421875 26.996094 24.4375 26.203125 C 24.867188 25.867188 25.324219 25.582031 25.804688 25.316406 C 26.582031 24.886719 27.402344 24.550781 28.164062 24.082031 C 28.925781 23.613281 29.773438 23.308594 30.679688 23.230469 C 31.320312 23.179688 31.929688 22.957031 32.570312 22.878906 C 33.457031 22.769531 34.339844 22.667969 35.246094 22.679688 C 36.691406 22.472656 38.082031 22.90625 39.496094 23.136719 C 39.835938 23.191406 40.171875 23.28125 40.511719 23.363281 C 40.6875 23.40625 40.828125 23.640625 40.789062 23.832031 Z M 61.847656 41.660156 C 61.820312 41.265625 61.753906 40.871094 61.667969 40.480469 C 61.308594 38.785156 60.90625 37.097656 60.347656 35.449219 C 60.109375 34.738281 59.808594 34.066406 59.414062 33.429688 C 59.230469 33.136719 59.046875 32.84375 58.882812 32.535156 C 58.25 31.335938 57.402344 30.304688 56.453125 29.351562 C 55.960938 28.859375 55.46875 28.367188 55.003906 27.847656 C 54.074219 26.808594 53.074219 25.851562 51.976562 24.992188 C 49.972656 23.433594 47.902344 21.984375 45.515625 21.050781 C 45.097656 20.886719 44.972656 20.679688 45.011719 20.253906 C 45.054688 19.8125 45.113281 19.367188 45.175781 18.925781 C 45.386719 17.445312 45.46875 15.960938 45.433594 14.46875 C 45.40625 13.371094 45.21875 12.296875 45.0625 11.214844 C 44.871094 9.933594 44.539062 8.695312 44.054688 7.488281 C 43.238281 5.464844 42.269531 3.511719 41.277344 1.566406 C 41.164062 1.347656 41.015625 1.148438 40.871094 0.949219 C 40.785156 0.832031 40.695312 0.6875 40.574219 0.628906 C 40.125 0.417969 39.667969 0.226562 39.207031 0.0429688 C 38.984375 -0.046875 38.546875 0.238281 38.523438 0.484375 C 38.4375 1.378906 38.429688 2.265625 38.824219 3.105469 C 39.285156 4.09375 39.738281 5.089844 40.199219 6.078125 C 40.851562 7.484375 41.238281 8.960938 41.5 10.488281 C 41.695312 11.617188 41.742188 12.757812 41.871094 13.890625 C 42.035156 15.328125 42.03125 16.765625 42.039062 18.207031 C 42.042969 18.664062 41.941406 19.089844 41.769531 19.507812 C 41.695312 19.6875 41.503906 19.824219 41.300781 19.785156 C 40.324219 19.59375 39.3125 19.75 38.347656 19.4375 C 38.164062 19.378906 37.953125 19.398438 37.757812 19.390625 C 36.914062 19.371094 36.066406 19.351562 35.222656 19.332031 C 33.582031 19.296875 31.945312 19.292969 30.351562 19.773438 C 30.164062 19.832031 29.964844 19.859375 29.765625 19.886719 C 28.277344 20.089844 26.867188 20.574219 25.519531 21.21875 C 24.042969 21.921875 22.570312 22.636719 21.207031 23.558594 C 20.671875 23.921875 20.164062 24.320312 19.621094 24.660156 C 18.347656 25.453125 17.25 26.445312 16.152344 27.457031 C 15.707031 27.867188 15.34375 28.316406 15.019531 28.816406 C 14.703125 29.3125 14.339844 29.773438 14.132812 30.351562 C 13.5625 31.945312 13.128906 33.566406 12.914062 35.242188 C 12.882812 35.488281 12.882812 35.742188 12.914062 35.984375 C 13.039062 36.96875 13.136719 37.957031 13.398438 38.921875 C 13.714844 40.082031 14.21875 41.148438 14.898438 42.140625 C 15.835938 43.519531 17.957031 45.179688 19.726562 45.351562 C 19.964844 45.375 20.242188 45.453125 20.417969 45.601562 C 20.914062 46.015625 21.539062 45.972656 22.105469 46.128906 C 22.671875 46.285156 23.261719 46.308594 23.867188 46.257812 C 24.960938 46.167969 26.023438 45.949219 27.101562 45.777344 C 28.101562 45.617188 29.015625 45.269531 29.921875 44.878906 C 32.132812 43.925781 34.0625 42.523438 35.804688 40.886719 C 37.730469 39.074219 39.339844 36.992188 40.65625 34.691406 C 40.976562 34.132812 41.308594 33.574219 41.550781 32.980469 C 41.699219 32.609375 41.882812 32.269531 42.0625 31.917969 C 42.484375 31.085938 42.914062 30.257812 43.039062 29.292969 C 43.136719 28.515625 43.3125 27.714844 43.625 27.003906 C 43.910156 26.355469 44.09375 25.703125 44.207031 25.019531 C 44.25 24.765625 44.519531 24.625 44.769531 24.695312 C 45.390625 24.878906 45.960938 25.171875 46.511719 25.515625 C 48.03125 26.464844 49.460938 27.535156 50.816406 28.703125 C 51.828125 29.578125 52.898438 30.375 53.757812 31.429688 C 54.386719 32.203125 54.988281 32.980469 55.488281 33.839844 C 55.933594 34.613281 56.410156 35.367188 56.890625 36.121094 C 57.105469 36.460938 57.261719 36.820312 57.375 37.203125 C 57.640625 38.109375 57.898438 39.015625 58.171875 39.914062 C 58.550781 41.15625 58.796875 42.417969 58.789062 43.71875 C 58.785156 44.414062 58.796875 45.109375 58.777344 45.800781 C 58.691406 48.667969 58.066406 51.386719 56.792969 53.980469 C 55.351562 56.910156 53.464844 59.5 51.171875 61.804688 C 51.035156 61.945312 50.863281 62.050781 50.699219 62.160156 C 50.675781 62.179688 50.609375 62.148438 50.566406 62.128906 C 50.527344 62.109375 50.46875 62.074219 50.46875 62.046875 C 50.476562 61.5 50.449219 60.953125 50.511719 60.410156 C 50.585938 59.757812 50.503906 59.125 50.429688 58.484375 C 50.296875 57.351562 49.730469 56.546875 48.683594 56.082031 C 48.4375 55.972656 48.058594 56.078125 47.894531 56.320312 C 47.609375 56.742188 47.4375 57.207031 47.417969 57.710938 C 47.382812 58.621094 47.109375 59.46875 46.761719 60.289062 C 46.257812 61.476562 45.746094 62.664062 45.160156 63.8125 C 44.046875 65.972656 42.949219 68.140625 41.269531 69.953125 C 40.734375 70.535156 40.269531 71.183594 39.734375 71.769531 C 39.265625 72.28125 38.804688 72.804688 38.363281 73.34375 C 38.179688 73.566406 38.011719 73.824219 37.910156 74.097656 C 37.820312 74.332031 37.910156 74.582031 38.097656 74.777344 C 38.246094 74.933594 38.441406 75.027344 38.628906 74.949219 C 39.59375 74.550781 40.617188 74.335938 41.585938 73.957031 C 42.925781 73.4375 44.242188 72.855469 45.570312 72.304688 C 46.394531 71.964844 47.207031 71.570312 48.058594 71.320312 C 50.101562 70.71875 52.140625 70.113281 54.144531 69.398438 C 54.941406 69.113281 55.746094 68.855469 56.554688 68.625 C 57.027344 68.488281 57.523438 68.40625 58.011719 68.332031 C 58.894531 68.191406 59.757812 67.992188 60.613281 67.726562 C 61.078125 67.582031 61.421875 67.359375 61.476562 66.835938 C 61.820312 66.382812 61.988281 65.90625 61.835938 65.320312 C 61.765625 65.042969 61.796875 64.730469 61.816406 64.433594 C 61.84375 64.015625 61.71875 63.652344 61.496094 63.3125 C 61.28125 62.980469 61.070312 62.644531 60.859375 62.3125 C 60.703125 62.066406 60.359375 61.925781 60.089844 62.03125 C 59.070312 62.425781 58.050781 62.820312 57.042969 63.230469 C 56.257812 63.546875 55.492188 63.898438 54.710938 64.21875 C 54.585938 64.273438 54.433594 64.277344 54.296875 64.265625 C 54.175781 64.257812 54.226562 64.09375 54.460938 63.785156 C 54.519531 63.707031 54.578125 63.625 54.644531 63.550781 C 55.289062 62.796875 55.925781 62.035156 56.585938 61.296875 C 57.253906 60.554688 57.839844 59.757812 58.34375 58.898438 C 58.597656 58.472656 58.863281 58.054688 59.117188 57.628906 C 59.882812 56.347656 60.5 54.992188 60.984375 53.582031 C 61.066406 53.351562 61.070312 53.097656 61.113281 52.855469 C 61.285156 51.878906 61.417969 50.902344 61.667969 49.941406 C 61.941406 48.890625 62.207031 47.820312 62.042969 46.707031 C 62.035156 46.660156 62.039062 46.609375 62.046875 46.558594 C 62.234375 44.917969 61.957031 43.292969 61.847656 41.660156 " fill-opacity="1" fill-rule="nonzero"/></g><g fill="#a5a6f6" fill-opacity="1"><g transform="translate(36.946288, 37.574996)"><g><path d="M 0.546875 0.015625 C 0.484375 0.015625 0.425781 0.00390625 0.375 -0.015625 C 0.320312 -0.046875 0.28125 -0.0859375 0.25 -0.140625 C 0.21875 -0.191406 0.203125 -0.25 0.203125 -0.3125 C 0.203125 -0.375 0.21875 -0.425781 0.25 -0.46875 C 0.28125 -0.519531 0.320312 -0.5625 0.375 -0.59375 C 0.425781 -0.625 0.484375 -0.640625 0.546875 -0.640625 C 0.617188 -0.640625 0.679688 -0.625 0.734375 -0.59375 C 0.785156 -0.5625 0.828125 -0.519531 0.859375 -0.46875 C 0.890625 -0.425781 0.90625 -0.375 0.90625 -0.3125 C 0.90625 -0.21875 0.867188 -0.140625 0.796875 -0.078125 C 0.734375 -0.015625 0.648438 0.015625 0.546875 0.015625 Z M 0.546875 0.015625 "/></g></g></g></svg>