<svg width="359" height="336" viewBox="0 0 359 336" fill="none" xmlns="http://www.w3.org/2000/svg">
<path d="M114.998 328.106H100.527V235.136H114.998C116.41 235.136 117.763 235.722 118.762 236.764C119.76 237.806 120.321 239.219 120.321 240.693V322.55C120.321 324.023 119.76 325.437 118.762 326.479C117.763 327.521 116.41 328.106 114.998 328.106Z" stroke="#EFEFF9" stroke-width="1.50648" stroke-linecap="round" stroke-linejoin="round"/>
<path d="M183.002 224.81H196.199" stroke="#EFEFF9" stroke-width="1.50648" stroke-linecap="round" stroke-linejoin="round"/>
<path d="M244.034 307.452H237.438" stroke="#EFEFF9" stroke-width="1.50648" stroke-linecap="round" stroke-linejoin="round"/>
<path d="M250.632 279.901H244.035" stroke="#EFEFF9" stroke-width="1.50648" stroke-linecap="round" stroke-linejoin="round"/>
<path d="M257.228 252.358H250.627" stroke="#EFEFF9" stroke-width="1.50648" stroke-linecap="round" stroke-linejoin="round"/>
<path d="M196.197 224.813C198.661 199.085 201.921 143.892 181.35 143.892C177.413 143.893 173.638 145.526 170.854 148.432C168.07 151.338 166.507 155.279 166.507 159.389V164.552C166.507 202.431 150.767 242.028 120.323 242.028L120.291 321.223H124.186C143.226 321.223 152.219 334.998 186.301 334.998H244.032C245.784 335.03 247.524 334.697 249.152 334.019C250.779 333.341 252.261 332.332 253.511 331.05C254.761 329.768 255.753 328.239 256.431 326.552C257.108 324.865 257.458 323.055 257.458 321.225C257.458 319.396 257.108 317.586 256.431 315.899C255.753 314.212 254.761 312.683 253.511 311.401C252.261 310.119 250.779 309.11 249.152 308.432C247.524 307.754 245.784 307.421 244.032 307.453H250.628C254.128 307.453 257.485 306.002 259.96 303.418C262.435 300.835 263.825 297.332 263.825 293.678C263.825 290.025 262.435 286.521 259.96 283.938C257.485 281.355 254.128 279.903 250.628 279.903H257.245C260.704 279.841 264.002 278.362 266.428 275.786C268.853 273.21 270.213 269.743 270.213 266.131C270.213 262.519 268.853 259.051 266.428 256.475C264.002 253.899 260.704 252.421 257.245 252.358H263.841C265.593 252.39 267.334 252.057 268.961 251.379C270.589 250.701 272.07 249.692 273.32 248.41C274.57 247.128 275.563 245.599 276.241 243.912C276.918 242.225 277.267 240.415 277.267 238.586C277.267 236.757 276.918 234.946 276.241 233.259C275.563 231.572 274.57 230.043 273.32 228.762C272.07 227.479 270.589 226.47 268.961 225.792C267.334 225.114 265.593 224.781 263.841 224.813H196.197Z" stroke="#EFEFF9" stroke-width="1.50648" stroke-linecap="round" stroke-linejoin="round"/>
<path d="M60.9434 228.251H93.9303C95.6807 228.251 97.3594 228.977 98.5974 230.269C99.835 231.561 100.531 233.313 100.531 235.14V328.11C100.53 329.936 99.8339 331.688 98.5959 332.979C97.3583 334.27 95.68 334.995 93.9303 334.995H60.9434" stroke="#EFEFF9" stroke-width="1.50648" stroke-linecap="round" stroke-linejoin="round"/>
<path d="M173.625 4.25069C174.085 3.27524 174.798 2.4534 175.682 1.87902C176.567 1.30452 177.587 1 178.629 1C179.671 1 180.692 1.30452 181.576 1.87902C182.46 2.4534 183.173 3.27524 183.633 4.25069L193.728 25.6062C194.129 26.4533 194.721 27.1857 195.454 27.7405C196.186 28.2949 197.037 28.6555 197.933 28.79L220.515 32.2182C221.546 32.3743 222.514 32.8285 223.311 33.529C224.107 34.2295 224.7 35.1487 225.022 36.1825C225.344 37.2163 225.382 38.3238 225.132 39.3792C224.883 40.4345 224.355 41.3959 223.609 42.1548L207.262 58.778C206.619 59.4404 206.138 60.2552 205.862 61.1537C205.585 62.0521 205.521 63.0073 205.676 63.9368L209.531 87.4162C209.709 88.4877 209.595 89.5894 209.203 90.5968C208.811 91.6041 208.157 92.4764 207.314 93.1157C206.471 93.755 205.474 94.1346 204.435 94.2125C203.396 94.2903 202.357 94.063 201.435 93.5562L181.237 82.4727C180.436 82.0322 179.544 81.802 178.639 81.802C177.734 81.802 176.842 82.0322 176.041 82.4727L155.83 93.5562C154.909 94.063 153.87 94.2903 152.831 94.2125C151.792 94.1346 150.795 93.755 149.952 93.1157C149.11 92.4764 148.455 91.6041 148.063 90.5968C147.671 89.5894 147.558 88.4877 147.734 87.4162L151.59 63.9368C151.744 63.0052 151.678 62.0488 151.398 61.1504C151.118 60.2515 150.633 59.4371 149.984 58.778L133.645 42.1548C132.899 41.3963 132.372 40.4354 132.122 39.38C131.872 38.3251 131.91 37.218 132.231 36.1841C132.553 35.1503 133.145 34.2312 133.941 33.5302C134.737 32.8293 135.705 32.3751 136.735 32.2182L159.317 28.79C160.214 28.6571 161.066 28.2978 161.798 27.743C162.531 27.1882 163.123 26.4545 163.522 25.6062L173.625 4.25069Z" stroke="#EFEFF9" stroke-width="1.50648" stroke-linecap="round" stroke-linejoin="round"/>
<path d="M60.1036 54.8541C60.0255 53.9594 60.1885 53.0593 60.5745 52.2561C60.9604 51.4525 61.5539 50.778 62.2881 50.3081C63.0219 49.8382 63.8672 49.5923 64.728 49.5972C65.5892 49.6022 66.4317 49.8585 67.1604 50.3371L83.1104 60.8327C83.7431 61.2492 84.4634 61.4984 85.2092 61.5589C85.9549 61.6197 86.7034 61.4897 87.3904 61.1805L104.725 53.4092C105.516 53.0539 106.386 52.9372 107.237 53.0713C108.089 53.2059 108.887 53.586 109.542 54.1693C110.197 54.7527 110.683 55.5158 110.944 56.372C111.205 57.2286 111.231 58.144 111.02 59.0151L106.387 78.1017C106.204 78.859 106.2 79.651 106.375 80.4103C106.55 81.1697 106.898 81.8735 107.39 82.4614L119.834 97.267C120.402 97.9431 120.776 98.772 120.916 99.6588C121.056 100.546 120.955 101.456 120.625 102.287C120.294 103.117 119.748 103.834 119.047 104.357C118.347 104.88 117.52 105.188 116.661 105.245L97.8387 106.549C97.0921 106.601 96.3686 106.841 95.7308 107.25C95.0929 107.658 94.5598 108.222 94.1774 108.893L84.5305 125.814C84.091 126.587 83.4531 127.216 82.6887 127.63C81.9244 128.044 81.0644 128.226 80.206 128.156C79.3472 128.086 78.5249 127.766 77.8315 127.233C77.1385 126.7 76.6023 125.974 76.2837 125.139L69.2786 106.856C68.9993 106.133 68.5558 105.491 67.9866 104.987C67.4174 104.481 66.7391 104.129 66.01 103.958L47.6284 99.6021C46.7891 99.4038 46.0196 98.9637 45.4071 98.3327C44.7946 97.7017 44.3635 96.9039 44.1628 96.0307C43.9616 95.1571 43.9989 94.2421 44.2699 93.3897C44.5412 92.5372 45.035 91.7808 45.6967 91.2057L60.1909 78.6027C60.7661 78.1034 61.2159 77.4658 61.5019 76.7445C61.7883 76.0233 61.9017 75.24 61.8331 74.4624L60.1036 54.8541Z" stroke="#EFEFF9" stroke-width="1.50648" stroke-linecap="round" stroke-linejoin="round"/>
<path d="M1.6296 151.942C1.25276 151.373 1.03606 150.706 1.00413 150.016C0.972161 149.325 1.12619 148.64 1.4488 148.036C1.77137 147.432 2.24955 146.936 2.82908 146.601C3.40865 146.267 4.06637 146.109 4.72757 146.145L19.1782 146.915C19.7518 146.947 20.324 146.832 20.8455 146.58C21.3667 146.328 21.8209 145.947 22.1692 145.47L30.9752 133.464C31.3766 132.917 31.9165 132.498 32.5341 132.255C33.1513 132.012 33.8217 131.954 34.4691 132.087C35.1164 132.221 35.715 132.541 36.1973 133.011C36.6797 133.48 37.0268 134.082 37.1989 134.747L40.9673 149.337C41.1188 149.914 41.4012 150.444 41.7907 150.883C42.1799 151.322 42.665 151.657 43.2045 151.859L56.8538 156.889C57.477 157.118 58.026 157.525 58.4389 158.063C58.8522 158.601 59.1128 159.249 59.191 159.934C59.2695 160.618 59.1628 161.312 58.8828 161.937C58.6031 162.562 58.1612 163.092 57.6075 163.468L45.4813 171.724C45.0034 172.052 44.6095 172.497 44.333 173.02C44.0565 173.543 43.9062 174.128 43.8947 174.725L43.5258 189.829C43.5091 190.518 43.3084 191.188 42.9462 191.765C42.5837 192.341 42.074 192.8 41.4746 193.089C40.8752 193.379 40.2104 193.487 39.5551 193.403C38.8994 193.319 38.2798 193.044 37.7662 192.611L26.5008 183.118C26.053 182.743 25.525 182.488 24.9625 182.372C24.3996 182.256 23.8185 182.283 23.2679 182.451L9.38445 186.753C8.75244 186.95 8.08017 186.959 7.44356 186.779C6.80691 186.598 6.23126 186.236 5.7816 185.732C5.3319 185.228 5.02615 184.603 4.89878 183.928C4.77141 183.252 4.82754 182.553 5.06078 181.909L10.2175 167.799C10.4229 167.239 10.4942 166.634 10.4251 166.04C10.3559 165.444 10.1485 164.875 9.82079 164.383L1.6296 151.942Z" stroke="#EFEFF9" stroke-width="1.50648" stroke-linecap="round" stroke-linejoin="round"/>
<path d="M298.897 54.8541C298.975 53.9594 298.812 53.0593 298.426 52.2561C298.04 51.4525 297.447 50.778 296.713 50.3081C295.979 49.8382 295.134 49.5923 294.272 49.5972C293.411 49.6022 292.569 49.8585 291.84 50.3371L275.89 60.8327C275.257 61.2492 274.537 61.4984 273.791 61.5589C273.046 61.6197 272.297 61.4897 271.61 61.1805L254.276 53.4092C253.485 53.0539 252.614 52.9372 251.763 53.0713C250.912 53.2059 250.113 53.586 249.459 54.1693C248.803 54.7527 248.318 55.5158 248.057 56.372C247.795 57.2286 247.769 58.144 247.981 59.0151L252.614 78.1017C252.796 78.859 252.8 79.651 252.625 80.4103C252.451 81.1697 252.102 81.8735 251.61 82.4614L239.167 97.267C238.599 97.9431 238.224 98.772 238.085 99.6588C237.945 100.546 238.046 101.456 238.376 102.287C238.706 103.117 239.253 103.834 239.953 104.357C240.654 104.88 241.481 105.188 242.34 105.245L261.162 106.549C261.908 106.601 262.632 106.841 263.27 107.25C263.908 107.658 264.441 108.222 264.823 108.893L274.47 125.814C274.91 126.587 275.547 127.216 276.312 127.63C277.076 128.044 277.936 128.226 278.795 128.156C279.653 128.086 280.476 127.766 281.169 127.233C281.862 126.7 282.398 125.974 282.717 125.139L289.722 106.856C290.001 106.133 290.445 105.491 291.014 104.987C291.584 104.481 292.262 104.129 292.99 103.958L311.392 99.6146C312.231 99.4162 313.001 98.9761 313.613 98.3451C314.226 97.7142 314.657 96.9167 314.858 96.0432C315.059 95.1696 315.022 94.2546 314.75 93.4021C314.48 92.5496 313.985 91.7932 313.324 91.2181L298.829 78.6151C298.255 78.1158 297.804 77.4782 297.518 76.757C297.232 76.0357 297.119 75.2524 297.187 74.4749L298.897 54.8541Z" stroke="#EFEFF9" stroke-width="1.50648" stroke-linecap="round" stroke-linejoin="round"/>
<path d="M357.368 151.942C357.745 151.373 357.961 150.706 357.993 150.016C358.025 149.325 357.871 148.64 357.548 148.036C357.226 147.432 356.748 146.936 356.168 146.601C355.589 146.267 354.931 146.109 354.27 146.145L339.819 146.915C339.246 146.947 338.673 146.832 338.152 146.58C337.631 146.328 337.176 145.947 336.829 145.47L328.022 133.464C327.621 132.917 327.081 132.498 326.464 132.255C325.846 132.012 325.176 131.954 324.529 132.087C323.881 132.221 323.282 132.541 322.8 133.011C322.318 133.48 321.971 134.082 321.799 134.747L318.03 149.337C317.879 149.914 317.596 150.444 317.207 150.883C316.817 151.322 316.332 151.657 315.793 151.859L302.144 156.889C301.521 157.118 300.971 157.525 300.558 158.063C300.145 158.601 299.885 159.249 299.806 159.934C299.728 160.618 299.834 161.312 300.115 161.937C300.395 162.562 300.836 163.092 301.39 163.468L313.516 171.724C313.998 172.05 314.395 172.494 314.675 173.017C314.955 173.54 315.109 174.126 315.123 174.725L315.492 189.829C315.508 190.518 315.709 191.188 316.071 191.765C316.433 192.341 316.944 192.8 317.543 193.089C318.142 193.379 318.807 193.487 319.462 193.403C320.118 193.319 320.737 193.044 321.251 192.611L332.516 183.118C332.965 182.743 333.492 182.488 334.055 182.372C334.617 182.256 335.199 182.283 335.75 182.451L349.633 186.753C350.266 186.949 350.939 186.957 351.576 186.774C352.212 186.592 352.788 186.227 353.236 185.722C353.685 185.216 353.989 184.589 354.115 183.912C354.239 183.236 354.181 182.536 353.945 181.892L348.788 167.782C348.583 167.222 348.511 166.618 348.58 166.023C348.649 165.428 348.857 164.859 349.185 164.366L357.368 151.942Z" stroke="#EFEFF9" stroke-width="1.50648" stroke-linecap="round" stroke-linejoin="round"/>
</svg>
