<svg width="426" height="401" viewBox="0 0 426 401" fill="none" xmlns="http://www.w3.org/2000/svg">
<path fill-rule="evenodd" clip-rule="evenodd" d="M117.27 156.09C117.658 156.261 118.078 156.358 118.506 156.375C118.933 156.392 119.36 156.329 119.762 156.19C119.841 156.172 119.91 156.129 119.96 156.069C120.01 156.009 120.037 155.935 120.037 155.859C120.037 155.783 120.01 155.709 119.96 155.649C119.91 155.589 119.841 155.547 119.762 155.528C118.107 154.858 116.699 153.742 115.715 152.32C115.69 152.247 115.639 152.184 115.57 152.142C115.502 152.099 115.42 152.08 115.338 152.087C115.257 152.094 115.18 152.127 115.121 152.18C115.062 152.233 115.023 152.304 115.012 152.38C114.909 153.146 115.074 153.922 115.481 154.591C115.889 155.26 116.517 155.786 117.27 156.09ZM277.553 107.148C258.383 109.493 245.773 111.158 245.773 111.158C245.432 111.158 245.56 111.478 245.56 111.799V200.901C245.56 201.062 246.093 201.202 246.284 201.222C262.068 202.906 285.327 204.591 309.162 206.094C325.35 207.097 403.627 211.067 403.627 211.067C403.849 211.067 404.062 210.988 404.224 210.846C404.31 210.777 404.38 210.691 404.427 210.594C404.475 210.497 404.5 210.392 404.501 210.285C404.628 202.766 406.162 95.5788 406.162 95.5788C406.161 95.4662 406.136 95.3549 406.088 95.2516C406.041 95.1483 405.972 95.055 405.885 94.9773C405.798 94.8979 405.694 94.8358 405.581 94.7945C405.467 94.7532 405.346 94.7335 405.225 94.7367C380.07 96.2204 351.378 98.867 325.329 101.634C307.522 103.579 290.929 105.504 277.553 107.148ZM404.394 96.5211L402.818 209.503C398.686 209.342 325.435 205.934 309.226 205.032C285.561 203.708 262.366 202.205 246.625 200.661V112.441C250.118 111.98 324.455 103.318 341.474 101.654C362.582 99.5687 384.543 97.684 404.394 96.5211Z" fill="#FBF4F4"/>
<path fill-rule="evenodd" clip-rule="evenodd" d="M286.008 154.294C285.963 164.429 290.182 174.168 297.744 181.382C301.487 184.967 305.951 187.814 310.875 189.757C315.799 191.701 321.085 192.702 326.425 192.702C331.764 192.702 337.05 191.701 341.975 189.757C346.899 187.814 351.363 184.967 355.105 181.382C360.806 175.953 364.653 169.043 366.153 161.541C367.652 154.038 366.735 146.285 363.519 139.277C366.414 139.286 369.251 138.517 371.697 137.059C374.142 135.601 376.095 133.516 377.323 131.049C378.552 128.581 379.006 125.835 378.631 123.133C378.257 120.431 377.07 117.886 375.21 115.797C373.35 113.709 370.895 112.165 368.134 111.346C365.373 110.528 362.421 110.469 359.626 111.177C356.83 111.885 354.308 113.33 352.356 115.343C350.404 117.355 349.104 119.851 348.609 122.535C342.515 118.794 335.463 116.668 328.194 116.381C320.925 116.094 313.708 117.657 307.303 120.906C300.898 124.154 295.542 128.968 291.798 134.84C288.054 140.712 286.062 147.426 286.029 154.274L286.008 154.294ZM359.536 121.954L362.07 127.367L367.268 115.017L370.164 116.721L364.158 131.999L359.898 132.38L356.319 125.021L359.536 121.954ZM326.414 117.062C334.301 117.082 341.987 119.401 348.417 123.698V125.021C348.417 128.547 349.804 131.948 352.309 134.569C354.814 137.19 358.261 138.845 361.985 139.217C365.159 146.028 366.089 153.579 364.653 160.892C363.218 168.206 359.484 174.946 353.934 180.239C350.346 183.659 346.072 186.374 341.361 188.227C336.65 190.08 331.595 191.034 326.489 191.034C321.383 191.034 316.328 190.08 311.616 188.227C306.905 186.374 302.632 183.659 299.044 180.239C291.786 173.315 287.701 163.988 287.666 154.261C287.63 144.534 291.646 135.181 298.852 128.209C302.422 124.713 306.701 121.925 311.435 120.01C316.169 118.095 321.262 117.093 326.414 117.062Z" fill="#FBF4F4"/>
<path fill-rule="evenodd" clip-rule="evenodd" d="M415.067 86.5974C414.978 86.5207 414.874 86.4616 414.76 86.4237C414.647 86.3858 414.527 86.3699 414.406 86.3768C386.418 88.0811 354.49 91.1086 325.5 94.2765C305.67 96.4419 236.956 105.164 236.956 105.164C236.615 105.164 236.786 105.484 236.786 105.805V207.92C236.786 208.08 237.34 208.221 237.531 208.241C254.848 210.125 280.302 212.03 306.458 213.714C307.012 215.719 309.334 223.739 310.462 229.915C310.86 231.789 311.052 233.697 311.038 235.609C311.055 235.953 310.966 236.294 310.782 236.591C308.652 238.596 296.532 242.105 296.17 242.246C295.99 242.296 295.835 242.403 295.73 242.55C295.625 242.696 295.577 242.872 295.595 243.048L295.936 246.937C295.946 247.117 296.024 247.287 296.158 247.416C296.291 247.546 296.469 247.625 296.66 247.639C346.481 253.895 343.52 253.794 343.967 253.654C348.315 251.93 352.529 249.92 356.577 247.639C357.829 246.914 358.981 246.045 360.006 245.053C360.585 244.519 360.941 243.808 361.007 243.048C360.534 240.192 359.822 237.376 358.877 234.627C356.747 227.87 353.787 219.188 352.849 216.582L412.617 219.569C412.731 219.578 412.846 219.563 412.953 219.525C413.06 219.486 413.156 219.426 413.235 219.348C413.319 219.278 413.385 219.191 413.429 219.094C413.473 218.997 413.494 218.893 413.491 218.787C413.64 210.166 415.344 87.3392 415.344 87.3392C415.362 87.2038 415.346 87.0664 415.298 86.9377C415.25 86.8089 415.171 86.6925 415.067 86.5974ZM320.303 249.002L297.533 246.115L297.299 243.489H297.491C299.259 243.729 312.507 245.333 315.148 245.614C320.878 246.215 341.454 248.16 342.838 248.281C342.528 249.493 342.528 250.757 342.838 251.97L320.303 249.002ZM357.621 234.847C358.477 237.468 359.104 240.15 359.495 242.867C359.419 243.253 359.2 243.601 358.877 243.85C357.918 244.726 356.853 245.493 355.704 246.135C352.052 248.182 348.259 249.997 344.351 251.569C344.526 250.373 344.424 249.155 344.053 248C345.16 247.559 348.973 245.995 352.381 244.451C354.322 243.623 356.182 242.637 357.94 241.504C357.973 241.474 357.999 241.438 358.017 241.398C358.035 241.359 358.044 241.316 358.044 241.273C358.044 241.23 358.035 241.188 358.017 241.148C357.999 241.108 357.973 241.072 357.94 241.043C357.872 240.979 357.78 240.943 357.685 240.943C357.589 240.943 357.497 240.979 357.429 241.043C356.108 241.821 354.718 242.492 353.275 243.048C349.378 244.632 344.308 246.416 343.264 246.777C342.327 246.777 301.367 242.967 299.344 242.767C312.124 238.576 312.124 237.413 312.316 235.609C312.293 233.585 312.043 231.569 311.57 229.594C310.335 223.579 307.885 215.96 307.14 213.554L352.828 216.541H352.083C352.828 218.767 355.704 227.87 357.621 234.887V234.847ZM411.829 217.785C407.42 217.604 325.607 213.775 307.566 212.632C281.218 211.088 255.402 209.364 237.851 207.579V106.387C241.578 105.885 324.499 95.9206 343.435 93.9958C366.865 91.6099 391.466 89.4244 413.576 88.1011L411.829 217.785Z" fill="#FBF4F4"/>
<path fill-rule="evenodd" clip-rule="evenodd" d="M343.5 237.033C342.35 237.033 326.865 236.311 325.438 236.291C324.01 236.271 316.385 236.291 316.385 236.291C316.337 236.288 316.29 236.294 316.245 236.309C316.2 236.323 316.158 236.346 316.123 236.376C316.087 236.406 316.058 236.442 316.037 236.482C316.016 236.523 316.004 236.567 316.002 236.611C316.001 236.698 316.037 236.782 316.1 236.846C316.163 236.909 316.25 236.947 316.342 236.952C317.258 236.952 329.016 238.336 343.436 238.516H352.489C352.534 238.522 352.58 238.518 352.624 238.506C352.668 238.493 352.708 238.472 352.743 238.444C352.777 238.415 352.804 238.38 352.823 238.341C352.842 238.301 352.851 238.259 352.851 238.215C352.854 238.171 352.847 238.126 352.831 238.083C352.816 238.041 352.792 238.002 352.76 237.968C352.728 237.935 352.69 237.908 352.647 237.888C352.604 237.868 352.557 237.857 352.51 237.855C352.51 237.855 345.587 237.193 343.5 237.033ZM381.755 161.404L384.076 165.414L385.93 164.151L383.693 160.522L387.165 158.938L377.878 151.219L378.411 162.928L381.755 161.404ZM371.36 173.354C371.339 173.393 371.327 173.436 371.324 173.48C371.321 173.524 371.328 173.568 371.344 173.609C371.36 173.651 371.384 173.688 371.417 173.72C371.449 173.752 371.488 173.778 371.531 173.795C372.271 174.3 373.039 174.768 373.831 175.198C374.726 175.68 376.771 176.542 377.729 176.903C378.304 177.123 381.606 178.266 381.861 177.745C381.883 177.705 381.895 177.663 381.898 177.619C381.901 177.575 381.894 177.531 381.878 177.489C381.862 177.448 381.837 177.41 381.805 177.378C381.773 177.346 381.734 177.321 381.691 177.304L380.775 176.702C378.421 175.287 375.859 174.206 373.171 173.494C372.34 173.274 371.829 173.193 371.829 173.193C371.744 173.158 371.648 173.156 371.561 173.185C371.473 173.215 371.402 173.276 371.36 173.354ZM363.011 190.797C361.782 188.922 360.048 187.386 357.984 186.346C357.952 186.316 357.914 186.292 357.872 186.275C357.83 186.259 357.784 186.251 357.739 186.251C357.694 186.251 357.648 186.259 357.606 186.275C357.564 186.292 357.526 186.316 357.494 186.346C357.462 186.376 357.436 186.412 357.419 186.452C357.402 186.491 357.393 186.534 357.393 186.577C357.393 186.62 357.402 186.662 357.419 186.701C357.436 186.741 357.462 186.777 357.494 186.807C357.637 187.092 357.8 187.367 357.984 187.629C359.21 189.43 360.903 190.907 362.904 191.92C362.934 191.954 362.972 191.981 363.014 191.999C363.056 192.018 363.102 192.028 363.149 192.028C363.196 192.028 363.242 192.018 363.284 191.999C363.327 191.981 363.364 191.954 363.394 191.92C363.456 191.857 363.49 191.775 363.49 191.689C363.49 191.604 363.456 191.522 363.394 191.459L363.011 190.797ZM273.21 165.434C273.158 165.361 273.079 165.309 272.989 165.287C272.899 165.265 272.803 165.274 272.72 165.314C268.283 166.87 264.146 169.098 260.473 171.91C260.395 171.959 260.34 172.033 260.316 172.118C260.293 172.203 260.303 172.293 260.345 172.371C260.394 172.448 260.472 172.503 260.564 172.525C260.655 172.548 260.752 172.536 260.835 172.492C265.261 170.914 269.395 168.688 273.082 165.895C273.159 165.846 273.215 165.772 273.238 165.687C273.262 165.602 273.252 165.512 273.21 165.434ZM283.285 181.935C281.24 183.073 279.333 184.418 277.598 185.945C271.016 191.339 272.72 191.459 273.082 191.138C273.082 191.138 273.679 190.817 274.594 190.236C277.993 188.02 281.078 185.406 283.775 182.456C283.81 182.429 283.839 182.395 283.86 182.357C283.881 182.319 283.894 182.277 283.897 182.234C283.901 182.191 283.896 182.148 283.883 182.107C283.869 182.066 283.847 182.028 283.817 181.995C283.788 181.962 283.752 181.935 283.711 181.915C283.671 181.896 283.627 181.883 283.581 181.88C283.536 181.876 283.49 181.881 283.446 181.894C283.403 181.907 283.362 181.928 283.327 181.955L283.285 181.935ZM316.534 273.163C314.829 272.067 312.954 271.229 310.975 270.676C310.901 270.339 310.756 270.018 310.549 269.734C310.171 269.254 309.692 268.851 309.143 268.551C307.269 267.551 305.194 266.93 303.051 266.727C300.382 266.414 297.672 266.738 295.17 267.669C291.166 269.233 281.347 274.907 270.398 278.596C264.783 280.646 258.827 281.746 252.805 281.844C244.593 281.884 236.407 282.71 228.373 284.31C217.915 286.315 208.564 288.962 205.22 290.907L198.553 281.764H198.745C200.229 281.224 201.656 280.553 203.005 279.759C203.988 279.263 204.852 278.58 205.54 277.754C205.587 277.682 205.612 277.598 205.612 277.513C205.612 277.429 205.587 277.345 205.54 277.273C205.467 277.147 205.345 277.053 205.199 277.012C204.973 276.877 204.729 276.77 204.475 276.691C201.847 276.595 199.216 276.635 196.594 276.812C190.918 263.296 183.66 250.418 174.953 238.416C169.807 231.301 164.112 224.553 157.913 218.226C160.384 213.855 163.174 208.662 167.903 198.697C169.637 197.9 171.131 196.706 172.248 195.224C173.364 193.742 174.067 192.02 174.293 190.216C176.849 191.138 178.553 187.689 179.085 184.923C182.365 186.126 188.287 188.251 191.631 189.253C192.176 189.441 192.74 189.575 193.314 189.654C195.593 189.654 203.964 178.126 205.455 175.619C205.89 174.955 206.166 174.209 206.264 173.434C206.241 173.174 206.153 172.923 206.009 172.7C205.865 172.478 205.668 172.289 205.433 172.151C202.153 169.785 187.669 166.657 182.152 165.875C177.381 165.213 177.53 165.374 174.612 168.863C173.505 170.186 172.291 171.75 171.247 173.113C169.312 173.176 167.391 173.438 165.517 173.895C158.999 175.499 156.997 177.705 155.89 181.454C154.968 184.38 154.544 187.425 154.633 190.476C149.35 195.389 145.431 199.278 141.235 203.549C130.291 194.957 118.3 187.62 105.515 181.695L106.793 173.675C114.12 173.675 124.238 171.67 126.836 165.193C128.043 161.998 128.956 158.711 129.563 155.369C130.393 150.978 130.734 147.148 130.841 145.825L134.973 144.001C135.152 143.922 135.295 143.786 135.377 143.617C135.459 143.448 135.474 143.257 135.42 143.078C135.42 143.078 130.287 125.033 129.967 123.79C132.63 123.229 134.611 122.707 134.611 122.707C134.611 90.6274 102.661 83.9107 102.661 83.9107C102.661 83.9107 112.757 71.8807 113.95 64.1013C115.143 56.3219 105.004 53.7154 91.6913 57.0637C78.3788 60.4121 87.0692 82.5072 87.0692 82.5072C80.9987 81.244 69.5393 87.7001 69.5393 87.7001C61.0193 45.8959 37.6958 63.4396 35.4593 75.8105C33.2228 88.1813 62.8298 91.0084 62.8298 91.0084C42.9995 98.8279 36.0344 161.905 36.0344 161.905C40.5926 165.213 49.6664 167.238 59.4644 168.462C40.9798 180.731 26.8125 197.921 18.7814 217.825C15.2612 226.408 12.865 235.362 11.6459 244.491C9.38189 262.753 10.8276 281.254 15.9059 299.007C19.1288 310.814 23.404 322.343 28.6859 333.473C28.7227 333.553 28.7915 333.616 28.8774 333.648C28.9199 333.663 28.9654 333.671 29.0111 333.67C29.0568 333.67 29.1019 333.661 29.1439 333.643C29.1858 333.626 29.2238 333.602 29.2556 333.571C29.2874 333.54 29.3124 333.503 29.3293 333.463C29.3461 333.423 29.3543 333.38 29.3536 333.337C29.3529 333.294 29.3431 333.252 29.3249 333.212C24.2312 322.06 20.1206 310.533 17.0348 298.746C12.1802 281.084 10.8941 262.721 13.2434 244.611C14.4935 235.612 16.8892 226.787 20.3789 218.326C28.4095 198.545 42.6152 181.518 61.1258 169.484C95.6957 174.055 142.854 197.554 173.867 239.118C182.662 251.012 190.027 263.788 195.827 277.213C188.043 283.962 179.468 289.855 170.267 294.777C165.652 297.259 160.871 299.455 155.953 301.353C151.057 303.261 145.998 304.777 140.83 305.884C136.996 300.751 118.487 270.676 118.338 270.516C118.317 270.477 118.289 270.443 118.254 270.414C118.219 270.386 118.179 270.365 118.135 270.352C118.091 270.339 118.045 270.334 117.999 270.338C117.954 270.342 117.909 270.355 117.869 270.376C117.825 270.394 117.786 270.422 117.754 270.456C117.722 270.491 117.698 270.531 117.684 270.574C117.67 270.618 117.665 270.664 117.672 270.709C117.678 270.755 117.694 270.798 117.72 270.837C117.72 270.837 118.572 272.601 120.02 275.388C124.919 284.792 132.971 298.305 140.191 306.285C138.061 309.513 134.355 316.711 138.402 316.41C140.937 316.23 144.111 313.182 144.792 312.801C154.465 322.473 165.553 330.798 177.722 337.523C186.37 342.054 195.848 345.363 205.114 345.543H205.242C217.66 343.538 230.802 336.962 242.985 328.801C263.668 314.947 281.73 296.721 289.526 289.323C290.814 288.108 292.187 286.976 293.637 285.934C295.965 286.318 298.323 286.526 300.687 286.556C302.461 286.585 304.235 286.477 305.991 286.235C309.013 285.905 311.922 284.954 314.511 283.448C315.895 282.652 317.114 281.626 318.11 280.421C318.87 279.529 319.276 278.416 319.261 277.273C319.228 276.565 319.009 275.876 318.622 275.268C318.091 274.435 317.38 273.718 316.534 273.163ZM70.2848 169.504C85.5356 170.607 99.6575 170.286 99.6575 170.286C98.8907 165.514 92.0321 142.697 92.0321 142.697C86.6858 143.098 81.9998 139.489 85.3013 132.492C88.6028 125.494 96.3134 130.487 96.3134 130.487C102.723 128.437 108.5 124.94 113.14 120.301C113.78 121.983 114.797 123.515 116.122 124.793C117.486 126.096 124.216 124.973 129.158 123.951C129.499 125.715 130.074 128.341 130.713 131.068C131.182 133.174 133.333 141.815 133.588 142.818L129.584 144.361C128.604 144.782 129.584 145.484 127.752 154.888C127.173 158.132 126.303 161.325 125.154 164.431C124.599 165.648 123.794 166.749 122.785 167.672C121.776 168.594 120.583 169.319 119.275 169.805C115.121 171.399 110.701 172.288 106.218 172.431C106.069 172.426 105.923 172.475 105.812 172.569C105.701 172.662 105.632 172.793 105.622 172.933L103.385 180.732C92.8464 175.805 81.7397 172.038 70.2848 169.504ZM174.655 188.872C173.59 188.872 175.145 184.02 175.209 183.72L177.956 184.722C177.552 186.105 176.316 188.852 174.655 188.872ZM177.914 166.938C183.09 167.158 201.77 171.569 204.091 173.634C203.644 175.74 196.786 184.241 194.166 186.908C192.462 188.612 196.296 189.494 170.374 181.173C171.694 179.289 173.718 175.92 171.46 175.158C171.139 175.074 170.801 175.074 170.48 175.158C172.755 172.238 175.269 169.489 177.999 166.938H177.914ZM173.505 182.978C173.143 184.121 172.589 187.489 171.502 186.988C170.416 186.486 170.863 183.539 171.353 182.196L173.505 182.978ZM143.962 205.775L141.832 204.07C143.067 203.028 150.352 196.752 151.012 196.05C153.823 193.504 156.145 191.359 156.145 191.359C156.237 191.273 156.308 191.169 156.352 191.055C156.396 190.94 156.413 190.818 156.401 190.697C156.207 187.746 156.494 184.784 157.253 181.915C157.656 180.088 158.754 178.462 160.341 177.344C163.407 175.568 166.83 174.407 170.395 173.935L169.223 175.499C164.963 177.664 159.681 184.822 159.511 185.023C159.481 185.056 159.459 185.094 159.445 185.135C159.431 185.176 159.426 185.219 159.43 185.262C159.434 185.305 159.447 185.346 159.468 185.384C159.489 185.422 159.518 185.456 159.553 185.484C159.588 185.512 159.629 185.533 159.672 185.545C159.716 185.558 159.761 185.563 159.807 185.559C159.852 185.556 159.897 185.544 159.937 185.524C159.978 185.504 160.014 185.477 160.043 185.444C160.852 184.722 169.713 176.201 170.885 176.642C172.056 177.083 164.495 186.306 165.198 186.847C165.901 187.389 169.649 182.336 170.054 181.755L170.757 182.015C169.564 184.201 168.627 187.188 170.927 188.411C171.208 188.557 171.523 188.633 171.843 188.633C172.164 188.633 172.479 188.557 172.759 188.411C172.823 188.848 172.991 189.266 173.249 189.634C172.83 191.949 171.546 194.047 169.628 195.549C165.368 199.098 168.009 193.223 160.384 210.065C159.702 211.549 159.085 212.993 158.552 214.236C158.02 215.479 157.444 216.862 157.146 217.604C152.964 213.456 148.564 209.508 143.962 205.775ZM139.084 314.546C138.828 314.659 138.555 314.733 138.274 314.766C138.934 312.143 140.026 309.633 141.512 307.328C146.648 306.191 151.678 304.662 156.55 302.756C161.51 300.783 166.321 298.492 170.949 295.899C180.17 290.763 188.714 284.618 196.402 277.594C199.013 277.444 201.63 277.444 204.241 277.594C203.638 278.071 202.989 278.494 202.302 278.857C201.008 279.57 199.646 280.167 198.234 280.641C197.835 280.721 197.461 280.885 197.14 281.122C196.819 281.358 196.559 281.66 196.381 282.005C195.891 283.188 196.892 284.23 195.635 286.015C193.931 288.36 191.567 287.077 188.585 287.739C185.028 288.521 186.455 293.754 184.325 295.478C182.195 297.203 177.807 294.155 175.805 296.962C174.697 298.546 175.251 301.132 174.271 302.576C173.292 304.02 168.201 300.01 165.198 302.897C164.209 304.311 163.32 305.785 162.535 307.308C161.065 309.433 158.914 306.827 156.145 306.686C151.033 306.446 155.101 317.834 148.243 312.701C147.586 312.177 146.872 311.72 146.113 311.338C143.642 310.035 142.897 313.042 139.084 314.546ZM288.184 288.06C280.431 295.358 262.453 313.583 241.92 327.458C229.971 335.478 217.148 342.115 204.943 344.14C195.912 344.14 186.647 340.892 178.191 336.561C166.323 330.133 155.456 322.192 145.9 312.962C146.442 313.284 146.961 313.639 147.455 314.025C155.613 320.04 154.654 308.23 156.358 308.31C159.468 308.451 162.045 313.022 165.794 305.443C166.014 304.918 166.323 304.431 166.71 303.999C168.989 301.794 173.824 306.606 175.975 303.398C177.424 301.213 176.423 297.624 178.105 297.383C179.788 297.142 181.322 297.944 183.111 297.684C188.777 296.902 186.157 289.664 188.968 289.042C190.025 288.833 191.105 288.745 192.185 288.782C193.02 288.802 193.851 288.673 194.634 288.401C195.513 288.051 196.256 287.456 196.764 286.696C198.191 284.691 197.275 283.208 197.552 282.466C197.594 282.366 197.669 282.282 197.765 282.225L204.73 292.15C204.758 292.193 204.795 292.229 204.839 292.257C204.883 292.285 204.934 292.303 204.986 292.31C205.089 292.349 205.203 292.349 205.306 292.31C208.266 290.426 217.83 287.518 228.544 285.634C236.501 284.048 244.607 283.215 252.741 283.148C258.936 283.11 265.075 282.03 270.867 279.96C281.858 276.331 291.741 270.717 295.767 269.173C298.007 268.348 300.431 268.065 302.817 268.351C304.478 268.529 306.097 268.962 307.609 269.634C308.169 269.857 308.665 270.2 309.058 270.636C309.133 270.748 309.191 270.87 309.228 270.997H308.802C308.124 270.7 307.408 270.485 306.672 270.356C303.771 269.852 300.797 269.852 297.897 270.356C297.785 270.371 297.677 270.408 297.58 270.463C297.483 270.518 297.399 270.59 297.332 270.676C297.264 270.761 297.216 270.858 297.188 270.962C297.161 271.065 297.156 271.173 297.172 271.278C297.189 271.383 297.228 271.484 297.286 271.576C297.345 271.667 297.421 271.746 297.512 271.81C297.603 271.873 297.707 271.919 297.816 271.945C297.926 271.97 298.04 271.975 298.152 271.96C300.205 271.689 302.28 271.602 304.351 271.699H305.458C305.891 271.764 306.318 271.858 306.736 271.98C307.844 272.21 308.827 272.808 309.505 273.664C306.052 273.163 302.526 273.347 299.153 274.205H298.898C298.696 274.278 298.53 274.418 298.429 274.598C298.328 274.777 298.3 274.985 298.349 275.183C298.398 275.381 298.522 275.555 298.697 275.674C298.873 275.793 299.087 275.848 299.302 275.829H299.601C301.779 275.384 303.997 275.129 306.225 275.067H307.78C308.445 275.122 309.102 275.243 309.739 275.428C309.964 275.504 310.179 275.605 310.378 275.729C310.483 275.79 310.598 275.831 310.719 275.849C310.937 275.958 311.128 276.108 311.278 276.292C311.429 276.475 311.536 276.686 311.593 276.912L311.316 277.032C310.935 277.17 310.544 277.277 310.144 277.353C306.483 277.966 302.909 278.975 299.494 280.361C295.278 282.26 291.467 284.869 288.248 288.06H288.184ZM316.683 279.238C315.784 280.34 314.671 281.272 313.403 281.985C311.031 283.351 308.384 284.238 305.629 284.591C303.945 284.867 302.245 285.041 300.538 285.112C298.544 285.213 296.546 285.213 294.553 285.112C295.703 284.35 296.81 283.709 297.897 283.107C302.263 281.058 306.918 279.607 311.72 278.797C313.02 278.396 313.488 277.734 313.403 276.952C313.334 276.457 313.144 275.985 312.849 275.571C312.553 275.157 312.16 274.813 311.699 274.566C311.529 273.604 311.036 272.719 310.293 272.04L310.549 271.799C310.666 271.653 310.759 271.49 310.826 271.318C311.933 271.79 313.001 272.34 314.021 272.962C315.268 273.678 316.319 274.66 317.088 275.829C317.406 276.363 317.544 276.975 317.483 277.584C317.422 278.193 317.165 278.77 316.747 279.238H316.683Z" fill="#FBF4F4"/>
<path fill-rule="evenodd" clip-rule="evenodd" d="M173.571 177.924C179.764 180.447 186.179 182.46 192.741 183.939C198.79 185.283 194.424 182.857 182.091 179.228C177.64 177.924 174.274 177.223 173.955 177.223C173.908 177.2 173.856 177.188 173.803 177.186C173.751 177.184 173.698 177.193 173.65 177.212C173.601 177.232 173.558 177.261 173.523 177.297C173.487 177.334 173.461 177.378 173.445 177.425C173.429 177.472 173.425 177.522 173.432 177.571C173.439 177.62 173.457 177.668 173.485 177.709C173.513 177.751 173.551 177.787 173.595 177.813C173.639 177.84 173.689 177.858 173.742 177.864L173.571 177.924ZM182.986 170.085L178.534 169.082L176.638 170.987L181.559 172.21L182.986 170.085ZM313.108 170.426C312 170.426 311.105 171.589 311.105 173.032C311.105 174.476 312 175.619 313.108 175.619C314.215 175.619 315.088 174.456 315.088 173.032C315.088 171.609 314.279 170.426 313.108 170.426ZM332.448 170.426C331.34 170.426 330.446 171.589 330.446 173.032C330.446 174.476 331.34 175.619 332.448 175.619C333.556 175.619 334.429 174.456 334.429 173.032C334.429 171.609 333.534 170.426 332.448 170.426ZM122.217 137.925C122.406 137.928 122.594 137.894 122.769 137.826C122.943 137.758 123.101 137.657 123.233 137.529C123.365 137.402 123.467 137.25 123.534 137.083C123.601 136.917 123.631 136.739 123.623 136.561C123.623 135.639 123.623 134.737 123.729 133.814C123.767 133.447 123.657 133.08 123.42 132.787C123.183 132.493 122.837 132.294 122.451 132.23C120.577 131.99 120.811 134.456 120.811 136.441C120.804 136.809 120.945 137.167 121.205 137.442C121.466 137.717 121.827 137.889 122.217 137.925Z" fill="#FBF4F4"/>
<path d="M303.655 165.181H309.675C310.372 165.178 311.039 164.826 311.53 164.204C312.021 163.581 312.296 162.738 312.295 161.86V155.704C312.295 154.824 312.02 153.979 311.53 153.353C311.04 152.726 310.373 152.369 309.675 152.357H303.655C303.306 152.355 302.96 152.441 302.638 152.608C302.315 152.776 302.022 153.022 301.775 153.333C301.528 153.644 301.332 154.014 301.199 154.421C301.066 154.828 300.999 155.264 301 155.704V161.86C301.001 162.298 301.071 162.731 301.205 163.135C301.339 163.539 301.535 163.905 301.782 164.214C302.028 164.522 302.321 164.766 302.642 164.932C302.964 165.098 303.308 165.183 303.655 165.181ZM301.431 155.704C301.44 154.965 301.678 154.261 302.093 153.741C302.509 153.22 303.07 152.926 303.655 152.919H309.675C309.971 152.915 310.265 152.984 310.539 153.124C310.813 153.264 311.063 153.47 311.274 153.732C311.484 153.994 311.651 154.306 311.766 154.65C311.88 154.994 311.94 155.363 311.94 155.735V161.86C311.939 162.233 311.879 162.603 311.765 162.947C311.65 163.291 311.483 163.603 311.273 163.866C311.062 164.129 310.813 164.337 310.539 164.478C310.265 164.619 309.971 164.691 309.675 164.689H303.655C303.362 164.688 303.071 164.613 302.801 164.47C302.53 164.327 302.285 164.118 302.078 163.856C301.872 163.593 301.708 163.281 301.597 162.939C301.486 162.597 301.429 162.23 301.431 161.86V155.704ZM319.931 169.741C320.033 170.118 320.286 170.035 320.357 169.799C320.453 169.46 321.016 167.027 321.087 166.605C321.477 166.452 320.377 166.931 323.777 165.373C323.813 165.356 323.843 165.325 323.864 165.286C323.886 165.247 323.897 165.2 323.897 165.152C323.897 165.105 323.886 165.058 323.864 165.019C323.843 164.98 323.813 164.949 323.777 164.932L318.568 162.307C318.536 162.288 318.501 162.28 318.466 162.284C318.43 162.287 318.396 162.302 318.367 162.327C318.338 162.353 318.314 162.387 318.299 162.427C318.284 162.467 318.277 162.512 318.279 162.556C318.279 162.556 319.653 168.726 319.931 169.741ZM318.801 162.991L323.19 165.168C322.602 165.443 321.609 165.916 321.132 166.158C320.919 166.261 320.833 166.305 320.783 166.388C320.732 166.471 320.909 165.973 320.164 168.866L318.801 162.991ZM330.76 144.265C330.766 144.303 330.783 144.338 330.807 144.362C330.831 144.387 330.861 144.4 330.892 144.399C330.998 144.399 334.277 144.795 334.946 144.572C335.376 144.425 335.452 143.467 335.493 142.905C335.544 142.055 335.493 139.973 335.209 139.264C334.824 138.306 331.981 138.626 331.155 138.811C330.936 138.85 330.727 138.95 330.542 139.105C330.435 139.262 330.372 139.46 330.365 139.667C330.36 141.213 330.492 142.756 330.76 144.265ZM330.907 139.597C331.708 139.284 333.988 139.162 334.713 139.597C334.961 140.427 335.093 143.282 334.794 143.946C334.322 144.099 331.444 144.099 330.963 144.105C330.948 143.607 330.714 140.919 330.907 139.597ZM337.56 144.24C337.567 144.277 337.584 144.311 337.608 144.335C337.632 144.36 337.661 144.373 337.692 144.374C337.799 144.374 341.077 144.77 341.746 144.546C342.177 144.399 342.253 143.441 342.298 142.879C342.344 142.03 342.298 139.948 342.009 139.239C341.624 138.275 338.782 138.6 337.956 138.785C337.737 138.827 337.528 138.927 337.342 139.079C337.237 139.238 337.175 139.435 337.165 139.641C337.16 141.188 337.293 142.73 337.56 144.24ZM337.707 139.571C338.508 139.252 340.788 139.137 341.513 139.571C341.761 140.401 341.893 143.256 341.594 143.914C341.123 144.074 338.244 144.074 337.763 144.08C337.748 143.582 337.515 140.893 337.707 139.571ZM344.675 144.521C344.681 144.559 344.697 144.593 344.721 144.618C344.745 144.642 344.776 144.655 344.807 144.655C344.913 144.655 348.191 145.051 348.86 144.827C349.291 144.68 349.367 143.722 349.408 143.16C349.458 142.311 349.408 140.229 349.124 139.52C348.739 138.562 345.896 138.881 345.07 139.066C344.851 139.107 344.642 139.207 344.457 139.36C344.35 139.517 344.287 139.715 344.28 139.922C344.275 141.469 344.407 143.011 344.675 144.521ZM344.822 139.852C345.622 139.539 347.903 139.418 348.627 139.852C348.876 140.682 349.007 143.537 348.708 144.201C348.237 144.355 345.359 144.355 344.878 144.361C344.862 143.863 344.629 141.174 344.822 139.852ZM337.606 154.062C337.641 154.19 337.723 154.203 337.738 154.196C337.849 154.196 341.123 154.592 341.792 154.369C342.222 154.222 342.298 153.264 342.344 152.702C342.389 151.852 342.344 149.77 342.06 149.068C341.67 148.103 338.827 148.429 338.006 148.608C337.786 148.648 337.575 148.748 337.388 148.902C337.282 149.062 337.22 149.262 337.211 149.47C337.206 151.015 337.339 152.555 337.606 154.062ZM337.758 149.394C338.559 149.081 340.834 148.959 341.558 149.394C341.807 150.224 341.938 153.079 341.64 153.743C341.168 153.896 338.295 153.896 337.814 153.903C337.793 153.404 337.56 150.716 337.758 149.394ZM349.453 148.806C350.264 147.299 350.973 145.938 350.999 145.875C351.024 145.811 350.654 145.236 350.436 145.645C348.886 148.653 349.099 148.365 348.987 148.314C348.095 147.906 345.217 148.046 344.766 148.576C344.462 148.934 344.579 150.23 344.614 150.786C344.29 150.556 344.041 150.39 343.95 150.345C343.717 150.23 343.732 150.518 343.859 150.62L344.649 151.258C344.713 152.098 344.817 152.932 344.959 153.756C344.964 153.795 344.98 153.83 345.004 153.855C345.028 153.879 345.059 153.892 345.09 153.89C345.197 153.89 348.475 154.286 349.144 154.062C350.016 153.756 349.747 149.726 349.453 148.806ZM345.106 149.068C346.298 148.726 347.533 148.698 348.734 148.985L346.975 152.478C346.798 152.351 345.85 151.648 345.06 151.086C345.027 150.419 345.042 149.75 345.106 149.087V149.068ZM348.992 153.411C348.516 153.57 345.643 153.57 345.161 153.577C345.161 153.321 345.085 152.485 345.05 151.559L346.975 153.066C347.024 153.073 347.073 153.062 347.117 153.035C347.161 153.007 347.198 152.965 347.224 152.913C347.386 152.651 348.202 151.156 349.033 149.617C349.19 150.767 349.24 152.861 349.002 153.411H348.992ZM328.845 139.75C328.982 139.752 329.117 139.703 329.233 139.609C329.348 139.515 329.438 139.379 329.493 139.22C329.547 139.061 329.562 138.885 329.537 138.714C329.512 138.544 329.447 138.387 329.351 138.263C329.255 138.139 329.132 138.054 328.997 138.019C328.862 137.983 328.723 137.999 328.595 138.064C328.467 138.128 328.358 138.24 328.281 138.383C328.203 138.526 328.162 138.695 328.161 138.868C328.161 139.099 328.232 139.32 328.36 139.485C328.488 139.65 328.662 139.745 328.845 139.75Z" fill="#FCF9F9"/>
</svg>
