<svg xmlns="http://www.w3.org/2000/svg" xmlns:xlink="http://www.w3.org/1999/xlink" width="100" zoomAndPan="magnify" viewBox="0 0 75 89.999999" height="120" preserveAspectRatio="xMidYMid meet" version="1.0"><defs><clipPath id="e088067929"><path d="M 66 9.199219 L 70 9.199219 L 70 14 L 66 14 Z M 66 9.199219 " clip-rule="nonzero"/></clipPath><clipPath id="41ca879545"><path d="M 40 53 L 71.710938 53 L 71.710938 90 L 40 90 Z M 40 53 " clip-rule="nonzero"/></clipPath><clipPath id="1778964d22"><path d="M 12 5 L 33 5 L 33 27 L 12 27 Z M 12 5 " clip-rule="nonzero"/></clipPath><clipPath id="eff87c0895"><path d="M 9.25 9.679688 L 28.390625 3.074219 L 34.996094 22.214844 L 15.855469 28.820312 Z M 9.25 9.679688 " clip-rule="nonzero"/></clipPath><clipPath id="394595a3e7"><path d="M 9.25 9.679688 L 28.390625 3.074219 L 34.996094 22.214844 L 15.855469 28.820312 Z M 9.25 9.679688 " clip-rule="nonzero"/></clipPath></defs><g clip-path="url(#e088067929)"><path fill="#cb7b45" d="M 69.960938 11.09375 C 69.9375 10.820312 69.71875 10.46875 69.472656 10.210938 C 69.183594 9.90625 69.007812 9.683594 68.765625 9.46875 C 68.589844 9.3125 68.503906 9.21875 68.273438 9.207031 C 67.996094 9.199219 67.761719 9.324219 67.582031 9.464844 C 67.324219 9.4375 67.09375 9.417969 66.960938 9.441406 C 66.671875 9.484375 66.472656 10.046875 66.472656 10.046875 C 66.222656 10.5 66.5 11.160156 66.644531 11.734375 C 66.800781 12.347656 66.835938 12.859375 66.835938 12.859375 L 68.328125 13.40625 C 68.328125 13.40625 68.824219 12.921875 69.695312 12.007812 C 69.984375 11.699219 70.003906 11.597656 69.960938 11.097656 Z M 69.960938 11.09375 " fill-opacity="1" fill-rule="nonzero"/></g><path fill="#231d27" d="M 52.691406 19.800781 C 53.132812 19.464844 53.367188 18.894531 53.242188 18.3125 C 53.136719 17.828125 52.796875 17.449219 52.371094 17.269531 C 52.539062 16.9375 52.601562 16.546875 52.515625 16.15625 C 52.320312 15.257812 51.429688 14.6875 50.527344 14.882812 C 50.457031 14.898438 50.390625 14.917969 50.324219 14.941406 C 50.339844 14.789062 50.339844 14.636719 50.304688 14.476562 C 50.125 13.652344 49.304688 13.128906 48.476562 13.308594 C 48.386719 13.328125 48.304688 13.355469 48.222656 13.390625 C 47.796875 12.613281 46.894531 12.175781 45.980469 12.371094 C 45.320312 12.515625 44.800781 12.960938 44.542969 13.53125 C 44.246094 13.417969 43.917969 13.382812 43.585938 13.457031 C 42.683594 13.652344 42.113281 14.535156 42.304688 15.433594 C 42.359375 15.675781 42.464844 15.894531 42.609375 16.082031 C 42.496094 16.085938 42.386719 16.097656 42.273438 16.121094 C 41.371094 16.316406 40.800781 17.199219 40.996094 18.097656 C 41.070312 18.445312 41.25 18.742188 41.492188 18.964844 C 41.179688 19.324219 41.03125 19.816406 41.136719 20.316406 C 41.210938 20.644531 41.386719 20.925781 41.621094 21.132812 C 41.265625 21.519531 41.097656 22.0625 41.21875 22.613281 C 41.363281 23.28125 41.894531 23.765625 42.527344 23.890625 C 42.523438 23.996094 42.53125 24.105469 42.554688 24.210938 C 42.726562 24.988281 43.496094 25.484375 44.277344 25.316406 C 44.433594 25.28125 44.570312 25.21875 44.699219 25.144531 C 45 25.878906 45.796875 26.316406 46.601562 26.140625 C 46.796875 26.101562 46.980469 26.023438 47.140625 25.921875 C 47.671875 26.039062 48.222656 26.058594 48.765625 25.9375 C 49.542969 25.769531 50.21875 25.363281 50.765625 24.785156 C 50.832031 24.78125 50.902344 24.769531 50.96875 24.753906 C 51.871094 24.558594 52.441406 23.675781 52.25 22.777344 C 52.242188 22.753906 52.234375 22.730469 52.230469 22.707031 C 52.375 22.71875 52.523438 22.71875 52.671875 22.6875 C 53.472656 22.511719 53.984375 21.722656 53.808594 20.925781 C 53.683594 20.34375 53.230469 19.921875 52.6875 19.796875 Z M 52.691406 19.800781 " fill-opacity="1" fill-rule="nonzero"/><path fill="#cb7b45" d="M 31.773438 30.804688 C 31.773438 30.804688 32.613281 28.714844 31.910156 27.917969 C 31.910156 27.917969 31.566406 27.8125 31.398438 28.289062 C 31.226562 28.769531 31.046875 28.796875 31.046875 28.796875 C 31.046875 28.796875 29.738281 26.121094 28.230469 26.519531 C 26.722656 26.917969 27.550781 29.496094 28.46875 29.992188 C 29.382812 30.484375 30.503906 31.707031 30.503906 31.707031 Z M 31.773438 30.804688 " fill-opacity="1" fill-rule="nonzero"/><path fill="#fcdebe" d="M 54.132812 91.78125 L 49.320312 85.828125 L 52.394531 83.363281 L 54.347656 85.9375 L 55.332031 89.835938 C 55.332031 89.835938 55.546875 90.652344 54.132812 91.785156 Z M 54.132812 91.78125 " fill-opacity="1" fill-rule="nonzero"/><path fill="#cb7b45" d="M 56.3125 80.632812 L 57.941406 82.664062 L 54.046875 85.757812 L 52.421875 83.726562 Z M 56.3125 80.632812 " fill-opacity="1" fill-rule="nonzero"/><path fill="#cb7b45" d="M 42.535156 88.703125 L 44.738281 90.09375 L 42.066406 94.28125 L 39.867188 92.886719 Z M 42.535156 88.703125 " fill-opacity="1" fill-rule="nonzero"/><path fill="#cb7b45" d="M 52.011719 20.113281 C 52.96875 23.484375 51.800781 26.769531 49.402344 27.445312 C 47.003906 28.121094 44.28125 25.933594 43.320312 22.558594 C 42.363281 19.183594 43.777344 17.863281 46.175781 17.1875 C 48.574219 16.511719 51.050781 16.738281 52.011719 20.113281 Z M 52.011719 20.113281 " fill-opacity="1" fill-rule="nonzero"/><path fill="#cb7b45" d="M 51.875 29.152344 L 48.875 30.207031 L 47.527344 26.410156 L 50.523438 25.355469 Z M 51.875 29.152344 " fill-opacity="1" fill-rule="nonzero"/><path fill="#342d39" d="M 46.738281 40.085938 L 48.074219 45.339844 L 49.699219 55.519531 L 62.921875 53.550781 L 60.164062 32.664062 L 62.5625 29.933594 C 65.335938 28.160156 66.769531 24.886719 67.292969 21.644531 L 68.863281 13.425781 L 66.511719 12.558594 L 61.761719 23.0625 L 51.4375 27.757812 L 49.121094 28.546875 C 46.101562 29.574219 43.609375 31.726562 42.160156 34.554688 L 39.367188 38.382812 L 32.09375 30.515625 L 29.796875 31.640625 L 36.761719 44.847656 C 37.140625 45.734375 38.171875 46.148438 39.066406 45.773438 C 39.390625 45.636719 39.664062 45.410156 39.855469 45.113281 L 46.738281 40.082031 Z M 46.738281 40.085938 " fill-opacity="1" fill-rule="nonzero"/><g clip-path="url(#41ca879545)"><path fill="#fcdebe" d="M 62.921875 53.550781 L 70.675781 68.820312 C 71.699219 71.039062 71.015625 73.667969 69.039062 75.113281 L 55.9375 84.710938 L 54.4375 81.792969 L 64.582031 70.707031 L 57.980469 62.789062 L 56.226562 69.054688 C 54.632812 74.757812 52.234375 80.207031 49.101562 85.238281 L 44.28125 92.988281 L 40.597656 90.34375 L 47.007812 75.617188 L 49.699219 55.515625 L 62.921875 53.546875 Z M 62.921875 53.550781 " fill-opacity="1" fill-rule="nonzero"/></g><path fill="#cb7b45" d="M 51.605469 20.609375 C 51.75 21.183594 52.152344 21.582031 52.507812 21.496094 C 52.863281 21.410156 53.035156 20.871094 52.894531 20.296875 C 52.753906 19.71875 52.351562 19.324219 51.996094 19.410156 C 51.636719 19.496094 51.464844 20.035156 51.605469 20.609375 Z M 51.605469 20.609375 " fill-opacity="1" fill-rule="nonzero"/><path fill="#cb7b45" d="M 42.730469 23.546875 C 42.972656 24.089844 43.4375 24.410156 43.773438 24.261719 C 44.109375 24.113281 44.183594 23.550781 43.941406 23.011719 C 43.699219 22.46875 43.230469 22.152344 42.894531 22.300781 C 42.5625 22.449219 42.484375 23.007812 42.730469 23.546875 Z M 42.730469 23.546875 " fill-opacity="1" fill-rule="nonzero"/><path fill="#cb7b45" d="M 46.898438 29.558594 C 46.898438 29.558594 48.644531 31.632812 51.007812 30.703125 C 53.460938 29.738281 52.804688 27.132812 52.804688 27.132812 L 49.828125 28.105469 C 49.828125 28.105469 47.699219 29.011719 46.898438 29.558594 Z M 46.898438 29.558594 " fill-opacity="1" fill-rule="nonzero"/><path fill="#ffffff" d="M 48.570312 24.644531 L 46.941406 25.160156 C 46.941406 25.160156 47.714844 26.011719 48.886719 25.636719 C 50.0625 25.261719 50.199219 24.125 50.199219 24.125 Z M 48.570312 24.644531 " fill-opacity="1" fill-rule="nonzero"/><path fill="#231d27" d="M 50.480469 25.878906 C 49.917969 26.125 49.660156 25.660156 49.660156 25.660156 L 49.039062 25.878906 L 48.550781 26.054688 C 48.550781 26.054688 48.269531 26.761719 47.578125 26.808594 C 46.882812 26.859375 46.253906 26.835938 46.253906 26.835938 C 46.253906 26.835938 47.324219 27.945312 49.699219 27.515625 C 51.601562 26.964844 51.875 25.03125 51.875 25.03125 C 51.875 25.03125 51.042969 25.640625 50.480469 25.882812 Z M 50.480469 25.878906 " fill-opacity="1" fill-rule="nonzero"/><g clip-path="url(#1778964d22)"><g clip-path="url(#eff87c0895)"><g clip-path="url(#394595a3e7)"><path fill="#0a7bd4" d="M 18.945312 6.332031 C 13.589844 8.179688 10.746094 14.019531 12.597656 19.378906 C 14.445312 24.734375 20.285156 27.578125 25.640625 25.730469 C 31 23.878906 33.839844 18.042969 31.992188 12.683594 C 30.136719 7.328125 24.296875 4.488281 18.945312 6.332031 Z M 26.226562 10.484375 L 27.394531 19.996094 C 27.453125 20.472656 27 20.84375 26.546875 20.699219 L 20.910156 18.90625 L 24.320312 12.71875 C 24.320312 12.71875 24.558594 12.328125 24.4375 12.273438 C 24.300781 12.210938 24.007812 12.554688 23.867188 12.746094 C 23.722656 12.953125 19.125 18.695312 19.125 18.695312 L 15.824219 18.800781 C 15.457031 18.8125 15.296875 18.351562 15.714844 17.984375 L 25.207031 9.988281 C 25.605469 9.589844 26.167969 9.996094 26.226562 10.484375 Z M 26.226562 10.484375 " fill-opacity="1" fill-rule="nonzero"/></g></g></g></svg>