<svg xmlns="http://www.w3.org/2000/svg" xmlns:xlink="http://www.w3.org/1999/xlink" width="100" zoomAndPan="magnify" viewBox="0 0 75 89.999999" height="120" preserveAspectRatio="xMidYMid meet" version="1.0"><defs><clipPath id="e70721eb89"><path d="M 12.746094 22.066406 L 25 22.066406 L 25 30.824219 L 12.746094 30.824219 Z M 12.746094 22.066406 " clip-rule="nonzero"/></clipPath><clipPath id="0d4db18802"><path d="M 55 19 L 74.773438 19 L 74.773438 66 L 55 66 Z M 55 19 " clip-rule="nonzero"/></clipPath><clipPath id="14f97bf7c0"><path d="M 68 22 L 74.773438 22 L 74.773438 37 L 68 37 Z M 68 22 " clip-rule="nonzero"/></clipPath><clipPath id="3f234b4029"><path d="M 13 3 L 14 3 L 14 4 L 13 4 Z M 13 3 " clip-rule="nonzero"/></clipPath><clipPath id="2362f0126b"><path d="M 1.332031 6.410156 L 15.769531 2.335938 L 19.636719 16.050781 L 5.199219 20.125 Z M 1.332031 6.410156 " clip-rule="nonzero"/></clipPath><clipPath id="651ca08a5e"><path d="M 1.332031 6.410156 L 15.769531 2.335938 L 19.636719 16.050781 L 5.199219 20.125 Z M 1.332031 6.410156 " clip-rule="nonzero"/></clipPath><clipPath id="308723ecb5"><path d="M 1.332031 6.410156 L 15.769531 2.335938 L 19.636719 16.050781 L 5.199219 20.125 Z M 1.332031 6.410156 " clip-rule="nonzero"/></clipPath><clipPath id="8eff8eb47f"><path d="M 3 4 L 18 4 L 18 19 L 3 19 Z M 3 4 " clip-rule="nonzero"/></clipPath><clipPath id="c54e28c848"><path d="M 1.332031 6.410156 L 15.769531 2.335938 L 19.636719 16.050781 L 5.199219 20.125 Z M 1.332031 6.410156 " clip-rule="nonzero"/></clipPath><clipPath id="8f7cf797ea"><path d="M 1.332031 6.410156 L 15.769531 2.335938 L 19.636719 16.050781 L 5.199219 20.125 Z M 1.332031 6.410156 " clip-rule="nonzero"/></clipPath><clipPath id="1ef024d796"><path d="M 1.332031 6.410156 L 15.769531 2.335938 L 19.636719 16.050781 L 5.199219 20.125 Z M 1.332031 6.410156 " clip-rule="nonzero"/></clipPath><clipPath id="0afe19661f"><path d="M 14 2 L 16 2 L 16 5 L 14 5 Z M 14 2 " clip-rule="nonzero"/></clipPath><clipPath id="0e30ec2678"><path d="M 1.332031 6.410156 L 15.769531 2.335938 L 19.636719 16.050781 L 5.199219 20.125 Z M 1.332031 6.410156 " clip-rule="nonzero"/></clipPath><clipPath id="537a6074d7"><path d="M 1.332031 6.410156 L 15.769531 2.335938 L 19.636719 16.050781 L 5.199219 20.125 Z M 1.332031 6.410156 " clip-rule="nonzero"/></clipPath><clipPath id="9b4097324a"><path d="M 1.332031 6.410156 L 15.769531 2.335938 L 19.636719 16.050781 L 5.199219 20.125 Z M 1.332031 6.410156 " clip-rule="nonzero"/></clipPath><clipPath id="a1c92023ae"><path d="M 2 8 L 4 8 L 4 10 L 2 10 Z M 2 8 " clip-rule="nonzero"/></clipPath><clipPath id="255a8257d2"><path d="M 1.332031 6.410156 L 15.769531 2.335938 L 19.636719 16.050781 L 5.199219 20.125 Z M 1.332031 6.410156 " clip-rule="nonzero"/></clipPath><clipPath id="426a99fc56"><path d="M 1.332031 6.410156 L 15.769531 2.335938 L 19.636719 16.050781 L 5.199219 20.125 Z M 1.332031 6.410156 " clip-rule="nonzero"/></clipPath><clipPath id="6602de62d1"><path d="M 1.332031 6.410156 L 15.769531 2.335938 L 19.636719 16.050781 L 5.199219 20.125 Z M 1.332031 6.410156 " clip-rule="nonzero"/></clipPath><clipPath id="5e05b3c120"><path d="M 5 14 L 18 14 L 18 19 L 5 19 Z M 5 14 " clip-rule="nonzero"/></clipPath><clipPath id="2dfbf7cc51"><path d="M 1.332031 6.410156 L 15.769531 2.335938 L 19.636719 16.050781 L 5.199219 20.125 Z M 1.332031 6.410156 " clip-rule="nonzero"/></clipPath><clipPath id="6fd1432be5"><path d="M 1.332031 6.410156 L 15.769531 2.335938 L 19.636719 16.050781 L 5.199219 20.125 Z M 1.332031 6.410156 " clip-rule="nonzero"/></clipPath><clipPath id="8af9edeeae"><path d="M 1.332031 6.410156 L 15.769531 2.335938 L 19.636719 16.050781 L 5.199219 20.125 Z M 1.332031 6.410156 " clip-rule="nonzero"/></clipPath><clipPath id="25c347b602"><path d="M 7 18 L 8 18 L 8 19 L 7 19 Z M 7 18 " clip-rule="nonzero"/></clipPath><clipPath id="aa4513df3a"><path d="M 1.332031 6.410156 L 15.769531 2.335938 L 19.636719 16.050781 L 5.199219 20.125 Z M 1.332031 6.410156 " clip-rule="nonzero"/></clipPath><clipPath id="cefbde2886"><path d="M 1.332031 6.410156 L 15.769531 2.335938 L 19.636719 16.050781 L 5.199219 20.125 Z M 1.332031 6.410156 " clip-rule="nonzero"/></clipPath><clipPath id="07a67d91ec"><path d="M 1.332031 6.410156 L 15.769531 2.335938 L 19.636719 16.050781 L 5.199219 20.125 Z M 1.332031 6.410156 " clip-rule="nonzero"/></clipPath><clipPath id="fa7912de63"><path d="M 4 12 L 16 12 L 16 17 L 4 17 Z M 4 12 " clip-rule="nonzero"/></clipPath><clipPath id="be612461c5"><path d="M 1.332031 6.410156 L 15.769531 2.335938 L 19.636719 16.050781 L 5.199219 20.125 Z M 1.332031 6.410156 " clip-rule="nonzero"/></clipPath><clipPath id="2931580d70"><path d="M 1.332031 6.410156 L 15.769531 2.335938 L 19.636719 16.050781 L 5.199219 20.125 Z M 1.332031 6.410156 " clip-rule="nonzero"/></clipPath><clipPath id="bad60d8943"><path d="M 1.332031 6.410156 L 15.769531 2.335938 L 19.636719 16.050781 L 5.199219 20.125 Z M 1.332031 6.410156 " clip-rule="nonzero"/></clipPath><clipPath id="9d004cccc0"><path d="M 15 5 L 17 5 L 17 7 L 15 7 Z M 15 5 " clip-rule="nonzero"/></clipPath><clipPath id="3342253f6e"><path d="M 1.332031 6.410156 L 15.769531 2.335938 L 19.636719 16.050781 L 5.199219 20.125 Z M 1.332031 6.410156 " clip-rule="nonzero"/></clipPath><clipPath id="f736d96ee2"><path d="M 1.332031 6.410156 L 15.769531 2.335938 L 19.636719 16.050781 L 5.199219 20.125 Z M 1.332031 6.410156 " clip-rule="nonzero"/></clipPath><clipPath id="3821d8e11f"><path d="M 1.332031 6.410156 L 15.769531 2.335938 L 19.636719 16.050781 L 5.199219 20.125 Z M 1.332031 6.410156 " clip-rule="nonzero"/></clipPath><clipPath id="50e9206ffa"><path d="M 16 12 L 18 12 L 18 13 L 16 13 Z M 16 12 " clip-rule="nonzero"/></clipPath><clipPath id="edd006e569"><path d="M 1.332031 6.410156 L 15.769531 2.335938 L 19.636719 16.050781 L 5.199219 20.125 Z M 1.332031 6.410156 " clip-rule="nonzero"/></clipPath><clipPath id="284e6ff6e4"><path d="M 1.332031 6.410156 L 15.769531 2.335938 L 19.636719 16.050781 L 5.199219 20.125 Z M 1.332031 6.410156 " clip-rule="nonzero"/></clipPath><clipPath id="61e8c26662"><path d="M 1.332031 6.410156 L 15.769531 2.335938 L 19.636719 16.050781 L 5.199219 20.125 Z M 1.332031 6.410156 " clip-rule="nonzero"/></clipPath><clipPath id="08fae312f6"><path d="M 5 6 L 16 6 L 16 16 L 5 16 Z M 5 6 " clip-rule="nonzero"/></clipPath><clipPath id="224c25c45c"><path d="M 1.332031 6.410156 L 15.769531 2.335938 L 19.636719 16.050781 L 5.199219 20.125 Z M 1.332031 6.410156 " clip-rule="nonzero"/></clipPath><clipPath id="a81f258bc7"><path d="M 1.332031 6.410156 L 15.769531 2.335938 L 19.636719 16.050781 L 5.199219 20.125 Z M 1.332031 6.410156 " clip-rule="nonzero"/></clipPath><clipPath id="9e602cfc3f"><path d="M 1.332031 6.410156 L 15.769531 2.335938 L 19.636719 16.050781 L 5.199219 20.125 Z M 1.332031 6.410156 " clip-rule="nonzero"/></clipPath><clipPath id="db39758cc5"><path d="M 5 6 L 17 6 L 17 16 L 5 16 Z M 5 6 " clip-rule="nonzero"/></clipPath><clipPath id="3f5c3cb1f9"><path d="M 1.332031 6.410156 L 15.769531 2.335938 L 19.636719 16.050781 L 5.199219 20.125 Z M 1.332031 6.410156 " clip-rule="nonzero"/></clipPath><clipPath id="698dbb7b37"><path d="M 1.332031 6.410156 L 15.769531 2.335938 L 19.636719 16.050781 L 5.199219 20.125 Z M 1.332031 6.410156 " clip-rule="nonzero"/></clipPath><clipPath id="e775603bb7"><path d="M 1.332031 6.410156 L 15.769531 2.335938 L 19.636719 16.050781 L 5.199219 20.125 Z M 1.332031 6.410156 " clip-rule="nonzero"/></clipPath><clipPath id="5d50486ccc"><path d="M 6 7 L 15 7 L 15 15 L 6 15 Z M 6 7 " clip-rule="nonzero"/></clipPath><clipPath id="07a4ee6029"><path d="M 1.332031 6.410156 L 15.769531 2.335938 L 19.636719 16.050781 L 5.199219 20.125 Z M 1.332031 6.410156 " clip-rule="nonzero"/></clipPath><clipPath id="5aef01fff7"><path d="M 1.332031 6.410156 L 15.769531 2.335938 L 19.636719 16.050781 L 5.199219 20.125 Z M 1.332031 6.410156 " clip-rule="nonzero"/></clipPath><clipPath id="60696ff92b"><path d="M 1.332031 6.410156 L 15.769531 2.335938 L 19.636719 16.050781 L 5.199219 20.125 Z M 1.332031 6.410156 " clip-rule="nonzero"/></clipPath><clipPath id="42fea31dc7"><path d="M 7 8 L 13 8 L 13 10 L 7 10 Z M 7 8 " clip-rule="nonzero"/></clipPath><clipPath id="1e188b713e"><path d="M 1.332031 6.410156 L 15.769531 2.335938 L 19.636719 16.050781 L 5.199219 20.125 Z M 1.332031 6.410156 " clip-rule="nonzero"/></clipPath><clipPath id="6056ff50d0"><path d="M 1.332031 6.410156 L 15.769531 2.335938 L 19.636719 16.050781 L 5.199219 20.125 Z M 1.332031 6.410156 " clip-rule="nonzero"/></clipPath><clipPath id="10594f5697"><path d="M 1.332031 6.410156 L 15.769531 2.335938 L 19.636719 16.050781 L 5.199219 20.125 Z M 1.332031 6.410156 " clip-rule="nonzero"/></clipPath><clipPath id="d6fafdcd9d"><path d="M 7 10 L 10 10 L 10 13 L 7 13 Z M 7 10 " clip-rule="nonzero"/></clipPath><clipPath id="0443bc6adc"><path d="M 1.332031 6.410156 L 15.769531 2.335938 L 19.636719 16.050781 L 5.199219 20.125 Z M 1.332031 6.410156 " clip-rule="nonzero"/></clipPath><clipPath id="7592c25ce9"><path d="M 1.332031 6.410156 L 15.769531 2.335938 L 19.636719 16.050781 L 5.199219 20.125 Z M 1.332031 6.410156 " clip-rule="nonzero"/></clipPath><clipPath id="fdeab38289"><path d="M 1.332031 6.410156 L 15.769531 2.335938 L 19.636719 16.050781 L 5.199219 20.125 Z M 1.332031 6.410156 " clip-rule="nonzero"/></clipPath><clipPath id="00ca547570"><path d="M 7 10 L 10 10 L 10 14 L 7 14 Z M 7 10 " clip-rule="nonzero"/></clipPath><clipPath id="2fc416c5dc"><path d="M 1.332031 6.410156 L 15.769531 2.335938 L 19.636719 16.050781 L 5.199219 20.125 Z M 1.332031 6.410156 " clip-rule="nonzero"/></clipPath><clipPath id="339106134e"><path d="M 1.332031 6.410156 L 15.769531 2.335938 L 19.636719 16.050781 L 5.199219 20.125 Z M 1.332031 6.410156 " clip-rule="nonzero"/></clipPath><clipPath id="1ce5340a7f"><path d="M 1.332031 6.410156 L 15.769531 2.335938 L 19.636719 16.050781 L 5.199219 20.125 Z M 1.332031 6.410156 " clip-rule="nonzero"/></clipPath><clipPath id="e94c176622"><path d="M 11 9 L 14 9 L 14 12 L 11 12 Z M 11 9 " clip-rule="nonzero"/></clipPath><clipPath id="037725720c"><path d="M 1.332031 6.410156 L 15.769531 2.335938 L 19.636719 16.050781 L 5.199219 20.125 Z M 1.332031 6.410156 " clip-rule="nonzero"/></clipPath><clipPath id="b7dc2a36fe"><path d="M 1.332031 6.410156 L 15.769531 2.335938 L 19.636719 16.050781 L 5.199219 20.125 Z M 1.332031 6.410156 " clip-rule="nonzero"/></clipPath><clipPath id="55cb848f21"><path d="M 1.332031 6.410156 L 15.769531 2.335938 L 19.636719 16.050781 L 5.199219 20.125 Z M 1.332031 6.410156 " clip-rule="nonzero"/></clipPath><clipPath id="b819f64e54"><path d="M 11 9 L 14 9 L 14 13 L 11 13 Z M 11 9 " clip-rule="nonzero"/></clipPath><clipPath id="f4d80312ad"><path d="M 1.332031 6.410156 L 15.769531 2.335938 L 19.636719 16.050781 L 5.199219 20.125 Z M 1.332031 6.410156 " clip-rule="nonzero"/></clipPath><clipPath id="d6ffd7f544"><path d="M 1.332031 6.410156 L 15.769531 2.335938 L 19.636719 16.050781 L 5.199219 20.125 Z M 1.332031 6.410156 " clip-rule="nonzero"/></clipPath><clipPath id="ba96c7e7b8"><path d="M 1.332031 6.410156 L 15.769531 2.335938 L 19.636719 16.050781 L 5.199219 20.125 Z M 1.332031 6.410156 " clip-rule="nonzero"/></clipPath><clipPath id="0fc281319f"><path d="M 22 1 L 33 1 L 33 15 L 22 15 Z M 22 1 " clip-rule="nonzero"/></clipPath><clipPath id="846a3e2de5"><path d="M 21.183594 2.945312 L 29.675781 -0.0390625 L 34.402344 13.40625 L 25.910156 16.390625 Z M 21.183594 2.945312 " clip-rule="nonzero"/></clipPath><clipPath id="7d1520e71a"><path d="M 21.183594 2.945312 L 29.675781 -0.0390625 L 34.402344 13.40625 L 25.910156 16.390625 Z M 21.183594 2.945312 " clip-rule="nonzero"/></clipPath><clipPath id="a6fc18e71b"><path d="M 2 28 L 18 28 L 18 43 L 2 43 Z M 2 28 " clip-rule="nonzero"/></clipPath><clipPath id="8a38cc46e2"><path d="M 1.332031 30.3125 L 15.1875 26.980469 L 18.339844 40.105469 L 4.488281 43.4375 Z M 1.332031 30.3125 " clip-rule="nonzero"/></clipPath><clipPath id="3760a306de"><path d="M 1.332031 30.3125 L 15.1875 26.980469 L 18.339844 40.105469 L 4.488281 43.4375 Z M 1.332031 30.3125 " clip-rule="nonzero"/></clipPath><clipPath id="a661f42664"><path d="M 1.332031 30.3125 L 15.1875 26.980469 L 18.339844 40.105469 L 4.488281 43.4375 Z M 1.332031 30.3125 " clip-rule="nonzero"/></clipPath><clipPath id="c66c85f1b1"><path d="M 6 32 L 14 32 L 14 40 L 6 40 Z M 6 32 " clip-rule="nonzero"/></clipPath><clipPath id="57eb21ec9a"><path d="M 1.332031 30.3125 L 15.1875 26.980469 L 18.339844 40.105469 L 4.488281 43.4375 Z M 1.332031 30.3125 " clip-rule="nonzero"/></clipPath><clipPath id="7985a5168a"><path d="M 1.332031 30.3125 L 15.1875 26.980469 L 18.339844 40.105469 L 4.488281 43.4375 Z M 1.332031 30.3125 " clip-rule="nonzero"/></clipPath><clipPath id="54baafee44"><path d="M 1.332031 30.3125 L 15.1875 26.980469 L 18.339844 40.105469 L 4.488281 43.4375 Z M 1.332031 30.3125 " clip-rule="nonzero"/></clipPath><clipPath id="6cf7f44b9d"><path d="M 25 15 L 42 15 L 42 27 L 25 27 Z M 25 15 " clip-rule="nonzero"/></clipPath><clipPath id="2b83537cc4"><path d="M 25.085938 18.464844 L 40.285156 14.351562 L 43.226562 25.207031 L 28.023438 29.324219 Z M 25.085938 18.464844 " clip-rule="nonzero"/></clipPath><clipPath id="296aa0648f"><path d="M 25.085938 18.464844 L 40.285156 14.351562 L 43.226562 25.207031 L 28.023438 29.324219 Z M 25.085938 18.464844 " clip-rule="nonzero"/></clipPath><clipPath id="88ae34b135"><path d="M 25.085938 18.464844 L 40.285156 14.351562 L 43.226562 25.207031 L 28.023438 29.324219 Z M 25.085938 18.464844 " clip-rule="nonzero"/></clipPath></defs><path fill="#ffffff" d="M 55.097656 19.59375 C 55.097656 19.59375 60.679688 17.121094 63.328125 19.140625 L 62.113281 23.21875 L 53.851562 24.429688 L 52.410156 22 L 55.097656 19.59375 " fill-opacity="1" fill-rule="nonzero"/><g clip-path="url(#e70721eb89)"><path fill="#fde4d4" d="M 24.878906 28.511719 C 24.878906 28.511719 24.554688 27.777344 24.554688 27.351562 C 24.554688 26.929688 24.398438 26.023438 23.78125 25.492188 C 23.164062 24.960938 22.351562 24.617188 21.394531 23.714844 C 20.4375 22.8125 19.71875 21.726562 19.285156 22.375 C 19.035156 22.746094 20.035156 24.046875 20.226562 24.332031 C 20.421875 24.617188 20.960938 25.003906 20.722656 25.191406 C 20.484375 25.375 18.4375 24.734375 17.457031 24.339844 C 16.476562 23.949219 14.179688 21.953125 13.832031 22.195312 C 13.484375 22.433594 14.367188 23.296875 14.757812 23.652344 C 15.152344 24.007812 15.363281 24.140625 15.363281 24.140625 C 15.363281 24.140625 14.097656 23.992188 13.53125 23.691406 C 12.96875 23.390625 12.722656 23.398438 12.597656 23.574219 C 12.472656 23.753906 13.113281 24.371094 13.332031 24.472656 C 13.546875 24.574219 12.953125 25.113281 13.722656 25.5625 C 14.496094 26.007812 15.300781 26.378906 15.300781 26.378906 C 15.300781 26.378906 15.261719 26.710938 15.910156 26.957031 C 16.558594 27.207031 18.429688 28.464844 18.839844 28.726562 C 19.246094 28.992188 19.996094 30.109375 21.835938 30.464844 C 23.671875 30.820312 24.066406 30.773438 24.066406 30.773438 L 24.878906 28.511719 " fill-opacity="1" fill-rule="nonzero"/></g><path fill="#d9d9d9" d="M 66.144531 54.824219 C 66.144531 54.824219 66.453125 66.039062 66.683594 67.753906 C 66.917969 69.46875 66.933594 72.527344 66.414062 75.261719 C 65.898438 77.996094 65.699219 85.59375 66.144531 87.542969 C 66.59375 89.488281 67.9375 94.863281 67.796875 97.089844 C 67.65625 99.3125 66.3125 114.558594 66.3125 114.558594 C 66.3125 114.558594 64.644531 115.484375 62.792969 115.714844 C 60.9375 115.949219 59.085938 115.714844 59.085938 115.714844 C 59.085938 115.714844 60.058594 113.492188 59.269531 112.054688 C 58.484375 110.621094 59.457031 108.953125 59.734375 107.234375 C 60.011719 105.523438 58.667969 98.0625 58.4375 95.929688 C 58.203125 93.796875 56.859375 89.394531 56.351562 86.476562 C 55.839844 83.558594 55.238281 77.996094 54.496094 77.160156 C 54.496094 77.160156 53.710938 84.296875 53.941406 86.707031 C 54.171875 89.117188 55.097656 95.652344 55.332031 99.914062 C 55.5625 104.179688 55.5625 110.433594 55.5625 110.433594 C 55.5625 110.433594 53.476562 111.546875 51.761719 111.59375 C 50.046875 111.640625 48.660156 110.0625 48.660156 110.0625 C 48.660156 110.0625 47.917969 102.925781 47.035156 100.054688 C 46.15625 97.179688 45.738281 89.300781 45.277344 86.847656 C 44.8125 84.390625 43.558594 75.074219 42.914062 72.109375 C 42.261719 69.144531 41.429688 65.59375 41.429688 62.828125 C 41.429688 60.0625 43.144531 53.386719 43.144531 53.386719 C 43.144531 53.386719 47.683594 55.707031 52.410156 55.660156 C 57.140625 55.613281 66.144531 54.824219 66.144531 54.824219 " fill-opacity="1" fill-rule="nonzero"/><path fill="#000000" d="M 51.425781 57.667969 C 51.285156 58.316406 50.46875 62.234375 50.695312 64.382812 C 50.898438 66.316406 51.167969 68.253906 51.253906 68.855469 C 50.902344 68.652344 50.058594 68.101562 49.382812 67.21875 C 48.804688 66.457031 49.210938 64.515625 49.539062 62.953125 C 49.699219 62.195312 49.835938 61.535156 49.835938 61.128906 C 49.835938 60.042969 50.253906 57.9375 50.347656 57.5 C 50.703125 57.558594 51.066406 57.613281 51.425781 57.667969 Z M 51.378906 69.132812 L 51.433594 69.113281 C 51.460938 69.09375 51.476562 69.058594 51.472656 69.023438 C 51.46875 69 51.128906 66.679688 50.886719 64.359375 C 50.660156 62.226562 51.488281 58.292969 51.617188 57.695312 C 58.796875 58.691406 66.140625 57.996094 66.246094 57.984375 C 66.300781 57.980469 66.335938 57.933594 66.332031 57.878906 C 66.328125 57.828125 66.285156 57.789062 66.226562 57.792969 C 66.074219 57.808594 50.757812 59.257812 42.792969 54.929688 C 42.746094 54.90625 42.6875 54.921875 42.664062 54.96875 C 42.636719 55.015625 42.65625 55.074219 42.703125 55.101562 C 44.8125 56.246094 47.4375 56.992188 50.15625 57.464844 C 50.058594 57.929688 49.640625 60.011719 49.640625 61.128906 C 49.640625 61.515625 49.507812 62.164062 49.347656 62.914062 C 49.015625 64.515625 48.597656 66.503906 49.230469 67.335938 C 50.128906 68.511719 51.285156 69.097656 51.332031 69.121094 L 51.378906 69.132812 " fill-opacity="1" fill-rule="nonzero"/><path fill="#000000" d="M 53.476562 21.152344 C 53.476562 21.152344 56.078125 19.445312 57.867188 19.726562 C 59.660156 20.003906 61.386719 21.707031 62.714844 21.921875 C 62.714844 21.921875 57.554688 37.960938 58.484375 42.253906 C 59.410156 46.546875 59.410156 54.515625 59.410156 54.515625 C 59.410156 54.515625 56.257812 55.335938 53.058594 55.382812 C 49.863281 55.425781 44.71875 54.222656 44.71875 54.222656 C 44.71875 54.222656 49.074219 33.832031 49.539062 28.691406 C 50.003906 23.542969 53.476562 21.152344 53.476562 21.152344 " fill-opacity="1" fill-rule="nonzero"/><g clip-path="url(#0d4db18802)"><path fill="#ffffff" d="M 63.210938 19.160156 C 63.210938 19.160156 63.332031 18.949219 63.8125 19.632812 C 64.289062 20.316406 65.542969 21.953125 67.425781 22.511719 C 69.3125 23.066406 72.585938 22.230469 73.28125 25.199219 C 73.976562 28.164062 73.035156 33.136719 73.867188 35.824219 C 74.703125 38.511719 71.96875 41.433594 71.039062 41.710938 C 70.113281 41.988281 68.585938 41.664062 68.074219 41.199219 C 67.566406 40.738281 67.007812 40.320312 67.007812 40.320312 C 67.007812 40.320312 67.703125 46.949219 68.027344 47.550781 C 68.351562 48.152344 70.160156 50.484375 70.035156 50.65625 C 69.914062 50.824219 69.449219 50.855469 69.402344 50.964844 C 69.355469 51.070312 73.003906 63.199219 73.1875 63.382812 C 73.375 63.566406 70.5625 64.15625 69.355469 64.527344 C 68.152344 64.898438 63.179688 65.917969 61.941406 65.019531 C 60.707031 64.125 60.027344 62.917969 58.699219 58.5625 C 57.371094 54.207031 55.765625 46.390625 55.671875 42.839844 C 55.578125 39.285156 57.246094 33.941406 58.667969 29.863281 C 60.089844 25.785156 59.851562 19.433594 63.210938 19.160156 " fill-opacity="1" fill-rule="nonzero"/></g><path fill="#ffffff" d="M 54.898438 19.609375 C 55.027344 19.542969 55.15625 19.699219 55.0625 19.8125 C 54.472656 20.519531 53.402344 21.902344 53 23.082031 C 52.425781 24.75 51.378906 26.929688 51.207031 29.800781 C 51.039062 32.675781 50.125 35.917969 49.863281 37.109375 C 49.601562 38.296875 48.796875 42.128906 47.917969 46.019531 C 47.035156 49.914062 46.109375 52.460938 45.367188 56.214844 C 44.625 59.96875 42.519531 64.742188 41.589844 64.90625 C 40.664062 65.066406 39.527344 63.539062 39.527344 62.65625 C 39.527344 61.777344 40.410156 59.136719 40.59375 57.1875 C 40.78125 55.242188 41.914062 51.628906 41.914062 51.375 C 41.914062 51.117188 41.613281 51.28125 41.589844 50.722656 C 41.570312 50.167969 42.609375 46.578125 42.703125 44.792969 C 42.789062 43.179688 42.738281 39.285156 42.730469 38.542969 C 42.726562 38.472656 42.671875 38.414062 42.601562 38.414062 C 42.257812 38.40625 41.222656 38.476562 39.527344 39.371094 C 37.421875 40.484375 35.21875 41.15625 34.199219 41.0625 C 33.179688 40.96875 31.1875 39.554688 28.730469 38.699219 C 26.277344 37.839844 23.007812 35.941406 22.335938 35.664062 C 21.664062 35.386719 22.359375 32.976562 22.890625 30.984375 C 23.40625 29.0625 23.964844 28.367188 24.667969 27.945312 C 24.714844 27.917969 24.773438 27.921875 24.816406 27.957031 C 25.253906 28.292969 27.65625 30.117188 28.914062 30.683594 C 30.308594 31.308594 31.558594 32.074219 31.953125 32.742188 C 32.347656 33.417969 36.054688 33.324219 36.726562 32.71875 C 37.398438 32.117188 39.460938 30.566406 40.433594 29.730469 C 41.40625 28.898438 42.03125 27.414062 43.050781 26.070312 C 44.070312 24.726562 43.46875 23.5 46.574219 22.640625 C 49.675781 21.785156 50.71875 22.246094 51.925781 21.460938 C 52.867188 20.84375 54.082031 20.042969 54.898438 19.609375 " fill-opacity="1" fill-rule="nonzero"/><path fill="#000000" d="M 72.570312 29.371094 C 72.570312 29.371094 73.09375 30.335938 72.816406 31.289062 C 72.539062 32.242188 71.613281 34.683594 70.992188 35.640625 C 70.375 36.597656 71.085938 37.710938 70.097656 37.433594 C 69.109375 37.15625 68.617188 36.660156 68.617188 34.683594 C 68.617188 32.707031 68.429688 32.765625 68.617188 31.5 C 68.800781 30.234375 71.179688 28.847656 72.570312 29.371094 " fill-opacity="1" fill-rule="nonzero"/><g clip-path="url(#14f97bf7c0)"><path fill="#fde4d4" d="M 68.785156 36.226562 C 68.785156 36.226562 70.4375 35.625 71.367188 34.0625 C 72.292969 32.503906 72.554688 31.578125 72.554688 30.773438 C 72.554688 29.972656 72.695312 29.199219 72.878906 29.042969 C 73.0625 28.890625 73.976562 26.636719 73.914062 25.277344 C 73.851562 23.917969 74.917969 23.808594 74.871094 22.925781 C 74.824219 22.046875 73.605469 22.789062 73.296875 23.175781 C 72.988281 23.558594 73.203125 24.007812 72.308594 24.566406 C 71.410156 25.121094 70.40625 25.644531 69.757812 26.710938 C 69.109375 27.777344 69.464844 28.691406 68.847656 29.277344 C 68.230469 29.863281 68.203125 31.269531 68.386719 31.535156 C 68.574219 31.796875 68.441406 32.148438 68.394531 33.472656 C 68.34375 34.929688 68.785156 36.226562 68.785156 36.226562 " fill-opacity="1" fill-rule="nonzero"/></g><path fill="#fde4d4" d="M 54.089844 22.289062 C 53.472656 23.394531 54.261719 24.773438 55.523438 24.71875 C 55.660156 24.714844 55.804688 24.699219 55.957031 24.679688 C 58.414062 24.355469 60.070312 23.683594 60.070312 23.683594 C 60.070312 23.683594 60.617188 21.820312 61.230469 20.4375 C 61.542969 19.734375 62.464844 19.53125 62.558594 18.703125 C 62.835938 16.246094 63.429688 14.066406 63.429688 14.066406 C 63.429688 14.066406 64.496094 14.296875 64.890625 13.902344 C 65.285156 13.507812 66.140625 12.511719 66.070312 11.539062 C 66 10.566406 65.792969 10.390625 65.792969 10.390625 C 66.78125 8.421875 66.242188 4.535156 64.417969 3.351562 C 62.589844 2.164062 58.160156 1.726562 55.636719 3.246094 C 53.113281 4.765625 53.433594 8.148438 53.433594 8.148438 C 53.546875 8.542969 53.648438 8.894531 53.628906 9.269531 C 53.582031 10.242188 53.488281 13.347656 53.675781 14.34375 C 53.859375 15.339844 55.25 16.265625 55.238281 17.148438 C 55.230469 17.90625 55.429688 19.882812 54.089844 22.289062 " fill-opacity="1" fill-rule="nonzero"/><path fill="#000000" d="M 53.234375 5.652344 C 53.558594 3.847656 54.8125 3.546875 55.4375 2.640625 C 56.0625 1.738281 56.386719 1.4375 56.988281 1.53125 C 57.589844 1.621094 58.078125 0.789062 59.605469 0.371094 C 60.992188 -0.00390625 62.105469 1.207031 62.648438 1.90625 C 63.679688 2.105469 63.878906 2.273438 65.582031 3.109375 C 67.46875 4.035156 67.402344 7.707031 67.402344 7.707031 L 66.957031 6.542969 C 66.957031 6.542969 67.023438 7.261719 66.957031 8.257812 C 66.886719 9.253906 65.792969 10.390625 65.792969 10.390625 C 66.515625 7.789062 65.273438 6.40625 65.273438 6.40625 L 65.480469 7.367188 C 65.480469 7.367188 64.554688 6.265625 63.042969 5.71875 C 61.53125 5.167969 61.902344 5.617188 60.804688 5.34375 C 59.707031 5.070312 59.058594 4.207031 59.058594 4.207031 L 60.277344 5.890625 L 59.753906 5.71875 C 58.371094 5.269531 57.121094 4.476562 56.117188 3.417969 L 55.375 4.167969 C 54.53125 5.027344 53.933594 6.09375 53.648438 7.265625 L 53.433594 8.148438 C 53.25 7.515625 53.035156 6.769531 53.234375 5.652344 " fill-opacity="1" fill-rule="nonzero"/><path fill="#000000" d="M 61.894531 4.972656 C 61.894531 4.972656 61.765625 7.933594 62.585938 8.808594 C 63.410156 9.683594 63.445312 9.601562 63.445312 9.601562 L 63.179688 12.539062 L 64.449219 10.847656 C 64.761719 10.433594 65.292969 10.253906 65.792969 10.390625 C 65.792969 10.390625 66.421875 8.550781 66.269531 7.132812 C 66.113281 5.71875 63.207031 4.507812 63.207031 4.507812 L 61.894531 4.972656 " fill-opacity="1" fill-rule="nonzero"/><path fill="#000000" d="M 56.367188 8.246094 C 56.390625 8.246094 56.417969 8.238281 56.4375 8.214844 C 56.472656 8.179688 56.472656 8.117188 56.433594 8.078125 C 56.414062 8.0625 55.980469 7.65625 55.464844 7.5625 C 54.921875 7.460938 54.46875 8.066406 54.453125 8.09375 C 54.417969 8.136719 54.429688 8.195312 54.472656 8.226562 C 54.515625 8.257812 54.574219 8.25 54.609375 8.207031 C 54.613281 8.203125 55.007812 7.675781 55.429688 7.753906 C 55.886719 7.835938 56.296875 8.21875 56.300781 8.21875 C 56.320312 8.238281 56.34375 8.246094 56.367188 8.246094 Z M 61.222656 8.542969 L 61.273438 8.53125 C 61.320312 8.5 61.332031 8.441406 61.304688 8.398438 C 61.28125 8.359375 60.753906 7.507812 59.964844 7.410156 C 59.167969 7.316406 58.636719 7.917969 58.613281 7.945312 C 58.578125 7.984375 58.582031 8.046875 58.625 8.082031 C 58.664062 8.117188 58.726562 8.113281 58.761719 8.074219 C 58.765625 8.066406 59.253906 7.519531 59.945312 7.601562 C 60.640625 7.6875 61.136719 8.488281 61.140625 8.496094 C 61.160156 8.527344 61.191406 8.542969 61.222656 8.542969 Z M 56.703125 11.941406 C 57.105469 11.941406 57.472656 11.683594 57.496094 11.667969 C 57.539062 11.636719 57.550781 11.574219 57.519531 11.53125 C 57.488281 11.488281 57.429688 11.476562 57.382812 11.507812 C 57.378906 11.511719 56.71875 11.972656 56.292969 11.59375 C 55.980469 11.3125 56.628906 9.90625 57.109375 9.085938 C 57.136719 9.042969 57.121094 8.984375 57.074219 8.957031 C 57.03125 8.929688 56.972656 8.945312 56.945312 8.988281 C 56.722656 9.367188 55.640625 11.269531 56.164062 11.738281 C 56.332031 11.886719 56.519531 11.941406 56.703125 11.941406 Z M 21.316406 26.960938 C 21.347656 26.960938 21.375 26.949219 21.394531 26.921875 C 21.425781 26.878906 21.417969 26.820312 21.375 26.789062 C 20.691406 26.28125 20.875 25.113281 20.878906 25.101562 C 20.886719 25.046875 20.851562 24.996094 20.796875 24.988281 C 20.746094 24.980469 20.695312 25.015625 20.6875 25.070312 C 20.679688 25.121094 20.484375 26.363281 21.261719 26.941406 Z M 13.464844 24.664062 Z M 13.464844 24.664062 Z M 13.464844 24.667969 Z M 17.816406 27.339844 C 17.863281 27.339844 17.90625 27.304688 17.914062 27.253906 L 18.246094 24.609375 C 18.253906 24.558594 18.21875 24.511719 18.164062 24.503906 C 18.117188 24.496094 18.0625 24.535156 18.054688 24.585938 L 18.015625 24.917969 C 17.03125 24.589844 15.375 24.042969 15.3125 24.035156 C 15.257812 24.03125 15.210938 24.066406 15.207031 24.121094 C 15.199219 24.171875 15.234375 24.21875 15.285156 24.226562 C 15.382812 24.25 16.933594 24.761719 17.957031 25.101562 L 17.988281 25.109375 L 17.886719 25.925781 C 17.480469 25.742188 15.128906 24.683594 14.296875 24.554688 C 13.492188 24.429688 13.367188 24.523438 13.324219 24.554688 C 13.304688 24.570312 13.277344 24.609375 13.273438 24.636719 C 13.265625 24.691406 13.304688 24.738281 13.355469 24.746094 C 13.390625 24.75 13.425781 24.734375 13.445312 24.707031 C 13.480469 24.695312 13.644531 24.648438 14.265625 24.746094 C 15.128906 24.878906 17.792969 26.097656 17.859375 26.128906 L 17.785156 26.734375 C 17.527344 26.59375 16.71875 26.167969 16.171875 26.050781 C 15.476562 25.898438 15.226562 26.3125 15.21875 26.332031 C 15.191406 26.378906 15.207031 26.4375 15.253906 26.464844 C 15.296875 26.488281 15.355469 26.476562 15.382812 26.429688 C 15.394531 26.414062 15.582031 26.121094 16.128906 26.238281 C 16.710938 26.363281 17.644531 26.878906 17.757812 26.941406 L 17.71875 27.230469 C 17.714844 27.28125 17.75 27.332031 17.804688 27.339844 Z M 70.035156 31.816406 C 70.152344 31.816406 70.234375 31.78125 70.28125 31.75 C 70.328125 31.765625 70.378906 31.769531 70.425781 31.765625 C 70.757812 31.75 70.957031 31.328125 71.023438 31.164062 C 71.125 31.152344 71.242188 31.121094 71.375 31.070312 C 72.011719 30.824219 73.457031 27.679688 73.621094 27.320312 C 73.640625 27.273438 73.621094 27.214844 73.574219 27.191406 C 73.523438 27.171875 73.464844 27.191406 73.445312 27.242188 C 72.820312 28.617188 71.734375 30.722656 71.308594 30.890625 C 71.167969 30.945312 71.050781 30.972656 70.960938 30.972656 L 70.945312 30.972656 C 70.882812 30.972656 70.828125 30.957031 70.785156 30.929688 C 70.695312 30.867188 70.652344 30.722656 70.648438 30.5 C 70.648438 30.300781 70.816406 30.003906 70.976562 29.710938 C 71.15625 29.386719 71.324219 29.078125 71.324219 28.828125 C 71.324219 28.40625 71.664062 27.589844 71.667969 27.582031 C 71.691406 27.53125 71.667969 27.476562 71.617188 27.453125 C 71.566406 27.433594 71.511719 27.457031 71.492188 27.503906 C 71.476562 27.539062 71.128906 28.371094 71.132812 28.832031 C 71.132812 29.027344 70.964844 29.328125 70.804688 29.617188 C 70.625 29.945312 70.457031 30.253906 70.457031 30.5 C 70.457031 30.796875 70.53125 30.988281 70.679688 31.089844 C 70.71875 31.117188 70.765625 31.140625 70.816406 31.152344 C 70.742188 31.324219 70.597656 31.566406 70.417969 31.574219 C 70.382812 31.578125 70.347656 31.570312 70.308594 31.558594 L 70.285156 31.550781 C 70.222656 31.523438 70.15625 31.476562 70.101562 31.410156 C 69.957031 31.25 69.882812 31.015625 69.914062 30.828125 C 69.984375 30.445312 70.636719 28.425781 70.644531 28.40625 C 70.660156 28.355469 70.632812 28.300781 70.582031 28.285156 C 70.53125 28.265625 70.476562 28.292969 70.460938 28.34375 C 70.433594 28.429688 69.792969 30.398438 69.726562 30.796875 C 69.683594 31.039062 69.773438 31.332031 69.953125 31.539062 C 69.980469 31.570312 70.011719 31.597656 70.039062 31.621094 C 69.988281 31.621094 69.910156 31.613281 69.816406 31.578125 L 69.765625 31.542969 L 69.738281 31.503906 C 69.59375 31.277344 69.457031 30.574219 69.402344 29.945312 C 69.398438 29.894531 69.359375 29.855469 69.296875 29.859375 C 69.246094 29.863281 69.207031 29.910156 69.210938 29.960938 C 69.230469 30.214844 69.296875 30.851562 69.445312 31.296875 C 69.300781 31.089844 69.136719 30.746094 69.019531 30.421875 C 69 30.371094 68.945312 30.34375 68.898438 30.359375 C 68.84375 30.378906 68.820312 30.433594 68.835938 30.484375 C 68.9375 30.761719 69.273438 31.636719 69.636719 31.675781 C 69.671875 31.71875 69.710938 31.746094 69.753906 31.761719 C 69.863281 31.800781 69.957031 31.816406 70.035156 31.816406 Z M 34.515625 35.335938 C 34.542969 35.335938 34.566406 35.328125 34.585938 35.308594 C 34.621094 35.269531 34.621094 35.210938 34.585938 35.171875 L 32.59375 33.210938 C 32.90625 33.285156 33.347656 33.398438 33.574219 33.46875 C 33.925781 33.578125 34.722656 34.140625 34.730469 34.148438 C 34.773438 34.179688 34.835938 34.167969 34.863281 34.125 C 34.894531 34.082031 34.886719 34.019531 34.84375 33.992188 C 34.808594 33.964844 34.015625 33.402344 33.628906 33.28125 C 33.289062 33.175781 32.488281 32.984375 32.328125 32.945312 L 31.957031 32.582031 C 31.921875 32.542969 31.859375 32.542969 31.820312 32.582031 C 31.785156 32.621094 31.785156 32.679688 31.824219 32.71875 L 32.210938 33.101562 L 32.214844 33.105469 L 34.449219 35.308594 C 34.46875 35.328125 34.492188 35.335938 34.515625 35.335938 Z M 42.738281 39.285156 C 42.789062 39.285156 42.832031 39.242188 42.832031 39.1875 C 42.824219 35.257812 43.070312 27.324219 43.074219 27.246094 C 43.074219 27.191406 43.035156 27.148438 42.980469 27.144531 C 42.929688 27.140625 42.882812 27.1875 42.882812 27.238281 C 42.878906 27.320312 42.632812 35.253906 42.640625 39.1875 C 42.640625 39.242188 42.683594 39.285156 42.738281 39.285156 Z M 48.984375 40.074219 L 48.988281 40.074219 C 49.042969 40.070312 49.082031 40.027344 49.082031 39.972656 L 48.363281 24.761719 L 51.714844 22.59375 C 51.742188 22.578125 51.757812 22.546875 51.757812 22.515625 C 51.757812 22.484375 51.742188 22.453125 51.71875 22.433594 L 50.84375 21.828125 C 50.796875 21.796875 50.738281 21.808594 50.707031 21.851562 C 50.675781 21.898438 50.6875 21.957031 50.730469 21.988281 L 51.488281 22.511719 L 48.210938 24.628906 C 48.183594 24.648438 48.164062 24.679688 48.167969 24.714844 L 48.886719 39.980469 C 48.890625 40.035156 48.933594 40.074219 48.984375 40.074219 Z M 67.007812 40.417969 L 67.054688 40.40625 C 67.101562 40.378906 67.121094 40.320312 67.09375 40.273438 C 67.078125 40.242188 65.449219 37.207031 66.039062 33.894531 C 66.628906 30.570312 68.59375 27.476562 68.613281 27.445312 C 68.644531 27.398438 68.628906 27.339844 68.585938 27.3125 C 68.539062 27.28125 68.480469 27.296875 68.453125 27.339844 C 68.433594 27.371094 66.445312 30.5 65.847656 33.863281 C 65.246094 37.238281 66.90625 40.335938 66.925781 40.367188 C 66.941406 40.398438 66.976562 40.417969 67.007812 40.417969 Z M 55.835938 40.417969 C 55.871094 40.417969 55.902344 40.398438 55.921875 40.367188 C 55.945312 40.324219 58.515625 35.847656 59.992188 33.914062 C 61.429688 32.03125 62.933594 29.296875 63.832031 27.664062 C 64 27.359375 64.144531 27.097656 64.257812 26.894531 C 64.96875 25.636719 66.085938 23.613281 66.097656 23.589844 C 66.121094 23.546875 66.105469 23.488281 66.0625 23.460938 L 64.90625 22.796875 C 65.542969 22.636719 66.605469 22.304688 66.65625 22.289062 C 66.707031 22.273438 66.738281 22.21875 66.722656 22.167969 C 66.703125 22.117188 66.652344 22.089844 66.601562 22.105469 C 66.585938 22.109375 65.171875 22.550781 64.625 22.664062 C 64.585938 22.671875 64.558594 22.703125 64.550781 22.742188 C 64.542969 22.78125 64.5625 22.820312 64.597656 22.839844 L 65.882812 23.582031 C 65.664062 23.976562 64.71875 25.6875 64.089844 26.800781 C 63.972656 27.003906 63.832031 27.265625 63.664062 27.570312 C 62.765625 29.199219 61.269531 31.925781 59.839844 33.796875 C 58.355469 35.738281 55.777344 40.226562 55.753906 40.273438 C 55.726562 40.320312 55.742188 40.378906 55.789062 40.402344 Z M 63.820312 51.71875 C 65.113281 51.71875 67.847656 51.484375 69.429688 51.054688 C 69.480469 51.042969 69.511719 50.988281 69.496094 50.9375 C 69.484375 50.886719 69.429688 50.855469 69.378906 50.871094 C 67.269531 51.4375 63.589844 51.582031 63.242188 51.503906 C 63.117188 51.203125 62.8125 48.386719 63.109375 48.0625 L 63.140625 48.054688 C 63.738281 48.308594 67.503906 47.644531 67.933594 47.566406 C 67.984375 47.554688 68.019531 47.503906 68.011719 47.453125 C 68 47.402344 67.953125 47.367188 67.898438 47.375 C 66.753906 47.582031 63.675781 48.070312 63.214844 47.878906 C 63.109375 47.832031 63.007812 47.867188 62.9375 47.96875 C 62.609375 48.457031 62.933594 51.472656 63.109375 51.648438 C 63.15625 51.695312 63.417969 51.71875 63.820312 51.71875 Z M 55.09375 79.242188 L 55.117188 79.238281 C 55.171875 79.226562 55.203125 79.171875 55.1875 79.121094 L 52.957031 69.921875 C 52.945312 69.871094 52.894531 69.839844 52.839844 69.851562 C 52.789062 69.863281 52.757812 69.914062 52.769531 69.96875 L 55 79.167969 C 55.011719 79.210938 55.050781 79.242188 55.09375 79.242188 Z M 47.53125 93.574219 L 47.585938 93.558594 C 47.628906 93.527344 47.640625 93.46875 47.613281 93.421875 L 46.390625 91.628906 C 46.359375 91.582031 46.300781 91.574219 46.257812 91.601562 C 46.210938 91.632812 46.199219 91.691406 46.230469 91.734375 L 47.453125 93.53125 C 47.472656 93.558594 47.5 93.574219 47.53125 93.574219 Z M 62.480469 95.292969 C 62.515625 95.292969 62.550781 95.273438 62.566406 95.238281 C 62.589844 95.191406 62.570312 95.132812 62.523438 95.109375 C 61.097656 94.425781 59.871094 93.375 58.976562 92.070312 C 58.945312 92.027344 58.886719 92.015625 58.84375 92.046875 C 58.800781 92.074219 58.789062 92.136719 58.816406 92.179688 C 59.734375 93.511719 60.984375 94.585938 62.4375 95.285156 Z M 51.886719 110.667969 C 52.894531 110.667969 54 110.257812 54.976562 109.898438 C 55.191406 109.820312 55.398438 109.742188 55.597656 109.671875 C 55.648438 109.65625 55.675781 109.601562 55.65625 109.550781 C 55.640625 109.5 55.585938 109.472656 55.535156 109.492188 C 55.332031 109.5625 55.125 109.636719 54.910156 109.71875 C 53.933594 110.078125 52.824219 110.480469 51.84375 110.472656 C 50.761719 110.460938 49.710938 110.039062 48.628906 109.183594 C 48.585938 109.152344 48.527344 109.15625 48.492188 109.199219 C 48.460938 109.242188 48.46875 109.300781 48.507812 109.335938 C 49.628906 110.21875 50.71875 110.652344 51.839844 110.667969 Z M 51.328125 113.78125 L 51.363281 113.777344 L 53.214844 113.058594 C 53.265625 113.039062 53.289062 112.984375 53.269531 112.933594 C 53.25 112.882812 53.195312 112.859375 53.144531 112.878906 L 51.910156 113.355469 L 52.519531 112.886719 C 52.5625 112.855469 52.570312 112.792969 52.535156 112.75 C 52.503906 112.710938 52.445312 112.699219 52.402344 112.734375 L 51.269531 113.609375 C 51.230469 113.640625 51.21875 113.691406 51.242188 113.734375 C 51.261719 113.765625 51.292969 113.78125 51.328125 113.78125 Z M 59.914062 114.804688 C 63.570312 114.804688 66.460938 113.191406 66.492188 113.175781 C 66.539062 113.148438 66.554688 113.089844 66.527344 113.042969 C 66.5 112.996094 66.441406 112.980469 66.394531 113.007812 C 66.363281 113.023438 63.25 114.757812 59.417969 114.597656 C 59.355469 114.59375 59.320312 114.636719 59.316406 114.691406 C 59.316406 114.746094 59.355469 114.789062 59.410156 114.792969 C 59.578125 114.800781 59.75 114.804688 59.914062 114.804688 Z M 63.777344 119.246094 L 63.78125 119.246094 C 63.828125 119.246094 63.871094 119.210938 63.875 119.160156 L 64.082031 116.875 C 64.089844 116.824219 64.046875 116.777344 63.996094 116.769531 C 63.9375 116.765625 63.894531 116.804688 63.890625 116.859375 L 63.769531 118.210938 L 63.703125 117.652344 C 63.699219 117.597656 63.652344 117.5625 63.597656 117.566406 C 63.542969 117.574219 63.503906 117.621094 63.511719 117.675781 L 63.683594 119.164062 C 63.6875 119.210938 63.730469 119.246094 63.777344 119.246094 Z M 43.875 119.394531 C 44.847656 119.394531 45.957031 119.261719 47.144531 119.121094 L 47.683594 119.058594 C 49.511719 118.84375 50.359375 118.015625 50.917969 117.46875 C 51.175781 117.214844 51.375 117.015625 51.582031 116.960938 C 51.960938 116.859375 52.167969 116.886719 52.457031 116.925781 C 52.691406 116.953125 52.980469 116.992188 53.445312 116.964844 C 54.453125 116.902344 56.773438 115.949219 56.871094 115.910156 C 56.921875 115.890625 56.945312 115.832031 56.925781 115.78125 C 56.90625 115.734375 56.847656 115.710938 56.800781 115.730469 C 56.777344 115.742188 54.410156 116.710938 53.433594 116.769531 C 52.988281 116.796875 52.71875 116.761719 52.480469 116.734375 C 52.183594 116.695312 51.949219 116.664062 51.535156 116.773438 C 51.277344 116.839844 51.058594 117.058594 50.78125 117.328125 C 50.210938 117.890625 49.425781 118.660156 47.660156 118.867188 L 47.121094 118.929688 C 44.769531 119.210938 42.734375 119.453125 41.480469 118.699219 C 41.433594 118.671875 41.375 118.6875 41.347656 118.734375 C 41.320312 118.777344 41.332031 118.839844 41.378906 118.867188 C 42.039062 119.257812 42.890625 119.394531 43.875 119.394531 Z M 59.824219 124.765625 C 61.300781 124.765625 63.050781 124.136719 63.984375 123.230469 C 64.722656 122.507812 64.902344 121.382812 64.941406 120.691406 L 65.703125 119.585938 C 65.734375 119.539062 65.722656 119.480469 65.675781 119.449219 C 65.632812 119.417969 65.574219 119.429688 65.542969 119.476562 L 64.949219 120.339844 C 64.949219 120.195312 64.941406 120.105469 64.9375 120.089844 C 64.933594 120.035156 64.890625 119.996094 64.835938 120 C 64.78125 120.003906 64.742188 120.050781 64.746094 120.101562 C 64.75 120.121094 64.886719 122.078125 63.847656 123.089844 C 62.832031 124.082031 60.714844 124.742188 59.21875 124.53125 C 57.796875 124.332031 56.683594 123.402344 56.671875 123.394531 C 56.632812 123.359375 56.570312 123.367188 56.535156 123.40625 C 56.5 123.445312 56.507812 123.507812 56.546875 123.542969 C 56.59375 123.582031 57.714844 124.515625 59.191406 124.722656 C 59.394531 124.75 59.605469 124.765625 59.824219 124.765625 " fill-opacity="1" fill-rule="nonzero"/><path fill="#000000" d="M 56.753906 15.261719 C 57.113281 15.261719 57.480469 15.097656 57.695312 14.953125 C 57.742188 14.925781 57.753906 14.867188 57.722656 14.820312 C 57.695312 14.777344 57.636719 14.765625 57.589844 14.792969 C 57.582031 14.800781 56.65625 15.394531 56.195312 14.8125 C 56.160156 14.773438 56.097656 14.765625 56.058594 14.800781 C 56.015625 14.832031 56.007812 14.894531 56.042969 14.933594 C 56.234375 15.175781 56.492188 15.261719 56.753906 15.261719 " fill-opacity="1" fill-rule="nonzero"/><path fill="#000000" d="M 62.699219 14.34375 C 62.699219 14.34375 61.824219 16.8125 60.640625 17.699219 C 58.6875 19.15625 55.363281 18.632812 55.363281 18.632812 L 54.9375 19.695312 C 55.171875 18.511719 55.234375 17.53125 55.238281 17.148438 C 55.25 16.265625 53.859375 15.339844 53.675781 14.34375 C 53.675781 14.34375 54.691406 16.300781 56.878906 16.632812 C 59.421875 17.019531 62.699219 14.34375 62.699219 14.34375 " fill-opacity="1" fill-rule="nonzero"/><path fill="#000000" d="M 55.316406 9.039062 C 55.316406 9.265625 55.503906 9.453125 55.730469 9.453125 C 55.960938 9.453125 56.144531 9.265625 56.144531 9.039062 C 56.144531 8.8125 55.960938 8.628906 55.730469 8.628906 C 55.503906 8.628906 55.316406 8.8125 55.316406 9.039062 " fill-opacity="1" fill-rule="nonzero"/><path fill="#000000" d="M 59.3125 8.9375 C 59.3125 9.164062 59.496094 9.347656 59.726562 9.347656 C 59.953125 9.347656 60.136719 9.164062 60.136719 8.9375 C 60.136719 8.707031 59.953125 8.523438 59.726562 8.523438 C 59.496094 8.523438 59.3125 8.707031 59.3125 8.9375 " fill-opacity="1" fill-rule="nonzero"/><path fill="#000000" d="M 58.808594 12.394531 L 55.546875 12.789062 C 55.386719 12.808594 55.332031 13.015625 55.46875 13.105469 C 55.832031 13.351562 56.421875 13.675781 57 13.675781 C 57.601562 13.675781 58.429688 13.105469 58.9375 12.707031 C 59.074219 12.597656 58.980469 12.375 58.808594 12.394531 " fill-opacity="1" fill-rule="nonzero"/><path fill="#fde4d4" d="M 55.8125 12.863281 C 55.761719 12.871094 55.730469 12.921875 55.746094 12.96875 C 55.78125 13.050781 55.871094 13.164062 56.109375 13.222656 C 56.464844 13.3125 58.003906 12.996094 58.375 12.917969 C 58.414062 12.910156 58.515625 12.832031 58.5625 12.761719 L 58.632812 12.628906 C 58.628906 12.589844 58.59375 12.558594 58.550781 12.5625 L 55.8125 12.863281 " fill-opacity="1" fill-rule="nonzero"/><g clip-path="url(#3f234b4029)"><g clip-path="url(#2362f0126b)"><g clip-path="url(#651ca08a5e)"><g clip-path="url(#308723ecb5)"><path fill="#f1bc19" d="M 13.648438 3.148438 C 13.527344 3.183594 13.484375 3.261719 13.519531 3.378906 C 13.554688 3.5 13.628906 3.542969 13.75 3.511719 C 13.871094 3.476562 13.914062 3.398438 13.878906 3.277344 C 13.847656 3.160156 13.769531 3.117188 13.648438 3.148438 Z M 13.648438 3.148438 " fill-opacity="1" fill-rule="nonzero"/></g></g></g></g><g clip-path="url(#8eff8eb47f)"><g clip-path="url(#c54e28c848)"><g clip-path="url(#8f7cf797ea)"><g clip-path="url(#1ef024d796)"><path fill="#f9dbd2" d="M 8.554688 4.390625 C 8.105469 4.519531 7.671875 4.6875 7.257812 4.898438 C 6.839844 5.113281 6.449219 5.363281 6.082031 5.652344 C 5.714844 5.941406 5.382812 6.261719 5.078125 6.617188 C 4.773438 6.972656 4.507812 7.355469 4.28125 7.761719 C 4.054688 8.171875 3.867188 8.597656 3.722656 9.039062 C 3.578125 9.484375 3.480469 9.9375 3.425781 10.402344 C 3.371094 10.867188 3.359375 11.332031 3.398438 11.796875 C 3.433594 12.261719 3.515625 12.722656 3.640625 13.171875 C 3.769531 13.621094 3.9375 14.054688 4.152344 14.46875 C 4.363281 14.886719 4.613281 15.277344 4.902344 15.644531 C 5.191406 16.011719 5.511719 16.347656 5.867188 16.648438 C 6.222656 16.953125 6.605469 17.21875 7.011719 17.449219 C 7.421875 17.675781 7.847656 17.863281 8.289062 18.007812 C 8.734375 18.152344 9.1875 18.25 9.652344 18.304688 C 10.117188 18.359375 10.578125 18.371094 11.046875 18.332031 C 11.511719 18.296875 11.96875 18.214844 12.417969 18.089844 C 12.867188 17.960938 13.300781 17.792969 13.714844 17.582031 C 14.132812 17.367188 14.523438 17.117188 14.890625 16.828125 C 15.257812 16.539062 15.589844 16.21875 15.894531 15.863281 C 16.199219 15.507812 16.464844 15.125 16.691406 14.71875 C 16.917969 14.308594 17.105469 13.882812 17.25 13.441406 C 17.394531 12.996094 17.492188 12.542969 17.546875 12.078125 C 17.601562 11.613281 17.613281 11.148438 17.574219 10.683594 C 17.539062 10.21875 17.457031 9.757812 17.332031 9.308594 C 17.203125 8.859375 17.035156 8.425781 16.820312 8.011719 C 16.609375 7.59375 16.359375 7.203125 16.070312 6.835938 C 15.78125 6.46875 15.460938 6.132812 15.105469 5.832031 C 14.75 5.527344 14.367188 5.261719 13.960938 5.03125 C 13.550781 4.804688 13.125 4.617188 12.683594 4.472656 C 12.238281 4.328125 11.785156 4.230469 11.320312 4.175781 C 10.855469 4.121094 10.394531 4.109375 9.925781 4.148438 C 9.460938 4.183594 9.003906 4.265625 8.554688 4.390625 Z M 8.554688 4.390625 " fill-opacity="1" fill-rule="nonzero"/></g></g></g></g><g clip-path="url(#0afe19661f)"><g clip-path="url(#0e30ec2678)"><g clip-path="url(#537a6074d7)"><g clip-path="url(#9b4097324a)"><path fill="#f1bc19" d="M 14.679688 2.664062 C 14.480469 2.71875 14.328125 2.839844 14.230469 3.019531 C 14.128906 3.199219 14.105469 3.390625 14.160156 3.589844 C 14.21875 3.789062 14.335938 3.9375 14.515625 4.039062 C 14.695312 4.140625 14.886719 4.164062 15.085938 4.105469 C 15.285156 4.050781 15.433594 3.933594 15.535156 3.75 C 15.636719 3.570312 15.660156 3.382812 15.601562 3.183594 C 15.546875 2.984375 15.429688 2.832031 15.246094 2.730469 C 15.066406 2.628906 14.878906 2.609375 14.679688 2.664062 Z M 14.679688 2.664062 " fill-opacity="1" fill-rule="nonzero"/></g></g></g></g><g clip-path="url(#a1c92023ae)"><g clip-path="url(#255a8257d2)"><g clip-path="url(#426a99fc56)"><g clip-path="url(#6602de62d1)"><path fill="#ee3e54" d="M 2.679688 8.382812 C 2.582031 8.410156 2.507812 8.46875 2.457031 8.558594 C 2.40625 8.652344 2.394531 8.746094 2.421875 8.84375 C 2.449219 8.945312 2.507812 9.019531 2.597656 9.070312 C 2.691406 9.121094 2.785156 9.132812 2.882812 9.105469 C 2.984375 9.074219 3.058594 9.015625 3.109375 8.925781 C 3.160156 8.835938 3.171875 8.742188 3.144531 8.640625 C 3.113281 8.542969 3.054688 8.46875 2.964844 8.417969 C 2.875 8.367188 2.78125 8.355469 2.679688 8.382812 Z M 2.679688 8.382812 " fill-opacity="1" fill-rule="nonzero"/></g></g></g></g><g clip-path="url(#5e05b3c120)"><g clip-path="url(#2dfbf7cc51)"><g clip-path="url(#6fd1432be5)"><g clip-path="url(#8af9edeeae)"><path fill="#fbcd59" d="M 16.800781 14.324219 C 16.699219 14.351562 16.625 14.410156 16.574219 14.5 C 16.523438 14.589844 16.511719 14.6875 16.542969 14.785156 C 16.570312 14.886719 16.628906 14.960938 16.71875 15.011719 C 16.808594 15.0625 16.902344 15.070312 17.003906 15.042969 C 17.101562 15.015625 17.179688 14.957031 17.226562 14.867188 C 17.277344 14.777344 17.289062 14.679688 17.261719 14.582031 C 17.234375 14.484375 17.175781 14.40625 17.085938 14.355469 C 16.996094 14.304688 16.898438 14.296875 16.800781 14.324219 Z M 5.761719 17.242188 C 5.5625 17.296875 5.414062 17.417969 5.3125 17.597656 C 5.210938 17.777344 5.1875 17.964844 5.246094 18.164062 C 5.300781 18.363281 5.421875 18.515625 5.601562 18.617188 C 5.78125 18.71875 5.96875 18.738281 6.167969 18.683594 C 6.367188 18.628906 6.519531 18.507812 6.621094 18.328125 C 6.71875 18.148438 6.742188 17.957031 6.6875 17.757812 C 6.628906 17.558594 6.511719 17.410156 6.332031 17.308594 C 6.152344 17.207031 5.960938 17.1875 5.761719 17.242188 Z M 5.761719 17.242188 " fill-opacity="1" fill-rule="nonzero"/></g></g></g></g><g clip-path="url(#25c347b602)"><g clip-path="url(#aa4513df3a)"><g clip-path="url(#cefbde2886)"><g clip-path="url(#07a67d91ec)"><path fill="#ee3e54" d="M 7.378906 18.148438 C 7.28125 18.175781 7.203125 18.234375 7.15625 18.324219 C 7.105469 18.414062 7.09375 18.511719 7.121094 18.609375 C 7.148438 18.710938 7.207031 18.785156 7.296875 18.835938 C 7.386719 18.886719 7.484375 18.898438 7.582031 18.867188 C 7.683594 18.839844 7.757812 18.78125 7.808594 18.691406 C 7.859375 18.601562 7.871094 18.507812 7.839844 18.40625 C 7.8125 18.308594 7.753906 18.230469 7.664062 18.179688 C 7.574219 18.132812 7.480469 18.121094 7.378906 18.148438 Z M 7.378906 18.148438 " fill-opacity="1" fill-rule="nonzero"/></g></g></g></g><g clip-path="url(#fa7912de63)"><g clip-path="url(#be612461c5)"><g clip-path="url(#2931580d70)"><g clip-path="url(#bad60d8943)"><path fill="#ffffff" d="M 14.777344 15.09375 C 14.65625 15.128906 14.5625 15.203125 14.5 15.316406 C 14.4375 15.425781 14.421875 15.542969 14.457031 15.667969 C 14.492188 15.792969 14.566406 15.886719 14.675781 15.949219 C 14.789062 16.011719 14.90625 16.023438 15.03125 15.988281 C 15.15625 15.953125 15.246094 15.882812 15.308594 15.769531 C 15.371094 15.65625 15.386719 15.539062 15.351562 15.414062 C 15.316406 15.292969 15.242188 15.199219 15.132812 15.136719 C 15.019531 15.074219 14.902344 15.058594 14.777344 15.09375 Z M 4.210938 12.425781 C 4.089844 12.460938 4.046875 12.539062 4.082031 12.65625 C 4.113281 12.777344 4.191406 12.820312 4.3125 12.785156 C 4.433594 12.753906 4.476562 12.675781 4.441406 12.554688 C 4.40625 12.4375 4.332031 12.394531 4.210938 12.425781 Z M 4.210938 12.425781 " fill-opacity="1" fill-rule="nonzero"/></g></g></g></g><g clip-path="url(#9d004cccc0)"><g clip-path="url(#3342253f6e)"><g clip-path="url(#f736d96ee2)"><g clip-path="url(#3821d8e11f)"><path fill="#f1bc19" d="M 15.953125 5.808594 C 15.832031 5.839844 15.789062 5.917969 15.824219 6.039062 C 15.859375 6.15625 15.933594 6.199219 16.054688 6.167969 C 16.175781 6.132812 16.21875 6.054688 16.183594 5.9375 C 16.152344 5.816406 16.074219 5.773438 15.953125 5.808594 Z M 15.953125 5.808594 " fill-opacity="1" fill-rule="nonzero"/></g></g></g></g><g clip-path="url(#50e9206ffa)"><g clip-path="url(#edd006e569)"><g clip-path="url(#284e6ff6e4)"><g clip-path="url(#61e8c26662)"><path fill="#ffffff" d="M 16.601562 12.238281 C 16.5 12.265625 16.425781 12.328125 16.375 12.417969 C 16.324219 12.507812 16.316406 12.601562 16.34375 12.703125 C 16.371094 12.800781 16.429688 12.875 16.519531 12.925781 C 16.609375 12.976562 16.707031 12.988281 16.804688 12.960938 C 16.902344 12.933594 16.980469 12.871094 17.03125 12.78125 C 17.078125 12.691406 17.089844 12.597656 17.0625 12.496094 C 17.035156 12.398438 16.976562 12.324219 16.886719 12.273438 C 16.796875 12.222656 16.699219 12.210938 16.601562 12.238281 Z M 16.601562 12.238281 " fill-opacity="1" fill-rule="nonzero"/></g></g></g></g><g clip-path="url(#08fae312f6)"><g clip-path="url(#224c25c45c)"><g clip-path="url(#a81f258bc7)"><g clip-path="url(#9e602cfc3f)"><path fill="#88cdd7" d="M 13.960938 13.820312 C 13.828125 13.859375 13.71875 13.835938 13.609375 13.753906 C 13.292969 13.507812 13.078125 13.171875 13.078125 13.171875 L 13.015625 13.074219 L 12.914062 13.121094 C 12.367188 13.363281 11.792969 13.570312 11.210938 13.734375 C 10.625 13.898438 10.015625 14.023438 9.398438 14.113281 L 9.289062 14.128906 L 9.285156 14.238281 C 9.285156 14.242188 9.277344 14.644531 9.136719 15.015625 C 9.085938 15.144531 9.007812 15.21875 8.871094 15.253906 C 8.734375 15.296875 8.554688 15.289062 8.367188 15.285156 L 8.242188 15.28125 C 7.710938 15.273438 6.824219 14.988281 6.421875 14.789062 C 6.246094 14.695312 6.058594 14.597656 5.914062 13.742188 C 5.75 12.78125 5.671875 10.273438 5.738281 9.707031 C 5.796875 9.199219 6.058594 8.910156 6.34375 8.636719 C 6.671875 8.363281 7.050781 8.105469 7.460938 7.882812 C 7.554688 7.832031 7.644531 7.792969 7.722656 7.773438 C 7.957031 7.707031 8.050781 7.785156 8.097656 7.851562 L 8.429688 8.28125 L 8.527344 8.226562 C 8.84375 8.050781 9.175781 7.914062 9.515625 7.820312 C 9.859375 7.722656 10.214844 7.664062 10.582031 7.648438 L 10.691406 7.640625 L 10.75 7.101562 C 10.757812 7.019531 10.796875 6.90625 11.03125 6.839844 C 11.109375 6.816406 11.203125 6.800781 11.316406 6.792969 C 11.78125 6.773438 12.234375 6.792969 12.664062 6.855469 C 13.046875 6.941406 13.417969 7.046875 13.734375 7.453125 C 14.085938 7.898438 15.332031 10.078125 15.691406 10.980469 C 16.015625 11.789062 15.90625 11.96875 15.804688 12.148438 C 15.566406 12.523438 14.960938 13.226562 14.511719 13.511719 L 14.40625 13.582031 C 14.25 13.683594 14.101562 13.78125 13.960938 13.820312 Z M 13.960938 13.820312 " fill-opacity="1" fill-rule="nonzero"/></g></g></g></g><g clip-path="url(#db39758cc5)"><g clip-path="url(#3f5c3cb1f9)"><g clip-path="url(#698dbb7b37)"><g clip-path="url(#e775603bb7)"><path fill="#472b29" d="M 11.066406 6.964844 C 11.136719 6.945312 11.222656 6.933594 11.320312 6.925781 C 11.773438 6.902344 12.21875 6.925781 12.636719 6.984375 C 13.011719 7.066406 13.34375 7.167969 13.632812 7.53125 C 13.96875 7.964844 15.222656 10.15625 15.570312 11.03125 C 15.871094 11.777344 15.78125 11.925781 15.695312 12.074219 C 15.46875 12.433594 14.867188 13.132812 14.441406 13.402344 C 14.40625 13.425781 14.371094 13.449219 14.335938 13.472656 C 14.1875 13.570312 14.046875 13.660156 13.925781 13.695312 C 13.832031 13.722656 13.765625 13.707031 13.691406 13.648438 C 13.394531 13.421875 13.191406 13.101562 13.1875 13.101562 L 13.066406 12.910156 L 12.859375 13 C 12.320312 13.242188 11.75 13.445312 11.175781 13.605469 C 10.597656 13.769531 9.992188 13.894531 9.378906 13.980469 L 9.160156 14.011719 L 9.15625 14.238281 C 9.15625 14.242188 9.148438 14.617188 9.015625 14.96875 C 8.980469 15.058594 8.929688 15.101562 8.835938 15.128906 C 8.714844 15.164062 8.546875 15.160156 8.371094 15.152344 C 8.328125 15.152344 8.285156 15.152344 8.246094 15.152344 C 7.738281 15.140625 6.863281 14.863281 6.488281 14.675781 C 6.328125 14.589844 6.175781 14.511719 6.042969 13.71875 C 5.882812 12.792969 5.804688 10.269531 5.867188 9.722656 C 5.921875 9.261719 6.152344 9 6.429688 8.738281 C 6.753906 8.464844 7.121094 8.214844 7.515625 8 C 7.605469 7.953125 7.6875 7.917969 7.757812 7.898438 C 7.933594 7.847656 7.972656 7.902344 7.996094 7.929688 L 8.257812 8.269531 L 8.394531 8.449219 L 8.589844 8.339844 C 8.898438 8.171875 9.222656 8.039062 9.550781 7.945312 C 9.882812 7.851562 10.230469 7.796875 10.585938 7.777344 L 10.8125 7.765625 L 10.835938 7.542969 L 10.878906 7.117188 C 10.886719 7.082031 10.890625 7.015625 11.066406 6.964844 M 10.996094 6.710938 C 10.796875 6.769531 10.644531 6.878906 10.621094 7.089844 L 10.574219 7.515625 C 10.195312 7.535156 9.832031 7.59375 9.480469 7.691406 C 9.128906 7.792969 8.789062 7.933594 8.464844 8.109375 L 8.203125 7.769531 C 8.074219 7.601562 7.882812 7.589844 7.6875 7.644531 C 7.589844 7.671875 7.488281 7.71875 7.394531 7.765625 C 6.976562 7.996094 6.597656 8.253906 6.253906 8.539062 C 5.96875 8.816406 5.671875 9.128906 5.605469 9.691406 C 5.542969 10.269531 5.621094 12.804688 5.785156 13.761719 C 5.933594 14.632812 6.128906 14.78125 6.367188 14.90625 C 6.769531 15.109375 7.679688 15.402344 8.242188 15.414062 C 8.476562 15.417969 8.714844 15.4375 8.90625 15.382812 C 9.0625 15.339844 9.1875 15.246094 9.257812 15.0625 C 9.410156 14.660156 9.417969 14.242188 9.417969 14.242188 C 10.042969 14.152344 10.652344 14.027344 11.246094 13.859375 C 11.835938 13.691406 12.410156 13.488281 12.96875 13.242188 C 12.96875 13.242188 13.191406 13.59375 13.53125 13.855469 C 13.6875 13.976562 13.839844 13.992188 13.996094 13.945312 C 14.1875 13.890625 14.382812 13.75 14.582031 13.625 C 15.054688 13.324219 15.675781 12.597656 15.917969 12.214844 C 16.054688 11.980469 16.144531 11.753906 15.816406 10.933594 C 15.453125 10.03125 14.195312 7.828125 13.839844 7.371094 C 13.488281 6.925781 13.074219 6.8125 12.683594 6.726562 C 12.242188 6.660156 11.785156 6.640625 11.304688 6.664062 C 11.199219 6.671875 11.09375 6.683594 10.996094 6.710938 Z M 10.996094 6.710938 " fill-opacity="1" fill-rule="nonzero"/></g></g></g></g><g clip-path="url(#5d50486ccc)"><g clip-path="url(#07a4ee6029)"><g clip-path="url(#5aef01fff7)"><g clip-path="url(#60696ff92b)"><path fill="#472b29" d="M 11.257812 13.855469 C 10.175781 14.160156 9.050781 14.289062 7.886719 14.242188 C 7.816406 14.238281 7.761719 14.179688 7.761719 14.105469 C 7.765625 14.035156 7.828125 13.976562 7.898438 13.980469 C 10.164062 14.074219 12.292969 13.476562 14.214844 12.199219 C 14.277344 12.160156 14.355469 12.175781 14.398438 12.234375 C 14.4375 12.296875 14.421875 12.378906 14.359375 12.417969 C 13.375 13.070312 12.335938 13.550781 11.257812 13.855469 Z M 12.496094 7.804688 C 12.480469 7.8125 12.460938 7.8125 12.445312 7.808594 C 10.445312 7.558594 8.652344 8.0625 7.117188 9.3125 C 7.058594 9.355469 6.976562 9.347656 6.933594 9.292969 C 6.886719 9.238281 6.894531 9.152344 6.953125 9.109375 C 8.546875 7.8125 10.40625 7.289062 12.476562 7.550781 C 12.546875 7.558594 12.597656 7.625 12.589844 7.695312 C 12.582031 7.75 12.542969 7.792969 12.496094 7.804688 Z M 12.496094 7.804688 " fill-opacity="1" fill-rule="nonzero"/></g></g></g></g><g clip-path="url(#42fea31dc7)"><g clip-path="url(#1e188b713e)"><g clip-path="url(#6056ff50d0)"><g clip-path="url(#10594f5697)"><path fill="#472b29" d="M 12.636719 8.3125 C 12.625 8.3125 12.613281 8.316406 12.601562 8.3125 C 12.523438 8.304688 12.445312 8.296875 12.371094 8.289062 C 11.308594 8.183594 10.300781 8.292969 9.371094 8.617188 C 9.320312 8.640625 9.269531 8.609375 9.253906 8.5625 C 9.234375 8.511719 9.261719 8.460938 9.308594 8.441406 C 10.265625 8.109375 11.300781 7.996094 12.386719 8.101562 C 12.464844 8.109375 12.542969 8.117188 12.625 8.128906 C 12.675781 8.132812 12.710938 8.179688 12.707031 8.230469 C 12.699219 8.269531 12.671875 8.300781 12.636719 8.3125 Z M 8.542969 8.972656 C 8.503906 8.984375 8.457031 8.964844 8.4375 8.921875 C 8.414062 8.875 8.429688 8.820312 8.476562 8.796875 C 8.617188 8.726562 8.757812 8.660156 8.902344 8.601562 C 8.949219 8.578125 9.003906 8.601562 9.023438 8.648438 C 9.046875 8.695312 9.023438 8.753906 8.976562 8.773438 C 8.835938 8.832031 8.699219 8.894531 8.5625 8.964844 C 8.554688 8.96875 8.550781 8.96875 8.542969 8.972656 Z M 7.363281 9.722656 C 7.328125 9.730469 7.285156 9.71875 7.261719 9.6875 C 7.230469 9.648438 7.238281 9.589844 7.277344 9.558594 C 7.542969 9.355469 7.816406 9.167969 8.09375 9.007812 C 8.136719 8.980469 8.195312 8.996094 8.21875 9.039062 C 8.246094 9.085938 8.230469 9.144531 8.1875 9.167969 C 7.917969 9.328125 7.648438 9.507812 7.394531 9.707031 C 7.382812 9.714844 7.375 9.71875 7.363281 9.722656 Z M 7.363281 9.722656 " fill-opacity="1" fill-rule="nonzero"/></g></g></g></g><g clip-path="url(#d6fafdcd9d)"><g clip-path="url(#0443bc6adc)"><g clip-path="url(#7592c25ce9)"><g clip-path="url(#fdeab38289)"><path fill="#fffef4" d="M 8.507812 10.765625 C 8.390625 10.800781 8.289062 10.855469 8.195312 10.941406 C 8.105469 11.023438 8.035156 11.125 7.980469 11.246094 C 7.925781 11.367188 7.894531 11.496094 7.886719 11.636719 C 7.878906 11.777344 7.894531 11.917969 7.9375 12.058594 C 7.976562 12.195312 8.035156 12.324219 8.113281 12.4375 C 8.195312 12.554688 8.289062 12.648438 8.398438 12.726562 C 8.507812 12.800781 8.621094 12.847656 8.742188 12.871094 C 8.863281 12.894531 8.980469 12.890625 9.09375 12.859375 C 9.210938 12.824219 9.3125 12.769531 9.402344 12.683594 C 9.496094 12.601562 9.566406 12.5 9.621094 12.378906 C 9.675781 12.257812 9.703125 12.128906 9.710938 11.988281 C 9.71875 11.847656 9.703125 11.707031 9.664062 11.570312 C 9.625 11.429688 9.566406 11.304688 9.488281 11.1875 C 9.40625 11.070312 9.3125 10.976562 9.203125 10.902344 C 9.09375 10.824219 8.980469 10.777344 8.859375 10.753906 C 8.738281 10.730469 8.621094 10.734375 8.507812 10.765625 Z M 8.507812 10.765625 " fill-opacity="1" fill-rule="nonzero"/></g></g></g></g><g clip-path="url(#00ca547570)"><g clip-path="url(#2fc416c5dc)"><g clip-path="url(#339106134e)"><g clip-path="url(#1ce5340a7f)"><path fill="#472b29" d="M 8.542969 10.894531 C 8.949219 10.777344 9.394531 11.097656 9.539062 11.605469 C 9.683594 12.109375 9.46875 12.617188 9.058594 12.730469 C 8.652344 12.847656 8.207031 12.527344 8.0625 12.019531 C 7.917969 11.515625 8.132812 11.007812 8.542969 10.894531 M 8.46875 10.640625 C 7.921875 10.796875 7.628906 11.445312 7.808594 12.09375 C 7.992188 12.738281 8.582031 13.136719 9.132812 12.984375 C 9.679688 12.828125 9.972656 12.179688 9.792969 11.535156 C 9.609375 10.886719 9.015625 10.488281 8.46875 10.640625 Z M 8.46875 10.640625 " fill-opacity="1" fill-rule="nonzero"/></g></g></g></g><g clip-path="url(#e94c176622)"><g clip-path="url(#037725720c)"><g clip-path="url(#b7dc2a36fe)"><g clip-path="url(#55cb848f21)"><path fill="#fffef4" d="M 11.929688 9.800781 C 11.8125 9.835938 11.710938 9.890625 11.621094 9.976562 C 11.527344 10.058594 11.457031 10.160156 11.402344 10.28125 C 11.347656 10.402344 11.320312 10.53125 11.3125 10.671875 C 11.304688 10.8125 11.320312 10.953125 11.359375 11.089844 C 11.398438 11.230469 11.457031 11.359375 11.535156 11.472656 C 11.617188 11.589844 11.710938 11.683594 11.820312 11.757812 C 11.929688 11.835938 12.042969 11.882812 12.164062 11.90625 C 12.285156 11.929688 12.402344 11.925781 12.519531 11.894531 C 12.632812 11.859375 12.734375 11.804688 12.828125 11.71875 C 12.917969 11.636719 12.988281 11.535156 13.042969 11.414062 C 13.097656 11.292969 13.128906 11.164062 13.136719 11.023438 C 13.144531 10.882812 13.128906 10.742188 13.089844 10.605469 C 13.046875 10.464844 12.988281 10.335938 12.910156 10.222656 C 12.828125 10.105469 12.734375 10.011719 12.625 9.9375 C 12.515625 9.859375 12.402344 9.8125 12.28125 9.789062 C 12.160156 9.765625 12.042969 9.769531 11.929688 9.800781 Z M 11.929688 9.800781 " fill-opacity="1" fill-rule="nonzero"/></g></g></g></g><g clip-path="url(#b819f64e54)"><g clip-path="url(#f4d80312ad)"><g clip-path="url(#d6ffd7f544)"><g clip-path="url(#ba96c7e7b8)"><path fill="#472b29" d="M 11.964844 9.929688 C 12.371094 9.8125 12.816406 10.132812 12.960938 10.640625 C 13.105469 11.144531 12.890625 11.652344 12.480469 11.765625 C 12.074219 11.882812 11.628906 11.5625 11.484375 11.054688 C 11.339844 10.550781 11.554688 10.042969 11.964844 9.929688 M 11.890625 9.675781 C 11.34375 9.832031 11.050781 10.480469 11.230469 11.125 C 11.414062 11.773438 12.007812 12.171875 12.554688 12.019531 C 13.101562 11.863281 13.394531 11.214844 13.214844 10.566406 C 13.03125 9.921875 12.441406 9.523438 11.890625 9.675781 Z M 11.890625 9.675781 " fill-opacity="1" fill-rule="nonzero"/></g></g></g></g><g clip-path="url(#0fc281319f)"><g clip-path="url(#846a3e2de5)"><g clip-path="url(#7d1520e71a)"><path fill="#ffffff" d="M 25.0625 1.804688 C 25.21875 1.542969 25.539062 1.429688 25.824219 1.539062 L 30.429688 3.253906 C 30.601562 3.320312 30.738281 3.457031 30.800781 3.632812 L 32.890625 9.570312 C 32.949219 9.746094 32.929688 9.941406 32.835938 10.101562 L 30.316406 14.320312 C 30.160156 14.582031 29.84375 14.695312 29.558594 14.589844 L 24.953125 12.871094 C 24.777344 12.808594 24.640625 12.667969 24.578125 12.492188 L 22.492188 6.554688 C 22.429688 6.378906 22.449219 6.183594 22.542969 6.023438 Z M 26.683594 3.921875 C 26.386719 3.792969 26.035156 3.917969 25.882812 4.203125 L 24.675781 6.464844 C 24.59375 6.617188 24.578125 6.800781 24.636719 6.96875 L 25.992188 10.828125 C 26.050781 10.992188 26.179688 11.128906 26.339844 11.195312 L 28.695312 12.203125 C 28.996094 12.332031 29.34375 12.210938 29.496094 11.921875 L 30.703125 9.664062 C 30.789062 9.507812 30.800781 9.324219 30.742188 9.15625 L 29.386719 5.300781 C 29.328125 5.132812 29.203125 5 29.039062 4.929688 Z M 27.089844 10.148438 L 25.917969 6.8125 L 26.722656 5.308594 L 28.292969 5.976562 L 29.464844 9.3125 L 28.660156 10.820312 Z M 27.089844 10.148438 " fill-opacity="1" fill-rule="evenodd"/></g></g></g><g clip-path="url(#a6fc18e71b)"><g clip-path="url(#8a38cc46e2)"><g clip-path="url(#3760a306de)"><g clip-path="url(#a661f42664)"><path fill="#ffffff" d="M 12.675781 29.304688 L 12.5 29.347656 C 12.324219 29.390625 12.121094 29.316406 11.972656 29.226562 L 11.410156 28.6875 C 10.945312 28.308594 10.34375 28.144531 9.816406 28.269531 L 6.816406 28.992188 C 6.230469 29.132812 5.769531 29.550781 5.589844 30.085938 L 5.214844 30.851562 C 5.136719 31.054688 4.976562 31.15625 4.800781 31.199219 L 4.621094 31.238281 C 3.035156 31.621094 2.050781 33.210938 2.425781 34.777344 L 3.824219 40.585938 C 4.199219 42.15625 5.800781 43.121094 7.386719 42.738281 L 15.382812 40.816406 C 16.96875 40.4375 17.957031 38.847656 17.578125 37.28125 L 16.183594 31.472656 C 15.863281 29.890625 14.261719 28.921875 12.675781 29.304688 Z M 16.460938 37.546875 C 16.683594 38.476562 16.101562 39.417969 15.160156 39.640625 L 7.167969 41.5625 C 6.226562 41.789062 5.28125 41.21875 5.058594 40.289062 L 3.660156 34.480469 C 3.4375 33.550781 4.019531 32.613281 4.960938 32.386719 L 5.136719 32.34375 C 5.726562 32.203125 6.183594 31.785156 6.367188 31.25 L 6.625 30.511719 C 6.699219 30.3125 6.863281 30.210938 7.039062 30.167969 L 10.035156 29.445312 C 10.214844 29.40625 10.417969 29.476562 10.5625 29.566406 L 11.128906 30.105469 C 11.59375 30.484375 12.191406 30.648438 12.71875 30.523438 L 12.898438 30.480469 C 13.835938 30.253906 14.78125 30.824219 15.007812 31.753906 L 16.402344 37.5625 Z M 16.460938 37.546875 " fill-opacity="1" fill-rule="nonzero"/></g></g></g></g><g clip-path="url(#c66c85f1b1)"><g clip-path="url(#57eb21ec9a)"><g clip-path="url(#7985a5168a)"><g clip-path="url(#54baafee44)"><path fill="#ffffff" d="M 9.121094 32.371094 C 7.242188 32.824219 6.136719 34.6875 6.566406 36.484375 C 7.015625 38.34375 8.890625 39.429688 10.714844 38.992188 C 12.535156 38.554688 13.703125 36.675781 13.269531 34.875 C 12.894531 33.058594 11.003906 31.917969 9.121094 32.371094 Z M 10.464844 37.945312 C 9.230469 38.242188 7.992188 37.496094 7.699219 36.277344 C 7.40625 35.054688 8.167969 33.828125 9.402344 33.53125 C 10.636719 33.234375 11.875 33.980469 12.167969 35.203125 C 12.460938 36.421875 11.699219 37.648438 10.464844 37.945312 Z M 10.464844 37.945312 " fill-opacity="1" fill-rule="nonzero"/></g></g></g></g><g clip-path="url(#6cf7f44b9d)"><g clip-path="url(#2b83537cc4)"><g clip-path="url(#296aa0648f)"><g clip-path="url(#88ae34b135)"><path fill="#ffffff" d="M 26.589844 21.914062 C 26.308594 21.992188 26.015625 21.824219 25.9375 21.550781 C 25.863281 21.273438 26.035156 20.980469 26.316406 20.90625 C 26.34375 20.898438 26.570312 20.835938 26.597656 20.832031 C 26.875 20.753906 27.171875 20.921875 27.246094 21.195312 C 27.320312 21.472656 27.148438 21.765625 26.871094 21.839844 C 26.84375 21.847656 26.617188 21.910156 26.589844 21.914062 Z M 31.636719 24.441406 C 31.265625 24 30.976562 23.488281 30.78125 22.949219 C 30.675781 22.976562 29.855469 23.199219 29.75 23.226562 C 29.472656 23.304688 29.175781 23.136719 29.101562 22.863281 C 29.027344 22.585938 29.199219 22.292969 29.476562 22.21875 C 29.628906 22.175781 30.824219 21.855469 30.972656 21.8125 C 31.253906 21.738281 31.425781 21.445312 31.351562 21.167969 C 31.273438 20.894531 30.980469 20.726562 30.699219 20.804688 C 30.460938 20.867188 28.554688 21.382812 28.316406 21.449219 C 28.039062 21.523438 27.742188 21.359375 27.667969 21.082031 C 27.59375 20.804688 27.765625 20.515625 28.042969 20.4375 C 28.375 20.347656 31.027344 19.628906 31.359375 19.539062 C 31.640625 19.464844 31.8125 19.171875 31.738281 18.894531 C 31.664062 18.621094 31.367188 18.453125 31.085938 18.53125 C 30.949219 18.566406 29.867188 18.859375 29.730469 18.898438 C 29.3125 19.011719 28.851562 18.789062 28.726562 18.332031 C 28.613281 17.917969 28.84375 17.460938 29.308594 17.335938 C 29.835938 17.191406 34.058594 16.050781 34.585938 15.90625 C 36.480469 15.492188 38.539062 16.066406 39.863281 17.632812 C 41.761719 19.828125 41.464844 23.160156 39.125 25.074219 C 36.867188 26.917969 33.488281 26.652344 31.636719 24.441406 Z M 37.707031 23.316406 C 39 22.25 39.183594 20.355469 38.113281 19.085938 C 37.042969 17.820312 35.121094 17.65625 33.824219 18.722656 C 32.53125 19.789062 32.347656 21.683594 33.417969 22.949219 C 34.488281 24.21875 36.410156 24.382812 37.707031 23.316406 Z M 37.859375 20.589844 C 37.808594 20.769531 37.398438 22.222656 37.347656 22.402344 C 37.324219 22.507812 37.234375 22.53125 37.1875 22.546875 C 37.003906 22.59375 35.546875 22.988281 35.363281 23.039062 C 35.269531 23.0625 35.210938 23.03125 35.152344 22.996094 C 35.015625 22.867188 33.933594 21.820312 33.796875 21.6875 C 33.726562 21.609375 33.710938 21.5625 33.734375 21.460938 C 33.785156 21.277344 34.195312 19.828125 34.246094 19.644531 C 34.265625 19.542969 34.359375 19.515625 34.40625 19.503906 C 34.589844 19.453125 36.046875 19.058594 36.230469 19.011719 C 36.308594 18.9375 36.367188 18.972656 36.441406 19.050781 C 36.710938 19.3125 37.660156 20.226562 37.796875 20.359375 C 37.867188 20.4375 37.882812 20.484375 37.859375 20.589844 Z M 37.859375 20.589844 " fill-opacity="1" fill-rule="nonzero"/></g></g></g></g></svg>