<svg xmlns="http://www.w3.org/2000/svg" xmlns:xlink="http://www.w3.org/1999/xlink" width="100" zoomAndPan="magnify" viewBox="0 0 75 89.999999" height="120" preserveAspectRatio="xMidYMid meet" version="1.0"><defs><clipPath id="23692317fc"><path d="M 24.347656 30 L 37 30 L 37 41 L 24.347656 41 Z M 24.347656 30 " clip-rule="nonzero"/></clipPath><clipPath id="dc95f0bbb8"><path d="M 55 28 L 72.792969 28 L 72.792969 69 L 55 69 Z M 55 28 " clip-rule="nonzero"/></clipPath><clipPath id="f150219179"><path d="M 24.347656 31 L 28 31 L 28 36 L 24.347656 36 Z M 24.347656 31 " clip-rule="nonzero"/></clipPath><clipPath id="b3678f8e41"><path d="M 49 12 L 72.792969 12 L 72.792969 67 L 49 67 Z M 49 12 " clip-rule="nonzero"/></clipPath><clipPath id="9a6b094227"><path d="M 16 14 L 23 14 L 23 20 L 16 20 Z M 16 14 " clip-rule="nonzero"/></clipPath><clipPath id="c68a5d7b0f"><path d="M 5.710938 6.121094 L 37.316406 -0.289062 L 42.683594 26.171875 L 11.078125 32.582031 Z M 5.710938 6.121094 " clip-rule="nonzero"/></clipPath><clipPath id="fea2699a64"><path d="M 5.710938 6.121094 L 37.316406 -0.289062 L 42.683594 26.171875 L 11.078125 32.582031 Z M 5.710938 6.121094 " clip-rule="nonzero"/></clipPath><clipPath id="5a8c185119"><path d="M 25 12 L 32 12 L 32 19 L 25 19 Z M 25 12 " clip-rule="nonzero"/></clipPath><clipPath id="f559e13cd8"><path d="M 5.710938 6.121094 L 37.316406 -0.289062 L 42.683594 26.171875 L 11.078125 32.582031 Z M 5.710938 6.121094 " clip-rule="nonzero"/></clipPath><clipPath id="4aac1e8bf3"><path d="M 5.710938 6.121094 L 37.316406 -0.289062 L 42.683594 26.171875 L 11.078125 32.582031 Z M 5.710938 6.121094 " clip-rule="nonzero"/></clipPath><clipPath id="04ac9f2a55"><path d="M 14 6 L 31 6 L 31 13 L 14 13 Z M 14 6 " clip-rule="nonzero"/></clipPath><clipPath id="e6bc474d89"><path d="M 5.710938 6.121094 L 37.316406 -0.289062 L 42.683594 26.171875 L 11.078125 32.582031 Z M 5.710938 6.121094 " clip-rule="nonzero"/></clipPath><clipPath id="022a2836da"><path d="M 5.710938 6.121094 L 37.316406 -0.289062 L 42.683594 26.171875 L 11.078125 32.582031 Z M 5.710938 6.121094 " clip-rule="nonzero"/></clipPath><clipPath id="4d6e0b7bdd"><path d="M 16 19 L 34 19 L 34 26 L 16 26 Z M 16 19 " clip-rule="nonzero"/></clipPath><clipPath id="411a370fd1"><path d="M 5.710938 6.121094 L 37.316406 -0.289062 L 42.683594 26.171875 L 11.078125 32.582031 Z M 5.710938 6.121094 " clip-rule="nonzero"/></clipPath><clipPath id="3b14345739"><path d="M 5.710938 6.121094 L 37.316406 -0.289062 L 42.683594 26.171875 L 11.078125 32.582031 Z M 5.710938 6.121094 " clip-rule="nonzero"/></clipPath><clipPath id="8bf894a4ad"><path d="M 23 2 L 40 2 L 40 28 L 23 28 Z M 23 2 " clip-rule="nonzero"/></clipPath><clipPath id="1fef0f730a"><path d="M 5.710938 6.121094 L 37.316406 -0.289062 L 42.683594 26.171875 L 11.078125 32.582031 Z M 5.710938 6.121094 " clip-rule="nonzero"/></clipPath><clipPath id="286580e881"><path d="M 5.710938 6.121094 L 37.316406 -0.289062 L 42.683594 26.171875 L 11.078125 32.582031 Z M 5.710938 6.121094 " clip-rule="nonzero"/></clipPath><clipPath id="9326dba1b6"><path d="M 9 3 L 22 3 L 22 31 L 9 31 Z M 9 3 " clip-rule="nonzero"/></clipPath><clipPath id="7aa10015d1"><path d="M 5.710938 6.121094 L 37.316406 -0.289062 L 42.683594 26.171875 L 11.078125 32.582031 Z M 5.710938 6.121094 " clip-rule="nonzero"/></clipPath><clipPath id="ba8fa644e0"><path d="M 5.710938 6.121094 L 37.316406 -0.289062 L 42.683594 26.171875 L 11.078125 32.582031 Z M 5.710938 6.121094 " clip-rule="nonzero"/></clipPath><clipPath id="885b74c142"><path d="M 12 37 L 29 37 L 29 49 L 12 49 Z M 12 37 " clip-rule="nonzero"/></clipPath><clipPath id="9018d81286"><path d="M 11.464844 40.335938 L 27.328125 35.800781 L 30.628906 47.335938 L 14.765625 51.875 Z M 11.464844 40.335938 " clip-rule="nonzero"/></clipPath><clipPath id="e7cf67f453"><path d="M 11.464844 40.335938 L 27.328125 35.800781 L 30.628906 47.335938 L 14.765625 51.875 Z M 11.464844 40.335938 " clip-rule="nonzero"/></clipPath><clipPath id="2fdb7edd41"><path d="M 11.464844 40.335938 L 27.328125 35.800781 L 30.628906 47.335938 L 14.765625 51.875 Z M 11.464844 40.335938 " clip-rule="nonzero"/></clipPath><clipPath id="0e8a48ba87"><path d="M 1 25.128906 L 14 25.128906 L 14 44.628906 L 1 44.628906 Z M 1 25.128906 " clip-rule="nonzero"/></clipPath><clipPath id="71b5a300f1"><path d="M 8.027344 26.148438 C 7.71875 25.894531 7.273438 25.894531 6.964844 26.148438 L 2 30.285156 C 1.8125 30.445312 1.703125 30.675781 1.703125 30.921875 L 1.703125 39.199219 C 1.703125 39.445312 1.8125 39.675781 2 39.835938 L 6.964844 43.972656 C 7.273438 44.230469 7.71875 44.230469 8.027344 43.972656 L 12.992188 39.835938 C 13.179688 39.675781 13.289062 39.445312 13.289062 39.199219 L 13.289062 30.921875 C 13.289062 30.675781 13.179688 30.445312 12.992188 30.285156 Z M 3.359375 38.8125 L 3.359375 31.308594 L 7.496094 27.863281 L 11.632812 31.308594 L 11.632812 38.8125 L 7.496094 42.257812 Z M 10.539062 31.761719 L 8.054688 29.484375 C 7.738281 29.195312 7.253906 29.195312 6.9375 29.484375 L 4.453125 31.761719 C 4.28125 31.917969 4.1875 32.140625 4.1875 32.371094 L 4.1875 37.75 C 4.1875 37.980469 4.28125 38.203125 4.453125 38.359375 L 6.9375 40.636719 C 7.253906 40.925781 7.738281 40.925781 8.054688 40.636719 L 10.539062 38.359375 C 10.710938 38.203125 10.808594 37.980469 10.808594 37.75 L 10.808594 32.371094 C 10.808594 32.140625 10.710938 31.917969 10.539062 31.761719 Z M 5.839844 37.386719 L 5.839844 32.734375 L 7.496094 31.21875 L 9.152344 32.734375 L 9.152344 37.386719 L 7.496094 38.902344 Z M 5.839844 37.386719 " clip-rule="evenodd"/></clipPath><linearGradient x1="12" gradientTransform="matrix(0.827637, 0, 0, 0.827637, -2.435535, 25.128939)" y1="0.922743" x2="12" gradientUnits="userSpaceOnUse" y2="23.077301" id="b376e2ecda"><stop stop-opacity="1" stop-color="rgb(85.099792%, 85.099792%, 85.099792%)" offset="0"/><stop stop-opacity="1" stop-color="rgb(85.189819%, 85.189819%, 85.189819%)" offset="0.015625"/><stop stop-opacity="1" stop-color="rgb(85.398865%, 85.398865%, 85.398865%)" offset="0.03125"/><stop stop-opacity="1" stop-color="rgb(85.632324%, 85.632324%, 85.632324%)" offset="0.046875"/><stop stop-opacity="1" stop-color="rgb(85.86731%, 85.86731%, 85.86731%)" offset="0.0625"/><stop stop-opacity="1" stop-color="rgb(86.102295%, 86.102295%, 86.102295%)" offset="0.078125"/><stop stop-opacity="1" stop-color="rgb(86.335754%, 86.335754%, 86.335754%)" offset="0.09375"/><stop stop-opacity="1" stop-color="rgb(86.57074%, 86.57074%, 86.57074%)" offset="0.109375"/><stop stop-opacity="1" stop-color="rgb(86.805725%, 86.805725%, 86.805725%)" offset="0.125"/><stop stop-opacity="1" stop-color="rgb(87.039185%, 87.039185%, 87.039185%)" offset="0.140625"/><stop stop-opacity="1" stop-color="rgb(87.27417%, 87.27417%, 87.27417%)" offset="0.15625"/><stop stop-opacity="1" stop-color="rgb(87.507629%, 87.507629%, 87.507629%)" offset="0.171875"/><stop stop-opacity="1" stop-color="rgb(87.742615%, 87.742615%, 87.742615%)" offset="0.1875"/><stop stop-opacity="1" stop-color="rgb(87.9776%, 87.9776%, 87.9776%)" offset="0.203125"/><stop stop-opacity="1" stop-color="rgb(88.21106%, 88.21106%, 88.21106%)" offset="0.21875"/><stop stop-opacity="1" stop-color="rgb(88.446045%, 88.446045%, 88.446045%)" offset="0.234375"/><stop stop-opacity="1" stop-color="rgb(88.68103%, 88.68103%, 88.68103%)" offset="0.25"/><stop stop-opacity="1" stop-color="rgb(88.91449%, 88.91449%, 88.91449%)" offset="0.265625"/><stop stop-opacity="1" stop-color="rgb(89.149475%, 89.149475%, 89.149475%)" offset="0.28125"/><stop stop-opacity="1" stop-color="rgb(89.38446%, 89.38446%, 89.38446%)" offset="0.296875"/><stop stop-opacity="1" stop-color="rgb(89.61792%, 89.61792%, 89.61792%)" offset="0.3125"/><stop stop-opacity="1" stop-color="rgb(89.852905%, 89.852905%, 89.852905%)" offset="0.328125"/><stop stop-opacity="1" stop-color="rgb(90.087891%, 90.087891%, 90.087891%)" offset="0.34375"/><stop stop-opacity="1" stop-color="rgb(90.32135%, 90.32135%, 90.32135%)" offset="0.359375"/><stop stop-opacity="1" stop-color="rgb(90.556335%, 90.556335%, 90.556335%)" offset="0.375"/><stop stop-opacity="1" stop-color="rgb(90.791321%, 90.791321%, 90.791321%)" offset="0.390625"/><stop stop-opacity="1" stop-color="rgb(91.02478%, 91.02478%, 91.02478%)" offset="0.40625"/><stop stop-opacity="1" stop-color="rgb(91.259766%, 91.259766%, 91.259766%)" offset="0.421875"/><stop stop-opacity="1" stop-color="rgb(91.493225%, 91.493225%, 91.493225%)" offset="0.4375"/><stop stop-opacity="1" stop-color="rgb(91.72821%, 91.72821%, 91.72821%)" offset="0.453125"/><stop stop-opacity="1" stop-color="rgb(91.963196%, 91.963196%, 91.963196%)" offset="0.46875"/><stop stop-opacity="1" stop-color="rgb(92.196655%, 92.196655%, 92.196655%)" offset="0.484375"/><stop stop-opacity="1" stop-color="rgb(92.431641%, 92.431641%, 92.431641%)" offset="0.5"/><stop stop-opacity="1" stop-color="rgb(92.666626%, 92.666626%, 92.666626%)" offset="0.515625"/><stop stop-opacity="1" stop-color="rgb(92.900085%, 92.900085%, 92.900085%)" offset="0.53125"/><stop stop-opacity="1" stop-color="rgb(93.135071%, 93.135071%, 93.135071%)" offset="0.546875"/><stop stop-opacity="1" stop-color="rgb(93.370056%, 93.370056%, 93.370056%)" offset="0.5625"/><stop stop-opacity="1" stop-color="rgb(93.603516%, 93.603516%, 93.603516%)" offset="0.578125"/><stop stop-opacity="1" stop-color="rgb(93.838501%, 93.838501%, 93.838501%)" offset="0.59375"/><stop stop-opacity="1" stop-color="rgb(94.073486%, 94.073486%, 94.073486%)" offset="0.609375"/><stop stop-opacity="1" stop-color="rgb(94.306946%, 94.306946%, 94.306946%)" offset="0.625"/><stop stop-opacity="1" stop-color="rgb(94.541931%, 94.541931%, 94.541931%)" offset="0.640625"/><stop stop-opacity="1" stop-color="rgb(94.776917%, 94.776917%, 94.776917%)" offset="0.65625"/><stop stop-opacity="1" stop-color="rgb(95.010376%, 95.010376%, 95.010376%)" offset="0.671875"/><stop stop-opacity="1" stop-color="rgb(95.245361%, 95.245361%, 95.245361%)" offset="0.6875"/><stop stop-opacity="1" stop-color="rgb(95.480347%, 95.480347%, 95.480347%)" offset="0.703125"/><stop stop-opacity="1" stop-color="rgb(95.713806%, 95.713806%, 95.713806%)" offset="0.71875"/><stop stop-opacity="1" stop-color="rgb(95.948792%, 95.948792%, 95.948792%)" offset="0.734375"/><stop stop-opacity="1" stop-color="rgb(96.182251%, 96.182251%, 96.182251%)" offset="0.75"/><stop stop-opacity="1" stop-color="rgb(96.417236%, 96.417236%, 96.417236%)" offset="0.765625"/><stop stop-opacity="1" stop-color="rgb(96.652222%, 96.652222%, 96.652222%)" offset="0.78125"/><stop stop-opacity="1" stop-color="rgb(96.885681%, 96.885681%, 96.885681%)" offset="0.796875"/><stop stop-opacity="1" stop-color="rgb(97.120667%, 97.120667%, 97.120667%)" offset="0.8125"/><stop stop-opacity="1" stop-color="rgb(97.355652%, 97.355652%, 97.355652%)" offset="0.828125"/><stop stop-opacity="1" stop-color="rgb(97.589111%, 97.589111%, 97.589111%)" offset="0.84375"/><stop stop-opacity="1" stop-color="rgb(97.824097%, 97.824097%, 97.824097%)" offset="0.859375"/><stop stop-opacity="1" stop-color="rgb(98.059082%, 98.059082%, 98.059082%)" offset="0.875"/><stop stop-opacity="1" stop-color="rgb(98.292542%, 98.292542%, 98.292542%)" offset="0.890625"/><stop stop-opacity="1" stop-color="rgb(98.527527%, 98.527527%, 98.527527%)" offset="0.90625"/><stop stop-opacity="1" stop-color="rgb(98.762512%, 98.762512%, 98.762512%)" offset="0.921875"/><stop stop-opacity="1" stop-color="rgb(98.995972%, 98.995972%, 98.995972%)" offset="0.9375"/><stop stop-opacity="1" stop-color="rgb(99.230957%, 99.230957%, 99.230957%)" offset="0.953125"/><stop stop-opacity="1" stop-color="rgb(99.465942%, 99.465942%, 99.465942%)" offset="0.96875"/><stop stop-opacity="1" stop-color="rgb(99.699402%, 99.699402%, 99.699402%)" offset="0.984375"/><stop stop-opacity="1" stop-color="rgb(99.908447%, 99.908447%, 99.908447%)" offset="1"/></linearGradient></defs><path fill="#6d4e4d" d="M 57.933594 11.664062 C 57.933594 11.664062 56.671875 9.796875 54.394531 9.914062 C 52.117188 10.027344 49.882812 10.953125 48.894531 11.734375 C 48.460938 11.773438 48.085938 11.941406 47.765625 12.234375 C 47.445312 12.53125 47.25 12.894531 47.171875 13.324219 C 46.859375 14.871094 47.472656 15.652344 47.460938 16.054688 C 47.445312 16.460938 47.289062 18.933594 48.320312 18.570312 C 48.320312 18.570312 59.125 20.710938 59.652344 19.855469 C 60.183594 19.003906 60.65625 17.199219 60.726562 16.359375 C 60.800781 15.519531 60.640625 12.355469 58.179688 12.039062 Z M 57.933594 11.664062 " fill-opacity="1" fill-rule="nonzero"/><g clip-path="url(#23692317fc)"><path fill="#f4c5ae" d="M 36.082031 37.445312 C 36.082031 37.445312 34.878906 33.964844 34.5625 33.398438 C 34.25 32.835938 33.632812 32.375 33.085938 32.128906 C 32.542969 31.882812 31.023438 31.332031 30.378906 30.941406 C 29.734375 30.550781 29.074219 30.507812 29.132812 31.058594 C 29.191406 31.609375 30.796875 32.546875 30.796875 32.546875 C 30.796875 32.546875 27.613281 32.589844 27.425781 32.5625 C 27.242188 32.53125 26.539062 31.449219 26.152344 31.492188 C 25.765625 31.535156 25.652344 31.996094 25.867188 32.316406 C 25.867188 32.316406 25.292969 31.5625 24.964844 31.664062 C 24.632812 31.765625 24.53125 31.910156 24.691406 32.34375 C 24.847656 32.777344 26.253906 35.222656 26.640625 35.292969 C 26.640625 35.292969 27.296875 35.582031 27.714844 35.148438 C 27.714844 35.148438 27.929688 35.769531 29.449219 35.65625 C 30.96875 35.539062 31.410156 35.898438 31.570312 36.234375 C 31.726562 36.566406 33 40.191406 33 40.191406 C 33 40.191406 35.625 38.589844 36.082031 37.445312 Z M 36.082031 37.445312 " fill-opacity="1" fill-rule="nonzero"/></g><path fill="#f4c5ae" d="M 59.296875 28.082031 C 59.296875 28.082031 57.976562 27.460938 57.777344 26.910156 C 57.574219 26.359375 57.574219 24.164062 57.574219 24.164062 C 57.574219 24.164062 57.675781 22.820312 57.921875 22.648438 C 58.164062 22.472656 59.082031 22.457031 59.625 21.332031 C 60.167969 20.203125 59.925781 19.410156 59.496094 19.121094 C 59.066406 18.832031 58.78125 18.789062 58.277344 19.035156 C 57.777344 19.277344 57.835938 19.378906 57.835938 19.378906 C 57.835938 19.378906 56.316406 17.777344 55.886719 16.230469 C 55.457031 14.683594 54.023438 13.84375 53.5625 14.003906 C 53.105469 14.164062 51.988281 14.710938 51.199219 14.625 C 50.410156 14.539062 50.339844 14.582031 50.339844 14.582031 C 50.117188 14.773438 49.855469 14.882812 49.566406 14.914062 C 49.566406 14.914062 48.664062 15.40625 48.460938 16.011719 C 48.160156 16.851562 48.113281 17.703125 48.320312 18.570312 C 48.496094 19.429688 48.589844 20.296875 48.605469 21.171875 C 48.621094 21.75 48.648438 23.355469 49.410156 24.394531 C 50.167969 25.4375 50.753906 26.246094 51.527344 26.460938 C 51.527344 26.460938 51.601562 27.183594 51.300781 27.460938 C 51 27.734375 50.398438 27.75 50.398438 27.75 C 50.398438 27.75 50.109375 29.46875 50.28125 29.828125 C 50.453125 30.191406 51.085938 32.054688 53.808594 31.898438 C 56.53125 31.738281 58.953125 29.351562 58.953125 29.351562 Z M 59.296875 28.082031 " fill-opacity="1" fill-rule="nonzero"/><path fill="#d9d9e6" d="M 38.5625 88.148438 C 38.691406 85.863281 40.953125 77.683594 40.941406 77.65625 C 40.925781 77.625 43.734375 65.441406 43.734375 65.441406 C 43.734375 65.441406 44.765625 62.390625 45.222656 61.988281 C 45.222656 61.988281 45.425781 61.078125 46.199219 61.164062 C 46.972656 61.25 48.808594 62.550781 51.457031 62.636719 C 54.109375 62.726562 57.390625 62.464844 58.824219 61.902344 C 60.253906 61.335938 65.070312 60.28125 66 64.90625 C 66 64.90625 66.703125 66.917969 66.300781 69.128906 C 66.300781 69.128906 64.839844 81.757812 62.648438 86.730469 C 62.648438 86.730469 61.558594 98.65625 61.03125 100.535156 C 61.03125 100.535156 65.6875 106.460938 65.785156 106.851562 C 65.886719 107.238281 65.257812 109.753906 62.535156 111.632812 C 62.535156 111.632812 60.355469 113.121094 59.511719 112.875 C 59.511719 112.875 59.394531 114.292969 59.324219 114.523438 C 59.253906 114.753906 58.664062 115.03125 57.488281 115.234375 C 56.132812 115.46875 54.777344 115.464844 53.421875 115.21875 C 51.972656 114.929688 51.6875 114.609375 51.671875 114.523438 C 51.65625 114.4375 51.773438 104.984375 51.773438 104.984375 C 51.773438 104.984375 43.5625 96.242188 42.574219 95.273438 C 41.585938 94.304688 38.417969 90.429688 38.5625 88.148438 Z M 50.3125 87.699219 C 50.769531 88.496094 52.53125 90.632812 52.53125 90.632812 C 52.53125 90.632812 52.777344 86.601562 52.804688 86.226562 L 53.851562 71.875 C 53.851562 71.875 50.796875 81.949219 50.339844 84.144531 C 49.882812 86.339844 49.839844 86.90625 50.3125 87.699219 Z M 50.3125 87.699219 " fill-opacity="1" fill-rule="nonzero"/><path fill="#f4c5ae" d="M 64.039062 66.773438 C 64.039062 66.773438 61.03125 66.367188 59.382812 64.316406 C 59.382812 64.316406 59.566406 66.148438 61.589844 67.550781 C 63.609375 68.953125 63.578125 68.476562 63.578125 68.476562 C 63.578125 68.476562 64.152344 67.335938 64.039062 66.773438 Z M 64.039062 66.773438 " fill-opacity="1" fill-rule="nonzero"/><path fill="#f4d9b3" d="M 59.039062 29.105469 C 59.039062 29.105469 57.847656 31.390625 54.09375 31.898438 C 54.09375 31.898438 50.925781 32.375 50.210938 29.136719 C 50.210938 29.136719 46.570312 32.460938 46.515625 32.488281 C 46.457031 32.519531 47.832031 46.898438 47.53125 49.09375 C 47.230469 51.292969 47.257812 61.554688 47.257812 61.554688 C 47.257812 61.554688 49.882812 63.503906 56.300781 62.320312 C 62.71875 61.136719 61.703125 60.035156 61.703125 60.035156 C 61.703125 60.035156 60.742188 45.308594 61.128906 43.371094 C 61.515625 41.4375 62.277344 30.625 62.089844 29.988281 C 61.902344 29.351562 59.039062 29.105469 59.039062 29.105469 Z M 59.039062 29.105469 " fill-opacity="1" fill-rule="nonzero"/><g clip-path="url(#dc95f0bbb8)"><path fill="#9ba6e1" d="M 68.25 61.714844 C 68.394531 61.65625 69.828125 66.582031 69.699219 67.003906 C 69.570312 67.421875 68.652344 68.796875 66.316406 68.867188 C 66.316406 68.867188 66.875 66.597656 66 65.183594 C 66 65.183594 64.984375 66.757812 64.769531 66.816406 C 64.554688 66.871094 62.289062 66.699219 60.929688 65.585938 C 59.566406 64.472656 59.324219 64.199219 59.324219 64.199219 L 59.46875 63.1875 C 59.46875 63.1875 57.976562 64.011719 57.316406 64.777344 C 56.660156 65.542969 55.871094 66.25 55.757812 65.195312 C 55.640625 64.140625 55.898438 62.148438 55.898438 62.148438 C 55.898438 62.148438 55.339844 48.039062 55.382812 45.726562 C 55.425781 43.414062 58.121094 32.214844 58.121094 32.214844 C 58.121094 32.214844 59.082031 28.109375 59.296875 28.082031 C 59.511719 28.050781 66.214844 31.203125 66.214844 31.203125 C 66.214844 31.203125 68.109375 31.96875 69.054688 35.335938 C 70 38.703125 71.101562 47.40625 71.347656 48.5625 C 71.589844 49.71875 72.421875 52.722656 72.277344 54.023438 C 72.132812 55.324219 71.832031 56.265625 70.199219 58.792969 C 68.566406 61.324219 68.25 61.714844 68.25 61.714844 Z M 68.25 61.714844 " fill-opacity="1" fill-rule="nonzero"/></g><path fill="#9ba6e1" d="M 50.398438 27.75 C 50.398438 27.75 47.902344 28.671875 46.570312 29.0625 C 45.238281 29.453125 42.832031 30.480469 42.085938 33.183594 C 41.339844 35.886719 39.507812 43.371094 39.507812 43.371094 L 37.214844 37.476562 C 37.214844 37.476562 36.84375 36.347656 36.46875 36.753906 C 36.097656 37.15625 35.738281 38.328125 34.5625 39.253906 C 33.386719 40.179688 32.441406 40.078125 32.328125 40.523438 C 32.214844 40.972656 32.585938 41.679688 32.585938 41.679688 C 32.585938 41.679688 33.386719 43.316406 33.601562 43.949219 C 33.820312 44.585938 35.523438 49.269531 35.722656 49.660156 C 35.925781 50.050781 37 53.863281 40.136719 53.574219 C 43.277344 53.285156 44.421875 49.949219 44.421875 49.949219 L 45.4375 46.828125 C 45.4375 46.828125 45.523438 50.238281 45.453125 50.671875 C 45.382812 51.105469 43.621094 58.921875 43.621094 58.921875 C 43.621094 58.921875 42.429688 63.867188 42.359375 64.503906 C 42.285156 65.136719 42.300781 65.226562 42.585938 65.28125 C 42.875 65.339844 46.644531 65.542969 47.042969 65.425781 C 47.445312 65.3125 48.363281 65.472656 48.605469 64.414062 C 48.851562 63.359375 49.292969 57.21875 49.292969 57.21875 C 49.292969 57.21875 49.480469 47.042969 49.4375 46.132812 C 49.394531 45.222656 49.808594 33.386719 49.925781 32.085938 C 50.109375 29.945312 50.398438 27.75 50.398438 27.75 Z M 50.398438 27.75 " fill-opacity="1" fill-rule="nonzero"/><path fill="#000000" d="M 39.550781 43.226562 C 39.617188 43.222656 39.660156 43.191406 39.679688 43.125 C 40.453125 40.539062 41.742188 35.164062 41.757812 35.105469 C 42.328125 32.113281 43.320312 30.089844 46.484375 29.195312 C 47.503906 28.90625 48.546875 28.542969 49.394531 28.253906 C 50.238281 27.964844 50.710938 27.792969 51.054688 27.707031 C 51.398438 27.617188 51.746094 27.15625 51.65625 26.449219 C 51.648438 26.359375 51.601562 26.324219 51.515625 26.332031 C 51.429688 26.34375 51.390625 26.390625 51.398438 26.476562 C 51.472656 27.011719 51.242188 27.402344 51 27.460938 C 50.425781 27.605469 49.863281 27.785156 49.308594 27.996094 C 48.476562 28.296875 47.429688 28.660156 46.429688 28.949219 C 43.132812 29.875 42.070312 32.054688 41.511719 35.046875 C 41.5 35.089844 40.210938 40.46875 39.433594 43.054688 C 39.398438 43.144531 39.429688 43.203125 39.519531 43.226562 Z M 39.550781 43.226562 " fill-opacity="1" fill-rule="nonzero"/><path fill="#000000" d="M 56.101562 65.90625 C 56.445312 65.90625 56.929688 65.515625 57.632812 64.691406 C 58.707031 63.449219 59.480469 63.316406 59.480469 63.316406 C 59.566406 63.308594 59.605469 63.257812 59.597656 63.171875 C 59.585938 63.085938 59.539062 63.046875 59.453125 63.058594 C 59.410156 63.058594 58.578125 63.1875 57.433594 64.515625 C 56.285156 65.847656 56.144531 65.671875 56.042969 65.628906 C 55.941406 65.585938 55.84375 64.503906 55.886719 63.9375 C 56.101562 61.179688 55.898438 57.695312 55.699219 54.328125 C 55.46875 50.394531 55.253906 46.695312 55.640625 44.066406 C 56.34375 39.136719 59.394531 28.226562 59.425781 28.109375 C 59.445312 28.027344 59.417969 27.976562 59.339844 27.949219 C 59.25 27.914062 59.191406 27.945312 59.167969 28.039062 C 59.136719 28.152344 56.085938 39.078125 55.382812 44.023438 C 54.996094 46.683594 55.210938 50.394531 55.441406 54.34375 C 55.640625 57.695312 55.84375 61.179688 55.628906 63.925781 C 55.554688 64.921875 55.527344 65.703125 55.941406 65.875 Z M 56.101562 65.90625 " fill-opacity="1" fill-rule="nonzero"/><path fill="#000000" d="M 45.640625 65.628906 C 46.757812 65.628906 47.832031 65.527344 48.277344 65.210938 C 49.136719 64.617188 49.164062 60.425781 49.164062 59.890625 C 49.464844 58.085938 49.710938 50.105469 49.582031 45.859375 C 49.496094 42.882812 49.78125 32.445312 50.539062 27.820312 C 50.5625 27.734375 50.53125 27.683594 50.441406 27.675781 C 50.351562 27.65625 50.300781 27.6875 50.28125 27.777344 C 49.523438 32.417969 49.238281 42.882812 49.324219 45.871094 C 49.453125 50.105469 49.207031 58.085938 48.90625 59.863281 C 48.90625 61.136719 48.765625 64.546875 48.117188 64.980469 C 47.472656 65.414062 44.078125 65.382812 42.601562 65.136719 C 42.585938 65.125 42.558594 65.125 42.542969 65.082031 C 42.53125 65.039062 42.5 63.996094 42.847656 62.8125 C 43.347656 61.035156 43.734375 59.199219 44.105469 57.433594 C 44.40625 55.976562 44.695312 54.601562 45.039062 53.34375 C 45.710938 50.800781 45.683594 50.179688 45.554688 47.519531 C 45.539062 47.214844 45.523438 46.882812 45.511719 46.507812 C 45.351562 42.96875 44.808594 35.277344 44.792969 35.207031 C 44.785156 35.117188 44.738281 35.082031 44.652344 35.089844 C 44.5625 35.089844 44.527344 35.132812 44.535156 35.222656 C 44.535156 35.308594 45.082031 42.980469 45.253906 46.523438 C 45.265625 46.882812 45.28125 47.230469 45.296875 47.535156 C 45.425781 50.222656 45.453125 50.773438 44.78125 53.273438 C 44.4375 54.542969 44.148438 55.917969 43.847656 57.378906 C 43.476562 59.140625 43.089844 60.976562 42.585938 62.738281 C 42.214844 64.070312 42.113281 64.90625 42.316406 65.226562 C 42.375 65.316406 42.453125 65.367188 42.558594 65.382812 C 43.578125 65.546875 44.605469 65.628906 45.640625 65.628906 Z M 45.640625 65.628906 " fill-opacity="1" fill-rule="nonzero"/><path fill="#000000" d="M 69.453125 53.996094 C 69.539062 53.996094 69.582031 53.953125 69.582031 53.863281 C 69.582031 53.777344 69.539062 53.734375 69.453125 53.734375 C 69.425781 53.734375 67.0625 53.734375 65.515625 52.808594 C 65.441406 52.769531 65.378906 52.78125 65.328125 52.851562 C 65.289062 52.925781 65.300781 52.984375 65.371094 53.027344 C 66.976562 53.980469 69.28125 53.996094 69.453125 53.996094 Z M 69.453125 53.996094 " fill-opacity="1" fill-rule="nonzero"/><path fill="#000000" d="M 53.507812 32.054688 L 54.109375 32.027344 C 57.332031 31.707031 58.867188 29.65625 58.9375 29.570312 C 58.988281 29.496094 58.980469 29.433594 58.910156 29.382812 C 58.835938 29.328125 58.773438 29.339844 58.722656 29.410156 C 58.707031 29.441406 57.1875 31.449219 54.078125 31.765625 C 52.675781 31.910156 51.601562 31.550781 50.925781 30.695312 C 50.613281 30.316406 50.40625 29.882812 50.3125 29.394531 C 50.300781 29.308594 50.253906 29.269531 50.167969 29.28125 C 50.089844 29.304688 50.050781 29.355469 50.054688 29.441406 C 50.066406 29.453125 50.453125 32.054688 53.507812 32.054688 Z M 53.507812 32.054688 " fill-opacity="1" fill-rule="nonzero"/><path fill="#000000" d="M 65.085938 69.070312 C 65.15625 69.0625 65.199219 69.023438 65.214844 68.953125 C 65.222656 68.917969 65.214844 68.882812 65.191406 68.851562 C 65.167969 68.824219 65.136719 68.808594 65.097656 68.808594 C 63.320312 68.5625 62.332031 67.957031 61.746094 67.523438 C 59.324219 65.730469 59.222656 63.578125 59.222656 63.5625 C 59.210938 63.488281 59.167969 63.445312 59.09375 63.433594 L 59.082031 63.433594 C 59.042969 63.433594 59.011719 63.445312 58.988281 63.476562 C 58.964844 63.507812 58.957031 63.539062 58.964844 63.578125 C 58.964844 63.664062 59.066406 65.859375 61.589844 67.738281 C 62.203125 68.1875 63.222656 68.824219 65.070312 69.070312 Z M 65.085938 69.070312 " fill-opacity="1" fill-rule="nonzero"/><path fill="#000000" d="M 58.363281 58.476562 L 58.394531 58.476562 C 60.828125 58.054688 63.121094 55.425781 63.222656 55.324219 C 63.277344 55.257812 63.273438 55.195312 63.207031 55.136719 C 63.140625 55.078125 63.078125 55.085938 63.019531 55.152344 C 63.007812 55.179688 60.699219 57.8125 58.351562 58.214844 C 58.277344 58.234375 58.238281 58.285156 58.234375 58.359375 C 58.242188 58.4375 58.285156 58.476562 58.363281 58.476562 Z M 58.363281 58.476562 " fill-opacity="1" fill-rule="nonzero"/><path fill="#000000" d="M 66.644531 69.011719 C 67.761719 68.976562 68.714844 68.558594 69.496094 67.753906 C 69.683594 67.550781 69.886719 67.25 69.828125 66.988281 C 69.449219 65.1875 68.960938 63.414062 68.367188 61.667969 C 68.347656 61.574219 68.296875 61.546875 68.207031 61.582031 C 68.128906 61.613281 68.097656 61.671875 68.121094 61.757812 C 68.714844 63.484375 69.203125 65.242188 69.582031 67.03125 C 69.597656 67.160156 69.496094 67.363281 69.296875 67.582031 C 68.695312 68.246094 67.464844 68.867188 66.34375 68.738281 C 66.257812 68.726562 66.203125 68.765625 66.1875 68.851562 C 66.1875 68.933594 66.222656 68.980469 66.300781 68.996094 Z M 66.644531 69.011719 " fill-opacity="1" fill-rule="nonzero"/><path fill="#000000" d="M 52.789062 62.871094 C 53.8125 62.875 54.824219 62.785156 55.828125 62.59375 C 55.90625 62.578125 55.9375 62.53125 55.929688 62.449219 C 55.910156 62.359375 55.859375 62.328125 55.769531 62.347656 C 55.726562 62.347656 52.03125 63.085938 49.136719 62.058594 C 49.054688 62.035156 48.996094 62.066406 48.964844 62.148438 C 48.941406 62.226562 48.96875 62.28125 49.050781 62.304688 C 50.269531 62.738281 51.613281 62.871094 52.789062 62.871094 Z M 52.789062 62.871094 " fill-opacity="1" fill-rule="nonzero"/><path fill="#000000" d="M 55.140625 60.527344 C 55.203125 60.527344 55.246094 60.5 55.269531 60.441406 C 55.292969 60.355469 55.261719 60.300781 55.183594 60.269531 C 55.140625 60.253906 50.828125 58.792969 49.996094 56.308594 C 49.964844 56.234375 49.914062 56.210938 49.839844 56.234375 C 49.742188 56.253906 49.714844 56.304688 49.753906 56.394531 C 50.125 57.492188 51.140625 58.519531 52.777344 59.457031 C 53.523438 59.871094 54.296875 60.230469 55.097656 60.527344 Z M 55.140625 60.527344 " fill-opacity="1" fill-rule="nonzero"/><path fill="#000000" d="M 63.136719 36.089844 C 63.207031 36.089844 63.25 36.054688 63.265625 35.988281 C 63.609375 34.324219 65.226562 32.691406 65.484375 32.621094 C 65.582031 32.601562 65.609375 32.550781 65.570312 32.460938 C 65.546875 32.390625 65.5 32.363281 65.429688 32.375 C 65 32.476562 63.351562 34.253906 63.007812 35.945312 C 62.996094 36.023438 63.03125 36.070312 63.105469 36.089844 Z M 63.136719 36.089844 " fill-opacity="1" fill-rule="nonzero"/><path fill="#000000" d="M 39.910156 53.808594 C 41.199219 53.808594 42.515625 52.984375 43.820312 51.335938 C 44.382812 50.621094 44.757812 49.816406 44.953125 48.921875 L 45.496094 47.144531 C 45.519531 47.0625 45.492188 47.003906 45.410156 46.972656 C 45.332031 46.949219 45.277344 46.976562 45.253906 47.058594 L 44.707031 48.863281 C 44.515625 49.714844 44.152344 50.488281 43.621094 51.175781 C 41.714844 53.5625 39.910156 54.140625 38.117188 52.953125 C 36.640625 51.972656 35.335938 48.371094 34.292969 45.484375 C 33.6875 43.835938 33.171875 42.390625 32.699219 41.609375 C 32.429688 41.175781 32.328125 40.902344 32.386719 40.726562 C 32.441406 40.554688 32.644531 40.480469 32.929688 40.351562 C 33.175781 40.25 33.410156 40.128906 33.632812 39.992188 L 33.949219 39.789062 C 34.636719 39.367188 35.335938 38.933594 36.3125 37.171875 C 36.496094 36.839844 36.582031 36.796875 36.625 36.8125 C 36.667969 36.824219 37.199219 37.75 37.644531 38.933594 C 37.84375 39.46875 38.074219 40.078125 38.359375 40.785156 C 40.039062 44.949219 41.285156 47.722656 41.296875 47.75 C 41.332031 47.84375 41.386719 47.863281 41.46875 47.808594 C 41.554688 47.777344 41.578125 47.71875 41.542969 47.636719 C 41.527344 47.621094 40.28125 44.847656 38.605469 40.683594 C 38.316406 39.992188 38.089844 39.382812 37.886719 38.835938 C 37.273438 37.230469 37.015625 36.566406 36.640625 36.550781 C 36.269531 36.535156 36.226562 36.78125 36.082031 37.042969 C 35.152344 38.746094 34.507812 39.152344 33.820312 39.558594 L 33.488281 39.773438 C 33.273438 39.898438 33.054688 40.015625 32.828125 40.121094 C 32.484375 40.265625 32.226562 40.378906 32.140625 40.65625 C 32.054688 40.929688 32.15625 41.234375 32.472656 41.753906 C 32.929688 42.503906 33.445312 43.9375 34.046875 45.582031 C 35.164062 48.660156 36.425781 52.144531 37.972656 53.171875 C 38.554688 53.578125 39.199219 53.789062 39.910156 53.808594 Z M 39.910156 53.808594 " fill-opacity="1" fill-rule="nonzero"/><path fill="#000000" d="M 61.015625 100.621094 C 61.09375 100.621094 61.136719 100.582031 61.144531 100.503906 C 61.6875 97.5 62.691406 87.726562 62.707031 87.628906 C 62.707031 87.148438 62.964844 86.253906 63.320312 85.039062 C 63.796875 83.40625 64.453125 81.167969 65.011719 78.277344 C 65.988281 73.160156 66.386719 69.460938 66.386719 69.417969 L 66.386719 69.375 C 66.386719 69.210938 66.40625 69.050781 66.445312 68.894531 C 66.574219 68.085938 66.804688 66.582031 66.117188 65.125 C 66.074219 65.058594 66.019531 65.042969 65.949219 65.078125 C 65.882812 65.113281 65.859375 65.167969 65.886719 65.238281 C 66.546875 66.613281 66.300781 68.074219 66.1875 68.851562 C 66.140625 69.039062 66.121094 69.226562 66.128906 69.417969 C 66.101562 69.71875 65.699219 73.332031 64.753906 78.21875 C 64.195312 81.109375 63.550781 83.335938 63.078125 84.953125 C 62.691406 86.253906 62.449219 87.105469 62.449219 87.613281 C 62.433594 87.699219 61.429688 97.46875 60.886719 100.460938 C 60.863281 100.550781 60.898438 100.601562 60.988281 100.621094 Z M 61.015625 100.621094 " fill-opacity="1" fill-rule="nonzero"/><path fill="#000000" d="M 59.582031 112.976562 C 59.917969 112.960938 60.242188 112.886719 60.554688 112.761719 C 62.476562 112.039062 65.902344 109.421875 65.902344 106.804688 C 65.902344 106.199219 63.078125 102.847656 58.480469 97.441406 C 54.652344 92.929688 50.3125 87.828125 50.097656 86.90625 C 49.679688 85.097656 53.851562 72.292969 53.878906 72.164062 C 53.90625 72.085938 53.878906 72.027344 53.808594 71.988281 C 53.722656 71.964844 53.667969 71.996094 53.636719 72.074219 C 53.464844 72.609375 49.410156 85.082031 49.851562 86.960938 C 50.082031 87.960938 54.066406 92.640625 58.277344 97.601562 C 61.730469 101.660156 65.644531 106.273438 65.644531 106.804688 C 65.644531 109.308594 62.320312 111.820312 60.457031 112.515625 C 59.738281 112.789062 59.382812 112.746094 59.265625 112.632812 C 59.152344 112.515625 57.546875 110.808594 55.484375 108.65625 C 50.425781 103.394531 41.984375 94.59375 41.054688 93.25 C 38.046875 88.898438 38.316406 87.929688 39.21875 84.707031 C 39.304688 84.417969 39.390625 84.117188 39.476562 83.78125 C 40.339844 80.617188 43.863281 65.558594 43.890625 65.398438 C 43.921875 65.238281 43.878906 65.269531 43.804688 65.238281 C 43.71875 65.21875 43.664062 65.25 43.648438 65.339844 C 43.605469 65.5 40.082031 80.546875 39.21875 83.726562 C 39.132812 84.042969 39.046875 84.347656 38.976562 84.636719 C 38.058594 87.859375 37.757812 88.941406 40.839844 93.410156 C 41.785156 94.765625 50.238281 103.570312 55.296875 108.828125 C 57.359375 110.984375 58.851562 112.542969 59.066406 112.804688 C 59.214844 112.9375 59.386719 112.996094 59.582031 112.976562 Z M 59.582031 112.976562 " fill-opacity="1" fill-rule="nonzero"/><path fill="#000000" d="M 52.5625 90.140625 C 52.640625 90.128906 52.683594 90.078125 52.691406 89.996094 C 52.710938 88.804688 52.792969 87.613281 52.933594 86.425781 L 53.964844 71.527344 C 53.980469 71.207031 53.777344 71.109375 53.476562 70.949219 L 53.105469 70.730469 L 50.925781 69.445312 C 50.855469 69.40625 50.800781 69.417969 50.753906 69.488281 C 50.699219 69.5625 50.714844 69.621094 50.796875 69.664062 L 52.976562 70.949219 C 53.097656 71.035156 53.226562 71.109375 53.363281 71.164062 C 53.664062 71.339844 53.722656 71.382812 53.707031 71.511719 L 52.675781 86.414062 C 52.53125 87.605469 52.449219 88.796875 52.433594 89.996094 C 52.429688 90.085938 52.472656 90.132812 52.5625 90.140625 Z M 52.5625 90.140625 " fill-opacity="1" fill-rule="nonzero"/><path fill="#000000" d="M 53.835938 71.816406 C 53.835938 71.816406 53.261719 73.984375 53.121094 74.070312 C 52.976562 74.15625 52.648438 70.976562 51.84375 70.242188 C 51.042969 69.503906 53.578125 71.265625 53.734375 71.351562 C 53.894531 71.441406 53.808594 71.714844 53.835938 71.816406 Z M 53.835938 71.816406 " fill-opacity="1" fill-rule="nonzero"/><path fill="#000000" d="M 63.535156 68.636719 C 63.582031 68.640625 63.617188 68.621094 63.636719 68.578125 C 64 68.03125 64.179688 67.429688 64.167969 66.773438 C 64.160156 66.691406 64.117188 66.648438 64.039062 66.640625 C 63.957031 66.65625 63.914062 66.703125 63.910156 66.785156 C 63.917969 67.382812 63.761719 67.933594 63.4375 68.433594 C 63.378906 68.503906 63.390625 68.5625 63.464844 68.605469 Z M 63.535156 68.636719 " fill-opacity="1" fill-rule="nonzero"/><path fill="#000000" d="M 32.914062 40.191406 L 32.957031 40.191406 C 33.039062 40.167969 33.066406 40.113281 33.042969 40.035156 C 32.988281 39.890625 31.871094 36.363281 31.554688 35.898438 C 31.238281 35.4375 30.335938 35.464844 29.089844 35.464844 L 28.488281 35.464844 C 27.742188 35.4375 27.140625 34.425781 26.582031 33.441406 L 26.480469 33.269531 C 25.824219 32.140625 25.894531 31.796875 25.953125 31.695312 C 26.007812 31.59375 26.125 31.59375 26.296875 31.609375 C 26.46875 31.621094 26.910156 32.1875 27.328125 32.851562 C 27.914062 33.777344 28.34375 34.367188 28.34375 34.382812 C 28.398438 34.453125 28.460938 34.464844 28.53125 34.410156 C 28.601562 34.359375 28.613281 34.296875 28.558594 34.222656 C 28.546875 34.222656 28.128906 33.632812 27.554688 32.707031 C 27.296875 32.316406 26.683594 31.40625 26.324219 31.347656 C 25.964844 31.289062 25.851562 31.390625 25.738281 31.550781 C 25.621094 31.707031 25.707031 32.460938 26.253906 33.398438 L 26.351562 33.574219 C 26.953125 34.613281 27.585938 35.699219 28.472656 35.726562 L 29.089844 35.726562 C 29.847656 35.726562 31.140625 35.742188 31.339844 36.042969 C 31.539062 36.347656 32.472656 39.109375 32.785156 40.121094 C 32.816406 40.167969 32.859375 40.191406 32.914062 40.191406 Z M 32.914062 40.191406 " fill-opacity="1" fill-rule="nonzero"/><path fill="#000000" d="M 33.503906 34.527344 L 33.574219 34.5 C 33.652344 34.453125 33.660156 34.394531 33.601562 34.324219 C 33.574219 34.28125 32.914062 33.355469 31.871094 33.285156 C 30.824219 33.210938 30.335938 33.617188 30.308594 33.632812 C 30.242188 33.6875 30.234375 33.75 30.292969 33.820312 C 30.351562 33.886719 30.414062 33.890625 30.480469 33.832031 C 30.480469 33.832031 30.925781 33.488281 31.839844 33.542969 C 32.757812 33.601562 33.386719 34.46875 33.386719 34.46875 C 33.414062 34.511719 33.453125 34.53125 33.503906 34.527344 Z M 33.503906 34.527344 " fill-opacity="1" fill-rule="nonzero"/><path fill="#000000" d="M 35.996094 37.230469 L 36.039062 37.230469 C 36.117188 37.203125 36.148438 37.152344 36.125 37.070312 L 35.394531 35.0625 C 35.367188 34.960938 34.550781 32.648438 33.53125 32.140625 C 33.128906 31.953125 32.714844 31.796875 32.269531 31.636719 C 31.570312 31.390625 30.839844 31.144531 30.164062 30.683594 C 29.707031 30.378906 29.332031 30.539062 29.148438 30.753906 C 29.03125 30.910156 28.984375 31.085938 29 31.277344 C 29.015625 31.46875 29.09375 31.632812 29.234375 31.765625 C 29.554688 32.039062 29.902344 32.269531 30.277344 32.460938 C 29.578125 32.488281 28.359375 32.519531 28.085938 32.488281 C 28 32.480469 27.953125 32.515625 27.945312 32.605469 C 27.933594 32.640625 27.941406 32.675781 27.964844 32.707031 C 27.988281 32.734375 28.019531 32.75 28.058594 32.75 C 28.460938 32.808594 30.710938 32.707031 30.796875 32.707031 C 30.859375 32.691406 30.902344 32.652344 30.925781 32.589844 C 30.925781 32.523438 30.894531 32.476562 30.839844 32.445312 C 30.839844 32.445312 29.90625 32.027344 29.40625 31.578125 C 29.316406 31.492188 29.265625 31.386719 29.253906 31.265625 C 29.242188 31.140625 29.273438 31.027344 29.347656 30.929688 C 29.503906 30.726562 29.75 30.726562 30.019531 30.898438 C 30.722656 31.375 31.46875 31.636719 32.183594 31.882812 C 32.613281 32.042969 33.03125 32.1875 33.417969 32.375 C 34.347656 32.835938 35.152344 35.132812 35.152344 35.148438 L 35.882812 37.15625 C 35.902344 37.210938 35.941406 37.234375 35.996094 37.230469 Z M 35.996094 37.230469 " fill-opacity="1" fill-rule="nonzero"/><g clip-path="url(#f150219179)"><path fill="#000000" d="M 27.054688 35.496094 C 27.28125 35.496094 27.492188 35.4375 27.6875 35.320312 C 27.734375 35.273438 27.742188 35.222656 27.707031 35.164062 C 27.671875 35.105469 27.621094 35.085938 27.554688 35.105469 C 27.527344 35.105469 26.953125 35.4375 26.554688 35.03125 C 26.152344 34.628906 24.617188 32.503906 24.675781 31.910156 C 24.691406 31.851562 24.707031 31.839844 24.71875 31.839844 C 24.804688 31.765625 24.898438 31.746094 25.007812 31.78125 C 25.351562 31.851562 25.679688 32.359375 25.78125 32.546875 C 25.828125 32.617188 25.890625 32.632812 25.964844 32.589844 C 26.050781 32.550781 26.066406 32.492188 26.007812 32.417969 C 25.996094 32.386719 25.578125 31.652344 25.0625 31.519531 C 24.886719 31.472656 24.726562 31.503906 24.574219 31.609375 C 24.488281 31.679688 24.4375 31.769531 24.417969 31.882812 C 24.347656 32.648438 25.921875 34.757812 26.367188 35.207031 C 26.554688 35.40625 26.785156 35.5 27.054688 35.496094 Z M 27.054688 35.496094 " fill-opacity="1" fill-rule="nonzero"/></g><path fill="#000000" d="M 46.859375 65.484375 L 44.921875 65.484375 C 43.90625 65.484375 43.71875 65.382812 43.71875 65.382812 L 43.476562 66.742188 C 43.476562 66.742188 46.414062 65.847656 46.859375 65.484375 Z M 46.859375 65.484375 " fill-opacity="1" fill-rule="nonzero"/><path fill="#000000" d="M 64.425781 52.160156 C 64.425781 52.160156 62.390625 43.863281 62.390625 41.726562 " fill-opacity="1" fill-rule="nonzero"/><path fill="#000000" d="M 64.597656 52.78125 C 64.554688 52.273438 62.933594 51.609375 62.761719 49.789062 C 62.621094 48.242188 62.890625 47.824219 62.863281 46.464844 C 62.847656 46.261719 62.734375 43.847656 62.734375 43.847656 C 62.734375 43.847656 63.78125 48.777344 63.953125 49.804688 C 64.125 50.828125 64.597656 52.78125 64.597656 52.78125 Z M 64.597656 52.78125 " fill-opacity="1" fill-rule="nonzero"/><g clip-path="url(#b3678f8e41)"><path fill="#000000" d="M 64.742188 66.945312 L 64.769531 66.945312 C 64.8125 66.945312 64.847656 66.925781 64.871094 66.886719 C 64.925781 66.800781 70.488281 58.792969 71.71875 56.609375 C 73.09375 54.183594 72.148438 51.421875 72.121094 51.308594 C 71.734375 49.863281 71.046875 45.785156 70.429688 42.203125 C 69.914062 39.125 69.425781 36.21875 69.183594 35.292969 C 68.324219 32.011719 66.777344 31.289062 65 30.453125 L 64.667969 30.292969 C 63.378906 29.671875 60.742188 28.5 59.050781 27.792969 C 58.363281 27.515625 57.976562 27.171875 57.835938 26.722656 C 57.476562 25.59375 57.761719 23.296875 57.761719 23.28125 C 57.804688 22.890625 57.992188 22.777344 58.050781 22.746094 C 58.507812 22.71875 59.351562 22.199219 59.738281 21.390625 C 60.125 20.578125 60.269531 19.597656 59.566406 19.019531 C 58.867188 18.441406 58.222656 18.890625 57.835938 19.207031 C 57.167969 18.542969 56.667969 17.765625 56.34375 16.878906 C 55.140625 13.6875 53.722656 13.800781 53.320312 13.917969 C 53.140625 13.964844 52.96875 14.03125 52.804688 14.121094 C 52.214844 14.410156 51.59375 14.527344 50.941406 14.480469 C 49.710938 14.410156 49.410156 13.035156 49.394531 12.976562 C 49.371094 12.898438 49.316406 12.863281 49.238281 12.875 C 49.15625 12.902344 49.125 12.953125 49.136719 13.035156 C 49.136719 13.050781 49.496094 14.652344 50.925781 14.742188 C 51.628906 14.796875 52.292969 14.667969 52.917969 14.351562 C 53.070312 14.277344 53.230469 14.214844 53.390625 14.164062 C 53.636719 14.089844 54.941406 13.902344 56.101562 16.980469 C 56.714844 18.601562 57.71875 19.453125 57.761719 19.480469 C 57.820312 19.535156 57.878906 19.535156 57.933594 19.480469 C 57.964844 19.453125 58.78125 18.699219 59.410156 19.222656 C 60.039062 19.742188 59.839844 20.59375 59.511719 21.289062 C 59.179688 21.980469 58.320312 22.472656 58.007812 22.488281 L 57.964844 22.488281 C 57.949219 22.488281 57.5625 22.648438 57.503906 23.253906 C 57.503906 23.339844 57.21875 25.625 57.589844 26.808594 C 57.75 27.328125 58.191406 27.734375 58.953125 28.039062 C 60.640625 28.730469 63.265625 29.917969 64.570312 30.523438 L 64.882812 30.683594 C 66.601562 31.492188 68.09375 32.199219 68.925781 35.367188 C 69.167969 36.277344 69.65625 39.167969 70.171875 42.246094 C 70.789062 45.828125 71.476562 49.90625 71.863281 51.394531 C 71.875 51.421875 72.808594 54.152344 71.488281 56.480469 C 70.316406 58.5625 65.199219 65.960938 64.699219 66.683594 C 64.238281 66.671875 61.429688 66.539062 59.425781 64.113281 C 59.109375 63.722656 61.402344 59.414062 63.796875 55.453125 C 63.796875 55.441406 63.808594 55.441406 63.808594 55.425781 C 63.90625 54.933594 63.941406 54.4375 63.910156 53.9375 C 63.902344 53.691406 63.957031 53.464844 64.078125 53.253906 C 64.199219 53.042969 64.367188 52.878906 64.582031 52.765625 C 64.644531 52.738281 64.667969 52.691406 64.65625 52.621094 C 64.582031 52 64.3125 50.742188 63.96875 49.152344 C 63.320312 46.117188 62.433594 41.96875 62.433594 39.832031 C 62.433594 39.746094 62.390625 39.703125 62.304688 39.703125 C 62.21875 39.703125 62.175781 39.746094 62.175781 39.832031 C 62.175781 42 63.0625 46.160156 63.722656 49.210938 C 64.039062 50.65625 64.3125 51.929688 64.398438 52.578125 C 64.152344 52.71875 63.964844 52.910156 63.828125 53.15625 C 63.695312 53.40625 63.636719 53.671875 63.652344 53.953125 C 63.679688 54.417969 63.652344 54.878906 63.566406 55.339844 C 62.375 57.289062 58.652344 63.59375 59.222656 64.285156 C 61.359375 66.859375 64.367188 66.945312 64.742188 66.945312 Z M 64.742188 66.945312 " fill-opacity="1" fill-rule="nonzero"/></g><path fill="#000000" d="M 52.359375 26.75 C 52.605469 26.75 52.851562 26.71875 53.089844 26.664062 C 53.550781 26.550781 55.542969 25.8125 56.359375 24.351562 C 56.386719 24.277344 56.367188 24.222656 56.300781 24.179688 C 56.226562 24.121094 56.167969 24.136719 56.128906 24.222656 C 55.414062 25.507812 53.621094 26.273438 53.035156 26.40625 C 51.816406 26.695312 51.085938 26.214844 50.355469 25.4375 C 49.632812 24.664062 49.140625 23.761719 48.878906 22.734375 C 48.792969 22.273438 48.757812 21.8125 48.765625 21.347656 C 48.777344 20.636719 48.730469 19.933594 48.621094 19.234375 C 48.59375 19.089844 48.5625 18.945312 48.519531 18.800781 C 48.433594 18.453125 48.367188 18.101562 48.320312 17.746094 C 48.074219 16.054688 49.109375 15.390625 49.152344 15.363281 C 49.21875 15.3125 49.234375 15.25 49.195312 15.175781 C 49.140625 15.113281 49.082031 15.097656 49.007812 15.132812 C 48.964844 15.160156 47.804688 15.925781 48.0625 17.777344 C 48.101562 18.144531 48.171875 18.503906 48.277344 18.859375 C 48.304688 19.003906 48.347656 19.132812 48.363281 19.277344 C 48.472656 19.964844 48.519531 20.652344 48.503906 21.347656 C 48.492188 21.832031 48.53125 22.3125 48.621094 22.792969 C 48.898438 23.863281 49.414062 24.804688 50.167969 25.609375 C 50.710938 26.214844 51.371094 26.75 52.359375 26.75 Z M 52.359375 26.75 " fill-opacity="1" fill-rule="nonzero"/><path fill="#000000" d="M 57.863281 21.042969 C 57.949219 21.042969 57.992188 21 57.992188 20.914062 C 57.992188 20.535156 58.078125 20.246094 58.25 20.089844 C 58.367188 19.984375 58.507812 19.9375 58.664062 19.945312 C 58.9375 19.972656 59.007812 20.363281 59.007812 20.363281 C 59.019531 20.449219 59.066406 20.488281 59.152344 20.480469 C 59.238281 20.460938 59.277344 20.410156 59.265625 20.320312 C 59.265625 20.304688 59.167969 19.726562 58.679688 19.683594 C 58.441406 19.664062 58.238281 19.738281 58.0625 19.902344 C 57.921875 20.046875 57.734375 20.335938 57.734375 20.914062 C 57.734375 21 57.777344 21.042969 57.863281 21.042969 Z M 57.863281 21.042969 " fill-opacity="1" fill-rule="nonzero"/><path fill="#000000" d="M 58.019531 21.75 L 58.0625 21.75 C 58.078125 21.734375 58.707031 21.535156 58.75 20.882812 C 58.796875 20.691406 58.742188 20.53125 58.59375 20.40625 C 58.363281 20.234375 58.019531 20.347656 57.976562 20.363281 C 57.898438 20.386719 57.867188 20.441406 57.890625 20.523438 C 57.921875 20.601562 57.980469 20.632812 58.0625 20.609375 C 58.191406 20.554688 58.3125 20.558594 58.4375 20.625 C 58.492188 20.652344 58.507812 20.738281 58.492188 20.855469 C 58.464844 21.332031 57.992188 21.492188 57.976562 21.503906 C 57.898438 21.53125 57.867188 21.582031 57.890625 21.664062 C 57.914062 21.722656 57.957031 21.75 58.019531 21.75 Z M 58.019531 21.75 " fill-opacity="1" fill-rule="nonzero"/><path fill="#000000" d="M 51.113281 22.574219 C 51.167969 22.574219 51.203125 22.550781 51.226562 22.503906 C 51.28125 22.417969 51.265625 22.363281 51.171875 22.328125 C 51.054688 22.269531 50.710938 22.039062 50.683594 21.835938 C 50.679688 21.765625 50.703125 21.703125 50.753906 21.648438 C 51.183594 21.203125 51.3125 20.390625 51.3125 20.363281 C 51.335938 20.273438 51.300781 20.222656 51.214844 20.203125 C 51.128906 20.195312 51.078125 20.234375 51.070312 20.320312 C 51.054688 20.335938 50.941406 21.070312 50.570312 21.460938 C 50.453125 21.570312 50.40625 21.707031 50.425781 21.867188 C 50.484375 22.242188 51 22.53125 51.054688 22.558594 Z M 51.113281 22.574219 " fill-opacity="1" fill-rule="nonzero"/><path fill="#000000" d="M 54.636719 18.3125 C 54.703125 18.316406 54.746094 18.285156 54.769531 18.222656 C 54.789062 18.144531 54.761719 18.089844 54.679688 18.066406 L 54.636719 18.035156 C 53.949219 17.6875 53.304688 17.632812 52.703125 17.890625 C 52.621094 17.917969 52.597656 17.96875 52.632812 18.050781 C 52.664062 18.136719 52.722656 18.160156 52.804688 18.121094 C 53.59375 17.804688 54.292969 18.152344 54.507812 18.265625 L 54.59375 18.3125 Z M 54.636719 18.3125 " fill-opacity="1" fill-rule="nonzero"/><path fill="#000000" d="M 49.035156 18.339844 L 49.09375 18.339844 C 49.851562 17.992188 50.324219 18.195312 50.339844 18.210938 C 50.417969 18.234375 50.476562 18.210938 50.511719 18.136719 C 50.550781 18.0625 50.53125 18.003906 50.453125 17.964844 C 50.425781 17.949219 49.851562 17.703125 48.980469 18.109375 C 48.902344 18.148438 48.882812 18.207031 48.921875 18.28125 C 48.949219 18.324219 48.988281 18.34375 49.035156 18.339844 Z M 49.035156 18.339844 " fill-opacity="1" fill-rule="nonzero"/><path fill="#000000" d="M 49.265625 15.042969 C 49.757812 15.027344 50.214844 14.890625 50.640625 14.640625 C 50.71875 14.585938 50.726562 14.523438 50.667969 14.453125 C 50.625 14.375 50.566406 14.363281 50.496094 14.421875 C 50.441406 14.453125 49.238281 15.230469 48.261719 14.421875 C 48.199219 14.363281 48.140625 14.367188 48.089844 14.4375 C 48.03125 14.503906 48.035156 14.566406 48.105469 14.625 C 48.441406 14.910156 48.828125 15.050781 49.265625 15.042969 Z M 49.265625 15.042969 " fill-opacity="1" fill-rule="nonzero"/><path fill="#000000" d="M 48.191406 18.628906 C 48.257812 18.625 48.300781 18.589844 48.320312 18.527344 C 48.332031 18.445312 48.296875 18.394531 48.21875 18.367188 L 48.175781 18.367188 C 47.558594 18.296875 47.503906 17.183594 47.558594 16.257812 C 47.574219 15.84375 47.5 15.449219 47.332031 15.074219 C 47.128906 14.566406 46.957031 14.105469 47.273438 13.222656 C 47.71875 12.007812 48.648438 11.921875 48.675781 11.921875 L 48.75 11.894531 C 48.808594 11.851562 54.769531 7.703125 58.035156 12.007812 C 58.089844 12.078125 58.152344 12.085938 58.222656 12.023438 C 58.296875 11.976562 58.308594 11.917969 58.25 11.851562 C 54.941406 7.5 49.09375 11.34375 48.632812 11.664062 C 48.433594 11.691406 47.488281 11.878906 47.03125 13.136719 C 46.6875 14.105469 46.886719 14.640625 47.085938 15.160156 C 47.289062 15.679688 47.332031 15.808594 47.300781 16.242188 C 47.214844 17.777344 47.488281 18.554688 48.148438 18.628906 Z M 48.191406 18.628906 " fill-opacity="1" fill-rule="nonzero"/><path fill="#000000" d="M 59.769531 19.554688 C 59.828125 19.554688 59.867188 19.527344 59.882812 19.46875 L 60.613281 17.398438 C 60.871094 16.664062 61.015625 14.683594 60.199219 13.265625 C 59.992188 12.894531 59.714844 12.585938 59.367188 12.339844 C 59.023438 12.097656 58.640625 11.945312 58.222656 11.878906 C 58.140625 11.878906 58.09375 11.917969 58.078125 11.996094 C 58.054688 12.082031 58.089844 12.132812 58.179688 12.140625 C 58.988281 12.265625 59.589844 12.6875 59.984375 13.410156 C 60.757812 14.742188 60.613281 16.605469 60.371094 17.3125 L 59.640625 19.378906 C 59.601562 19.46875 59.628906 19.523438 59.726562 19.539062 Z M 59.769531 19.554688 " fill-opacity="1" fill-rule="nonzero"/><path fill="#000000" d="M 58.910156 17.6875 L 59.023438 17.6875 C 59.109375 17.679688 59.148438 17.632812 59.136719 17.542969 C 59.140625 17.507812 59.125 17.476562 59.09375 17.449219 C 59.066406 17.425781 59.03125 17.417969 58.996094 17.429688 C 58.996094 17.429688 57.847656 17.53125 56.800781 16.300781 C 56.746094 16.234375 56.683594 16.230469 56.617188 16.289062 C 56.550781 16.34375 56.542969 16.40625 56.601562 16.476562 C 57.5625 17.589844 58.578125 17.6875 58.910156 17.6875 Z M 58.910156 17.6875 " fill-opacity="1" fill-rule="nonzero"/><path fill="#000000" d="M 58.191406 16.488281 C 58.269531 16.492188 58.3125 16.453125 58.320312 16.375 C 58.332031 16.285156 58.292969 16.238281 58.207031 16.230469 C 57.660156 16.109375 57.230469 15.8125 56.917969 15.347656 C 56.863281 15.269531 56.804688 15.261719 56.730469 15.320312 C 56.664062 15.363281 56.648438 15.421875 56.6875 15.492188 C 57.050781 16.027344 57.546875 16.359375 58.179688 16.488281 Z M 58.191406 16.488281 " fill-opacity="1" fill-rule="nonzero"/><path fill="#000000" d="M 53.046875 14.207031 L 53.105469 14.207031 C 53.433594 14.027344 53.699219 13.777344 53.894531 13.460938 C 54.09375 13.140625 54.195312 12.789062 54.207031 12.414062 C 54.210938 12.335938 54.171875 12.292969 54.09375 12.285156 C 54.058594 12.273438 54.023438 12.28125 53.992188 12.304688 C 53.964844 12.328125 53.949219 12.359375 53.949219 12.398438 C 53.9375 12.726562 53.847656 13.03125 53.679688 13.3125 C 53.511719 13.589844 53.289062 13.8125 53.003906 13.976562 C 52.921875 14.007812 52.898438 14.066406 52.933594 14.148438 C 52.960938 14.1875 53 14.207031 53.046875 14.207031 Z M 53.046875 14.207031 " fill-opacity="1" fill-rule="nonzero"/><path fill="#000000" d="M 54.410156 13.945312 L 54.496094 13.917969 C 55.027344 13.527344 55.082031 13.195312 55.082031 13.152344 C 55.09375 13.066406 55.054688 13.015625 54.96875 13.007812 C 54.882812 12.996094 54.835938 13.035156 54.824219 13.121094 C 54.824219 13.136719 54.769531 13.398438 54.335938 13.714844 C 54.261719 13.761719 54.25 13.820312 54.308594 13.886719 C 54.332031 13.925781 54.367188 13.945312 54.410156 13.945312 Z M 54.410156 13.945312 " fill-opacity="1" fill-rule="nonzero"/><path fill="#000000" d="M 53.078125 19.84375 C 53.078125 19.933594 53.097656 20.011719 53.136719 20.078125 C 53.175781 20.144531 53.222656 20.175781 53.277344 20.175781 C 53.332031 20.175781 53.378906 20.144531 53.417969 20.078125 C 53.457031 20.011719 53.476562 19.933594 53.476562 19.84375 C 53.476562 19.75 53.457031 19.671875 53.417969 19.609375 C 53.378906 19.542969 53.332031 19.511719 53.277344 19.511719 C 53.222656 19.511719 53.175781 19.542969 53.136719 19.609375 C 53.097656 19.671875 53.078125 19.75 53.078125 19.84375 Z M 53.078125 19.84375 " fill-opacity="1" fill-rule="nonzero"/><path fill="#000000" d="M 53.277344 20.320312 C 53.464844 20.320312 53.59375 20.117188 53.59375 19.84375 C 53.59375 19.566406 53.464844 19.378906 53.277344 19.378906 C 53.089844 19.378906 52.949219 19.582031 52.949219 19.84375 C 52.949219 20.101562 53.089844 20.320312 53.277344 20.320312 Z M 53.277344 19.640625 C 53.292969 19.640625 53.335938 19.710938 53.335938 19.84375 C 53.335938 19.972656 53.292969 20.046875 53.277344 20.046875 C 53.261719 20.046875 53.207031 19.972656 53.207031 19.84375 C 53.207031 19.710938 53.261719 19.640625 53.277344 19.640625 Z M 53.277344 19.640625 " fill-opacity="1" fill-rule="nonzero"/><path fill="#000000" d="M 49.523438 20.089844 C 49.523438 20.179688 49.542969 20.257812 49.582031 20.324219 C 49.621094 20.386719 49.667969 20.421875 49.722656 20.421875 C 49.777344 20.421875 49.828125 20.386719 49.867188 20.324219 C 49.90625 20.257812 49.925781 20.179688 49.925781 20.089844 C 49.925781 19.996094 49.90625 19.917969 49.867188 19.851562 C 49.828125 19.789062 49.777344 19.757812 49.722656 19.757812 C 49.667969 19.757812 49.621094 19.789062 49.582031 19.851562 C 49.542969 19.917969 49.523438 19.996094 49.523438 20.089844 Z M 49.523438 20.089844 " fill-opacity="1" fill-rule="nonzero"/><path fill="#000000" d="M 49.722656 20.566406 C 49.910156 20.566406 50.054688 20.363281 50.054688 20.089844 C 50.054688 19.8125 49.910156 19.625 49.722656 19.625 C 49.539062 19.625 49.394531 19.828125 49.394531 20.089844 C 49.394531 20.347656 49.539062 20.566406 49.722656 20.566406 Z M 49.722656 19.886719 C 49.738281 19.886719 49.796875 19.957031 49.796875 20.089844 C 49.796875 20.21875 49.738281 20.289062 49.722656 20.289062 C 49.710938 20.289062 49.652344 20.21875 49.652344 20.089844 C 49.652344 19.957031 49.710938 19.886719 49.722656 19.886719 Z M 49.722656 19.886719 " fill-opacity="1" fill-rule="nonzero"/><path fill="#000000" d="M 52.089844 23.960938 L 52.445312 23.933594 C 52.761719 23.902344 53.664062 23.601562 53.722656 23.382812 C 53.734375 23.300781 53.699219 23.25 53.621094 23.226562 C 53.554688 23.210938 53.507812 23.234375 53.476562 23.296875 C 53.144531 23.480469 52.792969 23.605469 52.417969 23.671875 C 51.832031 23.746094 51.570312 23.613281 51.558594 23.613281 C 51.476562 23.578125 51.417969 23.601562 51.386719 23.6875 C 51.351562 23.769531 51.375 23.828125 51.457031 23.859375 C 51.660156 23.9375 51.871094 23.972656 52.089844 23.960938 Z M 53.476562 23.28125 Z M 53.476562 23.28125 " fill-opacity="1" fill-rule="nonzero"/><g clip-path="url(#9a6b094227)"><g clip-path="url(#c68a5d7b0f)"><g clip-path="url(#fea2699a64)"><path fill="#ffffff" d="M 22.304688 16.4375 C 22.382812 16.820312 22.386719 17.207031 22.308594 17.59375 C 22.234375 17.980469 22.089844 18.335938 21.871094 18.664062 C 21.65625 18.992188 21.382812 19.265625 21.058594 19.484375 C 20.730469 19.703125 20.375 19.851562 19.992188 19.929688 C 19.605469 20.007812 19.21875 20.007812 18.835938 19.933594 C 18.449219 19.859375 18.09375 19.714844 17.765625 19.496094 C 17.4375 19.277344 17.164062 19.007812 16.945312 18.679688 C 16.726562 18.355469 16.574219 18 16.496094 17.613281 C 16.417969 17.230469 16.417969 16.84375 16.492188 16.457031 C 16.570312 16.074219 16.714844 15.714844 16.933594 15.390625 C 17.148438 15.0625 17.421875 14.789062 17.746094 14.570312 C 18.070312 14.347656 18.425781 14.199219 18.8125 14.121094 C 19.199219 14.042969 19.582031 14.042969 19.96875 14.117188 C 20.355469 14.191406 20.710938 14.339844 21.039062 14.554688 C 21.367188 14.773438 21.640625 15.042969 21.859375 15.371094 C 22.078125 15.695312 22.226562 16.050781 22.304688 16.4375 Z M 22.304688 16.4375 " fill-opacity="1" fill-rule="nonzero"/></g></g></g><g clip-path="url(#5a8c185119)"><g clip-path="url(#f559e13cd8)"><g clip-path="url(#4aac1e8bf3)"><path fill="#ffffff" d="M 31.019531 14.667969 C 31.097656 15.054688 31.097656 15.441406 31.023438 15.824219 C 30.945312 16.210938 30.800781 16.566406 30.582031 16.894531 C 30.367188 17.222656 30.09375 17.496094 29.769531 17.714844 C 29.445312 17.9375 29.085938 18.085938 28.703125 18.164062 C 28.316406 18.242188 27.933594 18.242188 27.546875 18.167969 C 27.160156 18.09375 26.804688 17.945312 26.476562 17.730469 C 26.148438 17.511719 25.875 17.238281 25.65625 16.914062 C 25.4375 16.589844 25.289062 16.234375 25.210938 15.847656 C 25.132812 15.460938 25.128906 15.078125 25.207031 14.691406 C 25.28125 14.304688 25.425781 13.949219 25.644531 13.621094 C 25.859375 13.292969 26.132812 13.019531 26.457031 12.800781 C 26.785156 12.582031 27.140625 12.433594 27.523438 12.355469 C 27.910156 12.277344 28.296875 12.273438 28.679688 12.351562 C 29.066406 12.425781 29.421875 12.570312 29.75 12.789062 C 30.078125 13.003906 30.351562 13.277344 30.570312 13.601562 C 30.789062 13.929688 30.941406 14.285156 31.019531 14.667969 Z M 31.019531 14.667969 " fill-opacity="1" fill-rule="nonzero"/></g></g></g><g clip-path="url(#04ac9f2a55)"><g clip-path="url(#e6bc474d89)"><g clip-path="url(#022a2836da)"><path fill="#ffffff" d="M 29.261719 9.734375 C 29.125 9.761719 28.988281 9.769531 28.851562 9.761719 C 23.753906 9.359375 21.117188 9.894531 16.582031 12.25 C 16.40625 12.339844 16.222656 12.394531 16.027344 12.410156 C 15.828125 12.425781 15.636719 12.40625 15.449219 12.347656 C 15.265625 12.285156 15.09375 12.195312 14.945312 12.066406 C 14.792969 11.941406 14.671875 11.789062 14.582031 11.617188 C 14.492188 11.441406 14.4375 11.257812 14.421875 11.0625 C 14.40625 10.867188 14.425781 10.671875 14.484375 10.488281 C 14.546875 10.300781 14.636719 10.128906 14.765625 9.980469 C 14.890625 9.828125 15.042969 9.710938 15.214844 9.617188 C 20.21875 7.023438 23.460938 6.363281 29.082031 6.804688 C 29.449219 6.835938 29.765625 6.980469 30.023438 7.246094 C 30.28125 7.507812 30.421875 7.824219 30.445312 8.191406 C 30.46875 8.5625 30.367188 8.890625 30.140625 9.183594 C 29.917969 9.476562 29.621094 9.660156 29.261719 9.734375 Z M 29.261719 9.734375 " fill-opacity="1" fill-rule="nonzero"/></g></g></g><g clip-path="url(#4d6e0b7bdd)"><g clip-path="url(#411a370fd1)"><g clip-path="url(#3b14345739)"><path fill="#ffffff" d="M 25.601562 25.222656 C 22.988281 25.730469 20.359375 25.863281 17.707031 25.625 C 17.511719 25.609375 17.328125 25.558594 17.152344 25.46875 C 16.976562 25.378906 16.824219 25.261719 16.699219 25.109375 C 16.570312 24.960938 16.476562 24.792969 16.414062 24.605469 C 16.355469 24.421875 16.332031 24.230469 16.347656 24.03125 C 16.363281 23.835938 16.414062 23.652344 16.503906 23.476562 C 16.59375 23.300781 16.710938 23.148438 16.863281 23.023438 C 17.011719 22.894531 17.179688 22.800781 17.367188 22.738281 C 17.554688 22.679688 17.746094 22.65625 17.941406 22.671875 C 20.316406 22.90625 22.671875 22.785156 25.007812 22.308594 C 27.347656 21.835938 29.566406 21.027344 31.660156 19.886719 C 31.835938 19.796875 32.019531 19.746094 32.214844 19.726562 C 32.414062 19.710938 32.605469 19.730469 32.789062 19.792969 C 32.976562 19.851562 33.148438 19.945312 33.296875 20.070312 C 33.449219 20.195312 33.566406 20.347656 33.660156 20.519531 C 33.75 20.695312 33.800781 20.878906 33.820312 21.078125 C 33.835938 21.273438 33.816406 21.464844 33.757812 21.652344 C 33.695312 21.839844 33.605469 22.007812 33.476562 22.15625 C 33.351562 22.308594 33.199219 22.429688 33.027344 22.519531 C 30.679688 23.773438 28.203125 24.671875 25.601562 25.222656 Z M 25.601562 25.222656 " fill-opacity="1" fill-rule="nonzero"/></g></g></g><g clip-path="url(#8bf894a4ad)"><g clip-path="url(#1fef0f730a)"><g clip-path="url(#286580e881)"><path fill="#ffffff" d="M 34.394531 27.589844 C 32.523438 27.96875 29.230469 24.488281 28.859375 22.664062 C 28.820312 22.472656 28.820312 22.28125 28.859375 22.085938 C 28.894531 21.894531 28.96875 21.714844 29.078125 21.554688 C 29.1875 21.390625 29.320312 21.253906 29.484375 21.144531 C 29.648438 21.03125 29.824219 20.957031 30.019531 20.917969 C 30.210938 20.878906 30.402344 20.878906 30.597656 20.917969 C 30.789062 20.953125 30.96875 21.027344 31.128906 21.136719 C 31.292969 21.246094 31.429688 21.378906 31.542969 21.542969 C 31.652344 21.707031 31.726562 21.882812 31.765625 22.078125 C 31.886719 22.683594 33.332031 24.167969 34.082031 24.601562 C 35.277344 24.128906 36.355469 22.21875 36.851562 20.429688 C 37.230469 18.132812 35.78125 12.601562 31.714844 5.679688 C 30.191406 5.136719 28.621094 4.925781 27.007812 5.039062 L 26.5 7.832031 C 26.464844 8.027344 26.394531 8.207031 26.285156 8.371094 C 26.179688 8.535156 26.046875 8.675781 25.882812 8.785156 C 25.722656 8.898438 25.546875 8.972656 25.355469 9.015625 C 25.160156 9.058594 24.96875 9.058594 24.777344 9.023438 C 24.582031 8.988281 24.402344 8.917969 24.238281 8.8125 C 24.074219 8.707031 23.933594 8.570312 23.824219 8.410156 C 23.710938 8.25 23.632812 8.070312 23.59375 7.878906 C 23.550781 7.6875 23.550781 7.496094 23.585938 7.300781 L 24.300781 3.375 C 24.359375 3.050781 24.511719 2.773438 24.757812 2.550781 C 25 2.328125 25.289062 2.199219 25.617188 2.167969 C 28.273438 1.808594 30.839844 2.128906 33.320312 3.136719 C 33.613281 3.261719 33.839844 3.460938 34.003906 3.734375 C 38.148438 10.660156 40.40625 17.445312 39.757812 21.015625 C 39.75 21.058594 39.738281 21.097656 39.730469 21.136719 C 38.988281 23.882812 37.195312 27.023438 34.394531 27.589844 Z M 34.273438 24.695312 Z M 34.273438 24.695312 " fill-opacity="1" fill-rule="nonzero"/></g></g></g><g clip-path="url(#9326dba1b6)"><g clip-path="url(#7aa10015d1)"><g clip-path="url(#ba8fa644e0)"><path fill="#ffffff" d="M 18.667969 30.78125 C 15.953125 31.332031 13.167969 29.109375 11.464844 26.84375 C 11.441406 26.8125 11.417969 26.777344 11.398438 26.746094 C 9.472656 23.707031 8.875 16.605469 9.863281 8.652344 C 9.902344 8.339844 10.027344 8.070312 10.238281 7.839844 C 12 5.964844 14.117188 4.683594 16.59375 4 C 16.910156 3.898438 17.226562 3.902344 17.539062 4.011719 C 17.855469 4.125 18.101562 4.320312 18.285156 4.597656 L 20.472656 7.933594 C 20.582031 8.097656 20.652344 8.277344 20.6875 8.46875 C 20.726562 8.660156 20.722656 8.855469 20.683594 9.046875 C 20.644531 9.238281 20.570312 9.417969 20.457031 9.578125 C 20.347656 9.742188 20.210938 9.875 20.046875 9.984375 C 19.882812 10.09375 19.703125 10.164062 19.511719 10.199219 C 19.316406 10.238281 19.125 10.234375 18.933594 10.195312 C 18.742188 10.15625 18.5625 10.082031 18.402344 9.96875 C 18.238281 9.859375 18.101562 9.722656 17.996094 9.558594 L 16.441406 7.1875 C 15.039062 7.691406 13.808594 8.460938 12.746094 9.503906 C 11.816406 17.457031 12.660156 23.132812 13.875 25.113281 C 14.960938 26.542969 16.566406 27.867188 17.75 27.902344 C 18.324219 26.921875 18.640625 25.863281 18.695312 24.726562 C 18.65625 24.535156 18.65625 24.34375 18.695312 24.148438 C 18.730469 23.957031 18.804688 23.777344 18.914062 23.613281 C 19.023438 23.449219 19.15625 23.3125 19.320312 23.203125 C 19.484375 23.09375 19.660156 23.019531 19.855469 22.980469 C 20.046875 22.941406 20.238281 22.941406 20.433594 22.980469 C 20.625 23.015625 20.804688 23.089844 20.96875 23.199219 C 21.128906 23.308594 21.265625 23.441406 21.378906 23.605469 C 21.488281 23.769531 21.5625 23.945312 21.601562 24.136719 C 21.730469 25.445312 21.535156 26.699219 21.011719 27.90625 C 20.011719 30.507812 19.035156 30.707031 18.667969 30.78125 Z M 18.667969 30.78125 " fill-opacity="1" fill-rule="nonzero"/></g></g></g><g clip-path="url(#885b74c142)"><g clip-path="url(#9018d81286)"><g clip-path="url(#e7cf67f453)"><g clip-path="url(#2fdb7edd41)"><path fill="#ffffff" d="M 13.113281 43.996094 C 12.820312 44.078125 12.507812 43.90625 12.421875 43.613281 C 12.339844 43.320312 12.511719 43.007812 12.804688 42.921875 C 12.835938 42.914062 13.066406 42.847656 13.097656 42.839844 C 13.390625 42.753906 13.703125 42.929688 13.785156 43.222656 C 13.871094 43.515625 13.695312 43.828125 13.402344 43.910156 C 13.375 43.921875 13.140625 43.988281 13.113281 43.996094 Z M 18.453125 46.636719 C 18.054688 46.167969 17.742188 45.625 17.527344 45.054688 C 17.417969 45.085938 16.5625 45.332031 16.453125 45.363281 C 16.160156 45.445312 15.847656 45.269531 15.765625 44.976562 C 15.679688 44.683594 15.855469 44.371094 16.148438 44.289062 C 16.304688 44.242188 17.550781 43.886719 17.707031 43.84375 C 18 43.757812 18.171875 43.445312 18.089844 43.152344 C 18.003906 42.859375 17.691406 42.683594 17.398438 42.769531 C 17.152344 42.839844 15.164062 43.410156 14.914062 43.480469 C 14.621094 43.5625 14.308594 43.390625 14.226562 43.097656 C 14.140625 42.804688 14.316406 42.492188 14.609375 42.40625 C 14.953125 42.308594 17.722656 41.515625 18.066406 41.417969 C 18.359375 41.332031 18.535156 41.019531 18.449219 40.726562 C 18.367188 40.433594 18.054688 40.261719 17.761719 40.34375 C 17.621094 40.382812 16.488281 40.707031 16.347656 40.746094 C 15.910156 40.875 15.421875 40.644531 15.28125 40.15625 C 15.15625 39.714844 15.386719 39.230469 15.875 39.089844 C 16.425781 38.933594 20.828125 37.671875 21.378906 37.515625 C 23.355469 37.054688 25.527344 37.648438 26.949219 39.296875 C 28.984375 41.621094 28.734375 45.171875 26.320312 47.234375 C 23.988281 49.222656 20.4375 48.972656 18.453125 46.636719 Z M 24.796875 45.375 C 26.136719 44.226562 26.289062 42.207031 25.140625 40.867188 C 23.992188 39.527344 21.976562 39.371094 20.636719 40.523438 C 19.300781 41.671875 19.144531 43.6875 20.292969 45.027344 C 21.445312 46.367188 23.460938 46.523438 24.796875 45.375 Z M 24.90625 42.46875 C 24.855469 42.664062 24.457031 44.214844 24.40625 44.40625 C 24.382812 44.519531 24.285156 44.546875 24.238281 44.558594 C 24.046875 44.613281 22.527344 45.050781 22.335938 45.105469 C 22.238281 45.132812 22.175781 45.097656 22.113281 45.0625 C 21.96875 44.925781 20.8125 43.820312 20.664062 43.683594 C 20.589844 43.597656 20.574219 43.550781 20.597656 43.4375 C 20.644531 43.246094 21.046875 41.695312 21.097656 41.5 C 21.117188 41.390625 21.214844 41.363281 21.261719 41.347656 C 21.453125 41.292969 22.972656 40.859375 23.164062 40.804688 C 23.246094 40.726562 23.308594 40.761719 23.386719 40.84375 C 23.675781 41.121094 24.691406 42.085938 24.835938 42.226562 C 24.910156 42.308594 24.925781 42.359375 24.90625 42.46875 Z M 24.90625 42.46875 " fill-opacity="1" fill-rule="nonzero"/></g></g></g></g><g clip-path="url(#0e8a48ba87)"><g clip-path="url(#71b5a300f1)"><path fill="url(#b376e2ecda)" d="M 1.703125 25.894531 L 1.703125 44.230469 L 13.289062 44.230469 L 13.289062 25.894531 Z M 1.703125 25.894531 " fill-rule="nonzero"/></g></g></svg>