<svg xmlns="http://www.w3.org/2000/svg" xmlns:xlink="http://www.w3.org/1999/xlink" width="100" zoomAndPan="magnify" viewBox="0 0 75 89.999999" height="120" preserveAspectRatio="xMidYMid meet" version="1.0"><defs><clipPath id="6c63c4d647"><path d="M 66 9.199219 L 70 9.199219 L 70 14 L 66 14 Z M 66 9.199219 " clip-rule="nonzero"/></clipPath><clipPath id="5df3371e11"><path d="M 40 53 L 71.710938 53 L 71.710938 90 L 40 90 Z M 40 53 " clip-rule="nonzero"/></clipPath><clipPath id="fa327510a3"><path d="M 15 14 L 21 14 L 21 20 L 15 20 Z M 15 14 " clip-rule="nonzero"/></clipPath><clipPath id="e90b47f05e"><path d="M 5.613281 8.632812 L 31.964844 -0.0625 L 39.25 22.015625 L 12.898438 30.714844 Z M 5.613281 8.632812 " clip-rule="nonzero"/></clipPath><clipPath id="cf41c7db89"><path d="M 5.613281 8.632812 L 31.964844 -0.0625 L 39.25 22.015625 L 12.898438 30.714844 Z M 5.613281 8.632812 " clip-rule="nonzero"/></clipPath><clipPath id="087b3edcf7"><path d="M 23 11 L 29 11 L 29 17 L 23 17 Z M 23 11 " clip-rule="nonzero"/></clipPath><clipPath id="e11b911202"><path d="M 5.613281 8.632812 L 31.964844 -0.0625 L 39.25 22.015625 L 12.898438 30.714844 Z M 5.613281 8.632812 " clip-rule="nonzero"/></clipPath><clipPath id="0bd4cf9524"><path d="M 5.613281 8.632812 L 31.964844 -0.0625 L 39.25 22.015625 L 12.898438 30.714844 Z M 5.613281 8.632812 " clip-rule="nonzero"/></clipPath><clipPath id="a46856d9bd"><path d="M 13 6 L 28 6 L 28 13 L 13 13 Z M 13 6 " clip-rule="nonzero"/></clipPath><clipPath id="74a7aaa204"><path d="M 5.613281 8.632812 L 31.964844 -0.0625 L 39.25 22.015625 L 12.898438 30.714844 Z M 5.613281 8.632812 " clip-rule="nonzero"/></clipPath><clipPath id="721f3f3774"><path d="M 5.613281 8.632812 L 31.964844 -0.0625 L 39.25 22.015625 L 12.898438 30.714844 Z M 5.613281 8.632812 " clip-rule="nonzero"/></clipPath><clipPath id="faf9a4702b"><path d="M 16 17 L 32 17 L 32 25 L 16 25 Z M 16 17 " clip-rule="nonzero"/></clipPath><clipPath id="89f2bd2aa8"><path d="M 5.613281 8.632812 L 31.964844 -0.0625 L 39.25 22.015625 L 12.898438 30.714844 Z M 5.613281 8.632812 " clip-rule="nonzero"/></clipPath><clipPath id="3068417ef8"><path d="M 5.613281 8.632812 L 31.964844 -0.0625 L 39.25 22.015625 L 12.898438 30.714844 Z M 5.613281 8.632812 " clip-rule="nonzero"/></clipPath><clipPath id="8df3f6155c"><path d="M 21 2 L 37 2 L 37 25 L 21 25 Z M 21 2 " clip-rule="nonzero"/></clipPath><clipPath id="c90d287393"><path d="M 5.613281 8.632812 L 31.964844 -0.0625 L 39.25 22.015625 L 12.898438 30.714844 Z M 5.613281 8.632812 " clip-rule="nonzero"/></clipPath><clipPath id="582fa82ba4"><path d="M 5.613281 8.632812 L 31.964844 -0.0625 L 39.25 22.015625 L 12.898438 30.714844 Z M 5.613281 8.632812 " clip-rule="nonzero"/></clipPath><clipPath id="bb365f8dfa"><path d="M 9 5 L 22 5 L 22 29 L 9 29 Z M 9 5 " clip-rule="nonzero"/></clipPath><clipPath id="2b1f7c80b9"><path d="M 5.613281 8.632812 L 31.964844 -0.0625 L 39.25 22.015625 L 12.898438 30.714844 Z M 5.613281 8.632812 " clip-rule="nonzero"/></clipPath><clipPath id="be9a463c05"><path d="M 5.613281 8.632812 L 31.964844 -0.0625 L 39.25 22.015625 L 12.898438 30.714844 Z M 5.613281 8.632812 " clip-rule="nonzero"/></clipPath></defs><g clip-path="url(#6c63c4d647)"><path fill="#cb7b45" d="M 69.960938 11.09375 C 69.9375 10.820312 69.71875 10.46875 69.472656 10.210938 C 69.183594 9.90625 69.007812 9.683594 68.765625 9.46875 C 68.589844 9.3125 68.503906 9.21875 68.273438 9.207031 C 67.996094 9.199219 67.761719 9.324219 67.582031 9.464844 C 67.324219 9.4375 67.09375 9.417969 66.960938 9.441406 C 66.671875 9.484375 66.472656 10.046875 66.472656 10.046875 C 66.222656 10.5 66.5 11.160156 66.644531 11.734375 C 66.800781 12.347656 66.835938 12.859375 66.835938 12.859375 L 68.328125 13.40625 C 68.328125 13.40625 68.824219 12.921875 69.695312 12.007812 C 69.984375 11.699219 70.003906 11.597656 69.960938 11.097656 Z M 69.960938 11.09375 " fill-opacity="1" fill-rule="nonzero"/></g><path fill="#231d27" d="M 52.691406 19.800781 C 53.132812 19.464844 53.367188 18.894531 53.242188 18.3125 C 53.136719 17.828125 52.796875 17.449219 52.371094 17.269531 C 52.539062 16.9375 52.601562 16.546875 52.515625 16.15625 C 52.320312 15.257812 51.429688 14.6875 50.527344 14.882812 C 50.457031 14.898438 50.390625 14.917969 50.324219 14.941406 C 50.339844 14.789062 50.339844 14.636719 50.304688 14.476562 C 50.125 13.652344 49.304688 13.128906 48.476562 13.308594 C 48.386719 13.328125 48.304688 13.355469 48.222656 13.390625 C 47.796875 12.613281 46.894531 12.175781 45.980469 12.371094 C 45.320312 12.515625 44.800781 12.960938 44.542969 13.53125 C 44.246094 13.417969 43.917969 13.382812 43.585938 13.457031 C 42.683594 13.652344 42.113281 14.535156 42.304688 15.433594 C 42.359375 15.675781 42.464844 15.894531 42.609375 16.082031 C 42.496094 16.085938 42.386719 16.097656 42.273438 16.121094 C 41.371094 16.316406 40.800781 17.199219 40.996094 18.097656 C 41.070312 18.445312 41.25 18.742188 41.492188 18.964844 C 41.179688 19.324219 41.03125 19.816406 41.136719 20.316406 C 41.210938 20.644531 41.386719 20.925781 41.621094 21.132812 C 41.265625 21.519531 41.097656 22.0625 41.21875 22.613281 C 41.363281 23.28125 41.894531 23.765625 42.527344 23.890625 C 42.523438 23.996094 42.53125 24.105469 42.554688 24.210938 C 42.726562 24.988281 43.496094 25.484375 44.277344 25.316406 C 44.433594 25.28125 44.570312 25.21875 44.699219 25.144531 C 45 25.878906 45.796875 26.316406 46.601562 26.140625 C 46.796875 26.101562 46.980469 26.023438 47.140625 25.921875 C 47.671875 26.039062 48.222656 26.058594 48.765625 25.9375 C 49.542969 25.769531 50.21875 25.363281 50.765625 24.785156 C 50.832031 24.78125 50.902344 24.769531 50.96875 24.753906 C 51.871094 24.558594 52.441406 23.675781 52.25 22.777344 C 52.242188 22.753906 52.234375 22.730469 52.230469 22.707031 C 52.375 22.71875 52.523438 22.71875 52.671875 22.6875 C 53.472656 22.511719 53.984375 21.722656 53.808594 20.925781 C 53.683594 20.34375 53.230469 19.921875 52.6875 19.796875 Z M 52.691406 19.800781 " fill-opacity="1" fill-rule="nonzero"/><path fill="#cb7b45" d="M 31.773438 30.804688 C 31.773438 30.804688 32.613281 28.714844 31.910156 27.917969 C 31.910156 27.917969 31.566406 27.8125 31.398438 28.289062 C 31.226562 28.769531 31.046875 28.796875 31.046875 28.796875 C 31.046875 28.796875 29.738281 26.121094 28.230469 26.519531 C 26.722656 26.917969 27.550781 29.496094 28.46875 29.992188 C 29.382812 30.484375 30.503906 31.707031 30.503906 31.707031 Z M 31.773438 30.804688 " fill-opacity="1" fill-rule="nonzero"/><path fill="#fcdebe" d="M 54.132812 91.78125 L 49.320312 85.828125 L 52.394531 83.363281 L 54.347656 85.9375 L 55.332031 89.835938 C 55.332031 89.835938 55.546875 90.652344 54.132812 91.785156 Z M 54.132812 91.78125 " fill-opacity="1" fill-rule="nonzero"/><path fill="#cb7b45" d="M 56.3125 80.632812 L 57.941406 82.664062 L 54.046875 85.757812 L 52.421875 83.726562 Z M 56.3125 80.632812 " fill-opacity="1" fill-rule="nonzero"/><path fill="#cb7b45" d="M 42.535156 88.703125 L 44.738281 90.09375 L 42.066406 94.28125 L 39.867188 92.886719 Z M 42.535156 88.703125 " fill-opacity="1" fill-rule="nonzero"/><path fill="#cb7b45" d="M 52.011719 20.113281 C 52.96875 23.484375 51.800781 26.769531 49.402344 27.445312 C 47.003906 28.121094 44.28125 25.933594 43.320312 22.558594 C 42.363281 19.183594 43.777344 17.863281 46.175781 17.1875 C 48.574219 16.511719 51.050781 16.738281 52.011719 20.113281 Z M 52.011719 20.113281 " fill-opacity="1" fill-rule="nonzero"/><path fill="#cb7b45" d="M 51.875 29.152344 L 48.875 30.207031 L 47.527344 26.410156 L 50.523438 25.355469 Z M 51.875 29.152344 " fill-opacity="1" fill-rule="nonzero"/><path fill="#342d39" d="M 46.738281 40.085938 L 48.074219 45.339844 L 49.699219 55.519531 L 62.921875 53.550781 L 60.164062 32.664062 L 62.5625 29.933594 C 65.335938 28.160156 66.769531 24.886719 67.292969 21.644531 L 68.863281 13.425781 L 66.511719 12.558594 L 61.761719 23.0625 L 51.4375 27.757812 L 49.121094 28.546875 C 46.101562 29.574219 43.609375 31.726562 42.160156 34.554688 L 39.367188 38.382812 L 32.09375 30.515625 L 29.796875 31.640625 L 36.761719 44.847656 C 37.140625 45.734375 38.171875 46.148438 39.066406 45.773438 C 39.390625 45.636719 39.664062 45.410156 39.855469 45.113281 L 46.738281 40.082031 Z M 46.738281 40.085938 " fill-opacity="1" fill-rule="nonzero"/><g clip-path="url(#5df3371e11)"><path fill="#fcdebe" d="M 62.921875 53.550781 L 70.675781 68.820312 C 71.699219 71.039062 71.015625 73.667969 69.039062 75.113281 L 55.9375 84.710938 L 54.4375 81.792969 L 64.582031 70.707031 L 57.980469 62.789062 L 56.226562 69.054688 C 54.632812 74.757812 52.234375 80.207031 49.101562 85.238281 L 44.28125 92.988281 L 40.597656 90.34375 L 47.007812 75.617188 L 49.699219 55.515625 L 62.921875 53.546875 Z M 62.921875 53.550781 " fill-opacity="1" fill-rule="nonzero"/></g><path fill="#cb7b45" d="M 51.605469 20.609375 C 51.75 21.183594 52.152344 21.582031 52.507812 21.496094 C 52.863281 21.410156 53.035156 20.871094 52.894531 20.296875 C 52.753906 19.71875 52.351562 19.324219 51.996094 19.410156 C 51.636719 19.496094 51.464844 20.035156 51.605469 20.609375 Z M 51.605469 20.609375 " fill-opacity="1" fill-rule="nonzero"/><path fill="#cb7b45" d="M 42.730469 23.546875 C 42.972656 24.089844 43.4375 24.410156 43.773438 24.261719 C 44.109375 24.113281 44.183594 23.550781 43.941406 23.011719 C 43.699219 22.46875 43.230469 22.152344 42.894531 22.300781 C 42.5625 22.449219 42.484375 23.007812 42.730469 23.546875 Z M 42.730469 23.546875 " fill-opacity="1" fill-rule="nonzero"/><path fill="#cb7b45" d="M 46.898438 29.558594 C 46.898438 29.558594 48.644531 31.632812 51.007812 30.703125 C 53.460938 29.738281 52.804688 27.132812 52.804688 27.132812 L 49.828125 28.105469 C 49.828125 28.105469 47.699219 29.011719 46.898438 29.558594 Z M 46.898438 29.558594 " fill-opacity="1" fill-rule="nonzero"/><path fill="#ffffff" d="M 48.570312 24.644531 L 46.941406 25.160156 C 46.941406 25.160156 47.714844 26.011719 48.886719 25.636719 C 50.0625 25.261719 50.199219 24.125 50.199219 24.125 Z M 48.570312 24.644531 " fill-opacity="1" fill-rule="nonzero"/><path fill="#231d27" d="M 50.480469 25.878906 C 49.917969 26.125 49.660156 25.660156 49.660156 25.660156 L 49.039062 25.878906 L 48.550781 26.054688 C 48.550781 26.054688 48.269531 26.761719 47.578125 26.808594 C 46.882812 26.859375 46.253906 26.835938 46.253906 26.835938 C 46.253906 26.835938 47.324219 27.945312 49.699219 27.515625 C 51.601562 26.964844 51.875 25.03125 51.875 25.03125 C 51.875 25.03125 51.042969 25.640625 50.480469 25.882812 Z M 50.480469 25.878906 " fill-opacity="1" fill-rule="nonzero"/><g clip-path="url(#fa327510a3)"><g clip-path="url(#e90b47f05e)"><g clip-path="url(#cf41c7db89)"><path fill="#ffffff" d="M 20.859375 15.765625 C 20.964844 16.089844 21.007812 16.417969 20.980469 16.753906 C 20.957031 17.09375 20.867188 17.414062 20.714844 17.714844 C 20.5625 18.015625 20.359375 18.277344 20.101562 18.5 C 19.84375 18.722656 19.554688 18.886719 19.234375 18.992188 C 18.914062 19.097656 18.585938 19.136719 18.246094 19.113281 C 17.910156 19.085938 17.589844 19 17.285156 18.847656 C 16.984375 18.695312 16.722656 18.488281 16.5 18.234375 C 16.28125 17.976562 16.117188 17.6875 16.011719 17.367188 C 15.90625 17.046875 15.863281 16.714844 15.890625 16.378906 C 15.914062 16.039062 16.003906 15.71875 16.15625 15.417969 C 16.308594 15.117188 16.511719 14.855469 16.769531 14.632812 C 17.023438 14.414062 17.3125 14.25 17.636719 14.140625 C 17.957031 14.035156 18.285156 13.996094 18.625 14.019531 C 18.960938 14.046875 19.28125 14.132812 19.582031 14.285156 C 19.886719 14.4375 20.148438 14.644531 20.367188 14.898438 C 20.589844 15.15625 20.753906 15.445312 20.859375 15.765625 Z M 20.859375 15.765625 " fill-opacity="1" fill-rule="nonzero"/></g></g></g><g clip-path="url(#087b3edcf7)"><g clip-path="url(#e11b911202)"><g clip-path="url(#0bd4cf9524)"><path fill="#ffffff" d="M 28.132812 13.367188 C 28.238281 13.6875 28.277344 14.019531 28.253906 14.355469 C 28.226562 14.691406 28.140625 15.011719 27.988281 15.316406 C 27.835938 15.617188 27.632812 15.878906 27.375 16.101562 C 27.117188 16.320312 26.828125 16.484375 26.507812 16.589844 C 26.1875 16.695312 25.855469 16.738281 25.519531 16.710938 C 25.179688 16.6875 24.863281 16.597656 24.558594 16.445312 C 24.257812 16.292969 23.996094 16.089844 23.773438 15.832031 C 23.554688 15.578125 23.390625 15.289062 23.285156 14.964844 C 23.175781 14.644531 23.136719 14.316406 23.160156 13.976562 C 23.1875 13.640625 23.277344 13.320312 23.429688 13.019531 C 23.578125 12.714844 23.785156 12.453125 24.039062 12.234375 C 24.296875 12.011719 24.585938 11.847656 24.90625 11.742188 C 25.230469 11.636719 25.558594 11.597656 25.894531 11.621094 C 26.234375 11.644531 26.554688 11.734375 26.855469 11.886719 C 27.160156 12.039062 27.421875 12.242188 27.640625 12.5 C 27.863281 12.757812 28.027344 13.046875 28.132812 13.367188 Z M 28.132812 13.367188 " fill-opacity="1" fill-rule="nonzero"/></g></g></g><g clip-path="url(#a46856d9bd)"><g clip-path="url(#74a7aaa204)"><g clip-path="url(#721f3f3774)"><path fill="#ffffff" d="M 26.125 9.324219 C 26.011719 9.363281 25.894531 9.382812 25.777344 9.386719 C 21.375 9.5625 19.175781 10.289062 15.535156 12.769531 C 15.394531 12.863281 15.242188 12.929688 15.078125 12.960938 C 14.910156 12.996094 14.746094 12.996094 14.578125 12.964844 C 14.410156 12.933594 14.257812 12.871094 14.117188 12.78125 C 13.976562 12.6875 13.855469 12.570312 13.761719 12.429688 C 13.667969 12.289062 13.601562 12.136719 13.566406 11.972656 C 13.53125 11.804688 13.53125 11.640625 13.5625 11.472656 C 13.59375 11.308594 13.65625 11.152344 13.75 11.011719 C 13.84375 10.871094 13.957031 10.753906 14.097656 10.65625 C 18.117188 7.925781 20.820312 7.03125 25.675781 6.835938 C 25.992188 6.824219 26.277344 6.917969 26.523438 7.117188 C 26.773438 7.316406 26.925781 7.570312 26.980469 7.882812 C 27.039062 8.199219 26.984375 8.492188 26.824219 8.765625 C 26.660156 9.039062 26.429688 9.222656 26.125 9.324219 Z M 26.125 9.324219 " fill-opacity="1" fill-rule="nonzero"/></g></g></g><g clip-path="url(#faf9a4702b)"><g clip-path="url(#89f2bd2aa8)"><g clip-path="url(#3068417ef8)"><path fill="#ffffff" d="M 24.574219 22.945312 C 22.390625 23.648438 20.152344 24.03125 17.863281 24.097656 C 17.695312 24.101562 17.53125 24.078125 17.371094 24.019531 C 17.210938 23.960938 17.070312 23.875 16.945312 23.757812 C 16.820312 23.644531 16.722656 23.511719 16.652344 23.355469 C 16.582031 23.203125 16.542969 23.042969 16.535156 22.871094 C 16.527344 22.703125 16.554688 22.539062 16.613281 22.378906 C 16.671875 22.222656 16.757812 22.078125 16.875 21.957031 C 16.988281 21.832031 17.121094 21.734375 17.277344 21.664062 C 17.429688 21.589844 17.589844 21.550781 17.761719 21.546875 C 19.816406 21.503906 21.820312 21.160156 23.769531 20.515625 C 25.722656 19.871094 27.539062 18.953125 29.214844 17.765625 C 29.355469 17.671875 29.507812 17.605469 29.671875 17.570312 C 29.839844 17.535156 30.003906 17.535156 30.171875 17.566406 C 30.335938 17.597656 30.492188 17.660156 30.632812 17.753906 C 30.773438 17.847656 30.890625 17.964844 30.988281 18.101562 C 31.082031 18.242188 31.148438 18.394531 31.183594 18.5625 C 31.214844 18.726562 31.21875 18.894531 31.1875 19.058594 C 31.15625 19.226562 31.09375 19.378906 31 19.519531 C 30.90625 19.664062 30.789062 19.78125 30.652344 19.875 C 28.769531 21.1875 26.746094 22.210938 24.574219 22.945312 Z M 24.574219 22.945312 " fill-opacity="1" fill-rule="nonzero"/></g></g></g><g clip-path="url(#8df3f6155c)"><g clip-path="url(#c90d287393)"><g clip-path="url(#582fa82ba4)"><path fill="#ffffff" d="M 32.339844 24.074219 C 30.777344 24.589844 27.605469 21.949219 27.101562 20.425781 C 27.046875 20.265625 27.027344 20.101562 27.039062 19.933594 C 27.054688 19.765625 27.097656 19.605469 27.171875 19.453125 C 27.25 19.300781 27.351562 19.171875 27.480469 19.058594 C 27.609375 18.949219 27.753906 18.867188 27.914062 18.816406 C 28.074219 18.761719 28.238281 18.742188 28.40625 18.753906 C 28.578125 18.765625 28.738281 18.8125 28.886719 18.886719 C 29.039062 18.964844 29.171875 19.066406 29.28125 19.195312 C 29.390625 19.320312 29.472656 19.464844 29.527344 19.628906 C 29.691406 20.132812 31.078125 21.253906 31.765625 21.550781 C 32.738281 21.023438 33.46875 19.28125 33.710938 17.699219 C 33.796875 15.695312 31.996094 11.109375 27.8125 5.605469 C 26.453125 5.296875 25.089844 5.273438 23.722656 5.535156 L 23.570312 7.980469 C 23.558594 8.148438 23.515625 8.308594 23.441406 8.460938 C 23.367188 8.613281 23.265625 8.746094 23.140625 8.855469 C 23.015625 8.96875 22.871094 9.050781 22.710938 9.105469 C 22.550781 9.164062 22.386719 9.183594 22.214844 9.175781 C 22.046875 9.164062 21.886719 9.121094 21.734375 9.046875 C 21.582031 8.972656 21.449219 8.871094 21.339844 8.746094 C 21.226562 8.617188 21.144531 8.476562 21.089844 8.316406 C 21.035156 8.15625 21.011719 7.988281 21.019531 7.820312 L 21.234375 4.390625 C 21.25 4.105469 21.351562 3.855469 21.539062 3.636719 C 21.726562 3.421875 21.957031 3.28125 22.238281 3.222656 C 24.472656 2.644531 26.699219 2.65625 28.925781 3.265625 C 29.1875 3.34375 29.40625 3.488281 29.570312 3.707031 C 33.824219 9.210938 36.449219 14.78125 36.253906 17.90625 C 36.25 17.941406 36.246094 17.976562 36.242188 18.011719 C 35.890625 20.4375 34.675781 23.304688 32.339844 24.074219 Z M 31.941406 21.613281 Z M 31.941406 21.613281 " fill-opacity="1" fill-rule="nonzero"/></g></g></g><g clip-path="url(#bb365f8dfa)"><g clip-path="url(#2b1f7c80b9)"><g clip-path="url(#be9a463c05)"><path fill="#ffffff" d="M 19.207031 28.410156 C 16.945312 29.15625 14.332031 27.539062 12.644531 25.777344 C 12.621094 25.75 12.597656 25.722656 12.578125 25.699219 C 10.625 23.296875 9.386719 17.28125 9.421875 10.375 C 9.425781 10.105469 9.503906 9.859375 9.660156 9.640625 C 10.976562 7.859375 12.65625 6.546875 14.707031 5.707031 C 14.964844 5.589844 15.234375 5.5625 15.515625 5.625 C 15.796875 5.6875 16.027344 5.828125 16.210938 6.046875 L 18.425781 8.679688 C 18.53125 8.808594 18.613281 8.953125 18.664062 9.113281 C 18.714844 9.277344 18.734375 9.441406 18.71875 9.609375 C 18.703125 9.777344 18.65625 9.9375 18.578125 10.089844 C 18.503906 10.238281 18.398438 10.367188 18.269531 10.476562 C 18.140625 10.585938 17.992188 10.664062 17.832031 10.71875 C 17.671875 10.769531 17.507812 10.785156 17.335938 10.773438 C 17.167969 10.757812 17.007812 10.710938 16.859375 10.632812 C 16.707031 10.554688 16.578125 10.453125 16.46875 10.320312 L 14.898438 8.453125 C 13.75 9.023438 12.777344 9.808594 11.976562 10.808594 C 11.988281 17.707031 13.289062 22.476562 14.53125 24.050781 C 15.605469 25.160156 17.113281 26.128906 18.132812 26.039062 C 18.523438 25.140625 18.683594 24.203125 18.617188 23.226562 C 18.5625 23.066406 18.542969 22.902344 18.554688 22.734375 C 18.570312 22.5625 18.613281 22.402344 18.6875 22.253906 C 18.765625 22.101562 18.867188 21.972656 18.996094 21.859375 C 19.125 21.75 19.269531 21.667969 19.429688 21.613281 C 19.589844 21.5625 19.753906 21.542969 19.921875 21.554688 C 20.09375 21.566406 20.253906 21.609375 20.402344 21.6875 C 20.554688 21.761719 20.683594 21.867188 20.796875 21.992188 C 20.90625 22.121094 20.988281 22.265625 21.042969 22.425781 C 21.285156 23.53125 21.246094 24.625 20.921875 25.710938 C 20.332031 28.039062 19.515625 28.308594 19.207031 28.410156 Z M 19.207031 28.410156 " fill-opacity="1" fill-rule="nonzero"/></g></g></g></svg>